<svg width="28" height="28" viewBox="0 0 28 28" fill="none" xmlns="http://www.w3.org/2000/svg">
<path d="M10.8888 11.1222C13.4662 11.1222 15.5555 9.03287 15.5555 6.45555C15.5555 3.87822 13.4662 1.78888 10.8888 1.78888C8.31151 1.78888 6.22217 3.87822 6.22217 6.45555C6.22217 9.03287 8.31151 11.1222 10.8888 11.1222Z" fill="black"/>
<path d="M12.7868 24.7489C12.5297 24.4947 12.362 24.164 12.3087 23.8064C12.2555 23.4489 12.3195 23.0837 12.4912 22.7656L12.9034 21.9878L12.0557 21.7311C11.71 21.6229 11.409 21.4049 11.1984 21.1101C10.9879 20.8153 10.8792 20.4599 10.889 20.0978V18.5033C10.8883 18.1428 11.0037 17.7916 11.218 17.5017C11.4323 17.2118 11.7341 16.9985 12.079 16.8933L12.9268 16.6367L12.5223 15.8589C12.3556 15.5451 12.2922 15.1867 12.3411 14.8348C12.3899 14.4829 12.5486 14.1554 12.7946 13.8989C12.1962 13.8206 11.5936 13.779 10.9901 13.7744C9.20769 13.7325 7.43798 14.0844 5.80718 14.805C4.17639 15.5256 2.7247 16.5972 1.55566 17.9433V23.9711C1.55566 24.1774 1.63761 24.3752 1.78347 24.5211C1.92933 24.6669 2.12716 24.7489 2.33344 24.7489H12.7868Z" fill="black"/>
<path d="M26.4132 18.2467L24.8577 17.78C24.7501 17.3958 24.5987 17.0252 24.4066 16.6755L25.1844 15.2289C25.2144 15.1752 25.2254 15.1129 25.2155 15.0521C25.2056 14.9914 25.1755 14.9358 25.1299 14.8944L24.0021 13.7589C23.9587 13.7166 23.9033 13.6887 23.8435 13.679C23.7837 13.6692 23.7223 13.6781 23.6677 13.7044L22.2288 14.4822C21.8747 14.2896 21.5021 14.1333 21.1166 14.0155L20.6421 12.46C20.6213 12.4026 20.5831 12.3531 20.533 12.3183C20.4829 12.2835 20.4232 12.2651 20.3621 12.2655H18.7444C18.6837 12.2672 18.6251 12.2875 18.5764 12.3237C18.5277 12.3599 18.4913 12.4102 18.4721 12.4678L18.0055 14.0233C17.6129 14.1386 17.2346 14.2977 16.8777 14.4978L15.4699 13.72C15.4152 13.6909 15.3527 13.6798 15.2913 13.6881C15.2299 13.6965 15.1726 13.724 15.1277 13.7667L13.9844 14.8867C13.9393 14.93 13.9097 14.9869 13.8998 15.0487C13.89 15.1104 13.9006 15.1737 13.9299 15.2289L14.7077 16.6444C14.4991 16.9956 14.3296 17.3686 14.2021 17.7567L12.6466 18.2311C12.5877 18.2481 12.5361 18.2839 12.4996 18.3331C12.463 18.3823 12.4436 18.4421 12.4444 18.5033V20.0978C12.4436 20.159 12.463 20.2188 12.4996 20.268C12.5361 20.3171 12.5877 20.353 12.6466 20.37L14.2021 20.8444C14.3188 21.2253 14.4752 21.5929 14.6688 21.9411L13.891 23.4189C13.8617 23.4741 13.8511 23.5374 13.861 23.5991C13.8708 23.6608 13.9004 23.7177 13.9455 23.7611L15.1044 24.8889C15.1493 24.9316 15.2065 24.959 15.2679 24.9674C15.3294 24.9758 15.3918 24.9646 15.4466 24.9355L16.901 24.1578C17.2469 24.3444 17.612 24.4931 17.9899 24.6011L18.4566 26.1955C18.4761 26.2544 18.5137 26.3055 18.564 26.3418C18.6142 26.3781 18.6746 26.3977 18.7366 26.3978H20.331C20.3917 26.3961 20.4503 26.3758 20.499 26.3396C20.5477 26.3034 20.5841 26.2531 20.6032 26.1955L21.0699 24.6011C21.4431 24.4938 21.8031 24.3451 22.1432 24.1578L23.6132 24.9355C23.668 24.9646 23.7305 24.9758 23.7919 24.9674C23.8533 24.959 23.9105 24.9316 23.9555 24.8889L25.091 23.7611C25.1337 23.7162 25.1612 23.6589 25.1695 23.5975C25.1779 23.5361 25.1668 23.4736 25.1377 23.4189L24.3599 21.9567C24.5455 21.6157 24.6942 21.2559 24.8032 20.8833L26.3588 20.4089C26.4172 20.3901 26.4686 20.354 26.5061 20.3054C26.5436 20.2568 26.5655 20.1979 26.5688 20.1367V18.5267C26.5707 18.4703 26.5572 18.4144 26.5298 18.3651C26.5024 18.3158 26.4621 18.2748 26.4132 18.2467ZM19.5455 21.9178C19.0313 21.9193 18.5283 21.7683 18.1001 21.4837C17.6719 21.1992 17.3377 20.7941 17.1399 20.3195C16.9421 19.845 16.8895 19.3224 16.9889 18.818C17.0882 18.3135 17.335 17.8499 17.698 17.4858C18.061 17.1218 18.5239 16.8736 19.028 16.7727C19.5322 16.6718 20.0549 16.7228 20.53 16.9192C21.0051 17.1156 21.4113 17.4486 21.6971 17.8759C21.9829 18.3033 22.1355 18.8059 22.1355 19.32C22.1355 20.0076 21.8628 20.6672 21.3773 21.1541C20.8918 21.6411 20.2331 21.9157 19.5455 21.9178Z" fill="black"/>
</svg>
