<svg width="103" height="102" viewBox="0 0 103 102" fill="none" xmlns="http://www.w3.org/2000/svg">
<path d="M0.968 94L11.112 71.6H14.28L24.456 94H21.096L12.04 73.392H13.32L4.264 94H0.968ZM5.288 88.4L6.152 85.84H18.76L19.688 88.4H5.288ZM32.2812 94.192C30.6386 94.192 29.1666 93.8293 27.8653 93.104C26.5853 92.3787 25.5719 91.3653 24.8253 90.064C24.0786 88.7627 23.7053 87.248 23.7053 85.52C23.7053 83.792 24.0786 82.288 24.8253 81.008C25.5719 79.7067 26.5853 78.6933 27.8653 77.968C29.1666 77.2427 30.6386 76.88 32.2812 76.88C33.7106 76.88 35.0013 77.2 36.1533 77.84C37.3053 78.48 38.2226 79.44 38.9053 80.72C39.6093 82 39.9613 83.6 39.9613 85.52C39.9613 87.44 39.6199 89.04 38.9373 90.32C38.2759 91.6 37.3693 92.5707 36.2173 93.232C35.0653 93.872 33.7533 94.192 32.2812 94.192ZM32.5373 91.504C33.6039 91.504 34.5639 91.2587 35.4173 90.768C36.2919 90.2773 36.9746 89.584 37.4653 88.688C37.9773 87.7707 38.2333 86.7147 38.2333 85.52C38.2333 84.304 37.9773 83.2587 37.4653 82.384C36.9746 81.488 36.2919 80.7947 35.4173 80.304C34.5639 79.8133 33.6039 79.568 32.5373 79.568C31.4493 79.568 30.4786 79.8133 29.6253 80.304C28.7719 80.7947 28.0893 81.488 27.5773 82.384C27.0653 83.2587 26.8093 84.304 26.8093 85.52C26.8093 86.7147 27.0653 87.7707 27.5773 88.688C28.0893 89.584 28.7719 90.2773 29.6253 90.768C30.4786 91.2587 31.4493 91.504 32.5373 91.504ZM38.3293 94V89.424L38.5212 85.488L38.2013 81.552V70.256H41.2733V94H38.3293ZM66.3818 76.88C67.7471 76.88 68.9524 77.1467 69.9978 77.68C71.0431 78.2133 71.8538 79.024 72.4298 80.112C73.0271 81.2 73.3258 82.576 73.3258 84.24V94H70.2538V84.592C70.2538 82.9493 69.8698 81.712 69.1018 80.88C68.3338 80.048 67.2564 79.632 65.8698 79.632C64.8458 79.632 63.9498 79.8453 63.1818 80.272C62.4138 80.6987 61.8164 81.328 61.3898 82.16C60.9844 82.992 60.7818 84.0267 60.7818 85.264V94H57.7098V84.592C57.7098 82.9493 57.3258 81.712 56.5578 80.88C55.8111 80.048 54.7338 79.632 53.3258 79.632C52.3231 79.632 51.4378 79.8453 50.6698 80.272C49.9018 80.6987 49.3044 81.328 48.8778 82.16C48.4511 82.992 48.2378 84.0267 48.2378 85.264V94H45.1658V77.04H48.1098V81.552L47.6298 80.4C48.1631 79.2907 48.9844 78.4267 50.0938 77.808C51.2031 77.1893 52.4938 76.88 53.9658 76.88C55.5871 76.88 56.9844 77.2853 58.1578 78.096C59.3311 78.8853 60.0991 80.0907 60.4618 81.712L59.2138 81.2C59.7258 79.8987 60.6218 78.8533 61.9018 78.064C63.1818 77.2747 64.6751 76.88 66.3818 76.88ZM77.0582 94V77.04H80.1302V94H77.0582ZM78.5942 73.776C77.9969 73.776 77.4956 73.584 77.0902 73.2C76.7062 72.816 76.5142 72.3467 76.5142 71.792C76.5142 71.216 76.7062 70.736 77.0902 70.352C77.4956 69.968 77.9969 69.776 78.5942 69.776C79.1916 69.776 79.6822 69.968 80.0662 70.352C80.4716 70.7147 80.6742 71.1733 80.6742 71.728C80.6742 72.304 80.4822 72.7947 80.0982 73.2C79.7142 73.584 79.2129 73.776 78.5942 73.776ZM93.1318 76.88C94.5184 76.88 95.7344 77.1467 96.7798 77.68C97.8464 78.2133 98.6784 79.024 99.2758 80.112C99.8731 81.2 100.172 82.576 100.172 84.24V94H97.0998V84.592C97.0998 82.9493 96.6944 81.712 95.8837 80.88C95.0944 80.048 93.9744 79.632 92.5238 79.632C91.4358 79.632 90.4864 79.8453 89.6757 80.272C88.8651 80.6987 88.2358 81.328 87.7878 82.16C87.3611 82.992 87.1477 84.0267 87.1477 85.264V94H84.0757V77.04H87.0198V81.616L86.5398 80.4C87.0944 79.2907 87.9477 78.4267 89.0998 77.808C90.2518 77.1893 91.5958 76.88 93.1318 76.88Z" fill="black"/>
<path d="M44.8892 5.08887C50.2278 5.08904 54.5552 9.41722 54.5552 14.7559C54.555 20.0944 50.2277 24.4217 44.8892 24.4219C39.5505 24.4219 35.2223 20.0945 35.2222 14.7559C35.2222 9.41711 39.5504 5.08887 44.8892 5.08887Z" stroke="black" stroke-width="2"/>
<path d="M45.0967 32.4846H45.1123C45.9221 32.4908 46.7313 32.5269 47.5381 32.593C47.4077 32.9102 47.3091 33.2408 47.248 33.5813L47.2178 33.7708C47.0859 34.7202 47.2376 35.6861 47.6523 36.5471L47.7393 36.718L48.1035 37.4182L47.3193 37.6565H47.3174C46.386 37.9405 45.563 38.4983 44.9551 39.2551L44.8369 39.4094C44.2581 40.1925 43.9298 41.1308 43.8926 42.1008L43.8887 42.2932V45.9377H43.8896C43.8689 46.9083 44.1417 47.861 44.6719 48.6711L44.7822 48.8333C45.352 49.6309 46.1514 50.2341 47.0713 50.5637L47.2568 50.6252L47.2656 50.6282L48.041 50.8625L47.6709 51.5608C47.2068 52.4207 47.0157 53.3999 47.1201 54.3684L47.1455 54.5618C47.1971 54.9079 47.286 55.2454 47.4092 55.5686H25.333C25.1528 55.5685 24.9791 55.506 24.8408 55.3928L24.7832 55.3411C24.6375 55.1952 24.5557 54.9974 24.5557 54.7913V41.3948C26.9249 38.7413 29.7981 36.5876 33.0088 35.0618L33.6777 34.7551C37.2707 33.1675 41.1697 32.3922 45.0967 32.4846Z" stroke="black" stroke-width="2"/>
<path d="M66.3052 29.0356L67.3101 32.3276L67.4653 32.8364L67.9741 32.9917C68.7909 33.2411 69.5803 33.5729 70.3306 33.981L70.8071 34.2397L71.2837 33.9819L74.3315 32.3345L76.5542 34.5728L74.9058 37.6421L74.6479 38.1206L74.9097 38.5972C75.312 39.3292 75.6287 40.1053 75.854 40.9097L76.0024 41.4399L76.5298 41.5981L79.728 42.5571V45.7622L76.4009 46.7769L75.8843 46.9341L75.7329 47.4526C75.5036 48.2356 75.1914 48.9919 74.8013 49.7085L74.5435 50.1812L74.7964 50.6567L76.4604 53.7847L74.23 55.9995L71.0806 54.3335L70.603 54.0815L70.1304 54.3423C69.4183 54.7344 68.6645 55.0453 67.8833 55.27L67.354 55.4224L67.1997 55.9507L66.2085 59.3374H63.0708L62.0796 55.9507L61.9243 55.4214L61.394 55.27L61.0981 55.1802C60.4091 54.9629 59.7413 54.6807 59.105 54.3374L58.6323 54.0825L58.1587 54.3364L55.0444 56.0005L52.7534 53.77L54.4136 50.6167L54.6655 50.1382L54.4019 49.6655C53.9935 48.9311 53.6636 48.1556 53.4175 47.3521L53.2622 46.8433L52.7534 46.688L49.4438 45.6782V42.5522L52.7534 41.5435L53.2495 41.3921L53.4116 40.8989C53.6802 40.0812 54.0375 39.2952 54.4771 38.5552L54.769 38.064L54.4937 37.563L52.8452 34.562L55.0962 32.3569L58.0933 34.0132L58.5806 34.2827L59.0659 34.0103C59.8161 33.5898 60.6118 33.2555 61.437 33.0132L61.9565 32.8599L62.1128 32.3403L63.104 29.0356H66.3052ZM67.3071 37.7485C66.1177 37.2569 64.8165 37.106 63.5493 37.311L63.2964 37.3569C62.0341 37.6095 60.8687 38.2085 59.9292 39.0835L59.7437 39.2622C58.8351 40.1736 58.1994 41.3186 57.9048 42.5679L57.8501 42.8198C57.6015 44.0826 57.7091 45.388 58.1587 46.5903L58.2534 46.8296C58.7487 48.0178 59.5645 49.0429 60.6069 49.7925L60.8179 49.939C61.8902 50.6514 63.1381 51.0506 64.4214 51.0942L64.6782 51.0981C66.3998 51.0929 68.0535 50.4476 69.3218 49.2954L69.5708 49.0581C70.8671 47.7577 71.5952 45.9959 71.5952 44.1597L71.5903 43.9028C71.5459 42.7055 71.1917 41.54 70.563 40.52L70.4243 40.3032C69.7088 39.2334 68.7108 38.3851 67.5435 37.8511L67.3071 37.7485ZM49.1841 42.6323L49.1909 42.6294L49.1929 42.6284C49.1898 42.6294 49.1871 42.6314 49.1841 42.6323Z" stroke="black" stroke-width="2"/>
</svg>
