<svg width="185" height="234" viewBox="0 0 185 234" fill="none" xmlns="http://www.w3.org/2000/svg">
<path d="M0 64C0 55.1634 7.16344 48 16 48H185V185H16C7.16344 185 0 177.837 0 169V64Z" fill="#5119E9"/>
<path d="M143 184.751L185 184.751L185 233.249L184.161 228.427C180.424 206.94 164.228 189.754 143 184.751Z" fill="#5119E9"/>
<path d="M143 48.4974L185 48.4974L185 1.83588e-06L184.161 4.82165C180.424 26.309 164.228 43.4944 143 48.4974Z" fill="#5119E9"/>
<path d="M41.968 160L52.112 137.6H55.28L65.456 160H62.096L53.04 139.392H54.32L45.264 160H41.968ZM46.288 154.4L47.152 151.84H59.76L60.688 154.4H46.288ZM73.2812 160.192C71.6386 160.192 70.1666 159.829 68.8653 159.104C67.5853 158.379 66.5719 157.365 65.8253 156.064C65.0786 154.763 64.7053 153.248 64.7053 151.52C64.7053 149.792 65.0786 148.288 65.8253 147.008C66.5719 145.707 67.5853 144.693 68.8653 143.968C70.1666 143.243 71.6386 142.88 73.2812 142.88C74.7106 142.88 76.0013 143.2 77.1533 143.84C78.3053 144.48 79.2226 145.44 79.9053 146.72C80.6093 148 80.9613 149.6 80.9613 151.52C80.9613 153.44 80.6199 155.04 79.9373 156.32C79.2759 157.6 78.3693 158.571 77.2173 159.232C76.0653 159.872 74.7533 160.192 73.2812 160.192ZM73.5373 157.504C74.6039 157.504 75.5639 157.259 76.4173 156.768C77.2919 156.277 77.9746 155.584 78.4653 154.688C78.9773 153.771 79.2333 152.715 79.2333 151.52C79.2333 150.304 78.9773 149.259 78.4653 148.384C77.9746 147.488 77.2919 146.795 76.4173 146.304C75.5639 145.813 74.6039 145.568 73.5373 145.568C72.4493 145.568 71.4786 145.813 70.6253 146.304C69.7719 146.795 69.0893 147.488 68.5773 148.384C68.0653 149.259 67.8093 150.304 67.8093 151.52C67.8093 152.715 68.0653 153.771 68.5773 154.688C69.0893 155.584 69.7719 156.277 70.6253 156.768C71.4786 157.259 72.4493 157.504 73.5373 157.504ZM79.3293 160V155.424L79.5212 151.488L79.2013 147.552V136.256H82.2733V160H79.3293ZM107.382 142.88C108.747 142.88 109.952 143.147 110.998 143.68C112.043 144.213 112.854 145.024 113.43 146.112C114.027 147.2 114.326 148.576 114.326 150.24V160H111.254V150.592C111.254 148.949 110.87 147.712 110.102 146.88C109.334 146.048 108.256 145.632 106.87 145.632C105.846 145.632 104.95 145.845 104.182 146.272C103.414 146.699 102.816 147.328 102.39 148.16C101.984 148.992 101.782 150.027 101.782 151.264V160H98.7098V150.592C98.7098 148.949 98.3258 147.712 97.5578 146.88C96.8111 146.048 95.7338 145.632 94.3258 145.632C93.3231 145.632 92.4378 145.845 91.6698 146.272C90.9018 146.699 90.3044 147.328 89.8778 148.16C89.4511 148.992 89.2378 150.027 89.2378 151.264V160H86.1658V143.04H89.1098V147.552L88.6298 146.4C89.1631 145.291 89.9844 144.427 91.0938 143.808C92.2031 143.189 93.4938 142.88 94.9658 142.88C96.5871 142.88 97.9844 143.285 99.1578 144.096C100.331 144.885 101.099 146.091 101.462 147.712L100.214 147.2C100.726 145.899 101.622 144.853 102.902 144.064C104.182 143.275 105.675 142.88 107.382 142.88ZM118.058 160V143.04H121.13V160H118.058ZM119.594 139.776C118.997 139.776 118.496 139.584 118.09 139.2C117.706 138.816 117.514 138.347 117.514 137.792C117.514 137.216 117.706 136.736 118.09 136.352C118.496 135.968 118.997 135.776 119.594 135.776C120.192 135.776 120.682 135.968 121.066 136.352C121.472 136.715 121.674 137.173 121.674 137.728C121.674 138.304 121.482 138.795 121.098 139.2C120.714 139.584 120.213 139.776 119.594 139.776ZM134.132 142.88C135.518 142.88 136.734 143.147 137.78 143.68C138.846 144.213 139.678 145.024 140.276 146.112C140.873 147.2 141.172 148.576 141.172 150.24V160H138.1V150.592C138.1 148.949 137.694 147.712 136.884 146.88C136.094 146.048 134.974 145.632 133.524 145.632C132.436 145.632 131.486 145.845 130.676 146.272C129.865 146.699 129.236 147.328 128.788 148.16C128.361 148.992 128.148 150.027 128.148 151.264V160H125.076V143.04H128.02V147.616L127.54 146.4C128.094 145.291 128.948 144.427 130.1 143.808C131.252 143.189 132.596 142.88 134.132 142.88Z" fill="white"/>
<path d="M85.8896 71.0889C91.2283 71.089 95.5557 75.4172 95.5557 80.7559C95.5555 86.0944 91.2281 90.4217 85.8896 90.4219C80.551 90.4219 76.2228 86.0945 76.2227 80.7559C76.2227 75.4171 80.5509 71.0889 85.8896 71.0889Z" stroke="white" stroke-width="2"/>
<path d="M86.0957 98.4846H86.1113C86.9211 98.4908 87.7304 98.5269 88.5371 98.593C88.3827 98.9687 88.2733 99.3637 88.2168 99.7708C88.0849 100.72 88.2366 101.686 88.6514 102.547L88.7383 102.718L89.1025 103.418L88.3184 103.656H88.3164C87.323 103.959 86.4533 104.574 85.8359 105.409C85.2571 106.192 84.9288 107.131 84.8916 108.101L84.8877 108.293V111.938H84.8887C84.8665 112.974 85.1787 113.99 85.7812 114.833C86.351 115.631 87.1504 116.234 88.0703 116.564L88.2559 116.625L88.2646 116.628L89.04 116.863L88.6699 117.561C88.1749 118.478 87.991 119.531 88.1445 120.562C88.1961 120.908 88.285 121.245 88.4082 121.569H66.332C66.1259 121.568 65.928 121.487 65.7822 121.341C65.6365 121.195 65.5547 120.997 65.5547 120.791V107.395C68.0873 104.558 71.196 102.293 74.6768 100.755C78.2697 99.1675 82.1687 98.3922 86.0957 98.4846Z" stroke="white" stroke-width="2"/>
<path d="M107.305 95.0355L108.31 98.3275L108.465 98.8363L108.974 98.9916C109.79 99.241 110.58 99.5728 111.33 99.9808L111.807 100.24L112.283 99.9818L115.331 98.3344L117.554 100.573L115.905 103.642L115.647 104.12L115.909 104.597C116.311 105.329 116.628 106.105 116.854 106.91L117.002 107.44L117.529 107.598L120.728 108.557V111.762L117.4 112.777L116.884 112.934L116.732 113.453C116.503 114.236 116.191 114.992 115.801 115.708L115.543 116.181L115.796 116.657L117.46 119.785L115.229 121.999L112.08 120.333L111.603 120.081L111.13 120.342C110.418 120.734 109.664 121.045 108.883 121.27L108.354 121.422L108.199 121.951L107.208 125.337H104.07L103.079 121.951L102.924 121.421L102.394 121.27L102.098 121.18C101.409 120.963 100.741 120.681 100.104 120.337L99.6318 120.082L99.1582 120.336L96.0439 122L93.7529 119.77L95.4131 116.617L95.665 116.138L95.4014 115.665C94.993 114.931 94.6631 114.155 94.417 113.352L94.2617 112.843L93.7529 112.688L90.4434 111.678V108.552L93.7529 107.543L94.249 107.392L94.4111 106.899C94.6797 106.081 95.0371 105.295 95.4766 104.555L95.7686 104.064L95.4932 103.563L93.8447 100.562L96.0957 98.3568L99.0928 100.013L99.5801 100.283L100.065 100.01C100.816 99.5897 101.611 99.2554 102.437 99.0131L102.956 98.8597L103.112 98.3402L104.104 95.0355H107.305ZM108.307 103.748C107.038 103.224 105.642 103.088 104.296 103.357C102.95 103.626 101.713 104.29 100.743 105.262C99.774 106.234 99.1149 107.473 98.8496 108.82C98.5844 110.167 98.7247 111.562 99.2529 112.829C99.7812 114.097 100.674 115.179 101.817 115.939C102.89 116.651 104.138 117.05 105.421 117.094L105.678 117.098C107.514 117.092 109.274 116.358 110.57 115.058C111.867 113.758 112.595 111.996 112.595 110.16L112.59 109.903C112.542 108.62 112.139 107.373 111.424 106.303C110.661 105.162 109.575 104.273 108.307 103.748ZM90.1836 108.632L90.1904 108.629L90.1924 108.628C90.1894 108.629 90.1867 108.631 90.1836 108.632Z" stroke="white" stroke-width="2"/>
</svg>
