<svg width="103" height="102" viewBox="0 0 103 102" fill="none" xmlns="http://www.w3.org/2000/svg">
<path d="M0.968 94L11.112 71.6H14.28L24.456 94H21.096L12.04 73.392H13.32L4.264 94H0.968ZM5.288 88.4L6.152 85.84H18.76L19.688 88.4H5.288ZM32.2812 94.192C30.6386 94.192 29.1666 93.8293 27.8653 93.104C26.5853 92.3787 25.5719 91.3653 24.8253 90.064C24.0786 88.7627 23.7053 87.248 23.7053 85.52C23.7053 83.792 24.0786 82.288 24.8253 81.008C25.5719 79.7067 26.5853 78.6933 27.8653 77.968C29.1666 77.2427 30.6386 76.88 32.2812 76.88C33.7106 76.88 35.0013 77.2 36.1533 77.84C37.3053 78.48 38.2226 79.44 38.9053 80.72C39.6093 82 39.9613 83.6 39.9613 85.52C39.9613 87.44 39.6199 89.04 38.9373 90.32C38.2759 91.6 37.3693 92.5707 36.2173 93.232C35.0653 93.872 33.7533 94.192 32.2812 94.192ZM32.5373 91.504C33.6039 91.504 34.5639 91.2587 35.4173 90.768C36.2919 90.2773 36.9746 89.584 37.4653 88.688C37.9773 87.7707 38.2333 86.7147 38.2333 85.52C38.2333 84.304 37.9773 83.2587 37.4653 82.384C36.9746 81.488 36.2919 80.7947 35.4173 80.304C34.5639 79.8133 33.6039 79.568 32.5373 79.568C31.4493 79.568 30.4786 79.8133 29.6253 80.304C28.7719 80.7947 28.0893 81.488 27.5773 82.384C27.0653 83.2587 26.8093 84.304 26.8093 85.52C26.8093 86.7147 27.0653 87.7707 27.5773 88.688C28.0893 89.584 28.7719 90.2773 29.6253 90.768C30.4786 91.2587 31.4493 91.504 32.5373 91.504ZM38.3293 94V89.424L38.5212 85.488L38.2013 81.552V70.256H41.2733V94H38.3293ZM66.3818 76.88C67.7471 76.88 68.9524 77.1467 69.9978 77.68C71.0431 78.2133 71.8538 79.024 72.4298 80.112C73.0271 81.2 73.3258 82.576 73.3258 84.24V94H70.2538V84.592C70.2538 82.9493 69.8698 81.712 69.1018 80.88C68.3338 80.048 67.2564 79.632 65.8698 79.632C64.8458 79.632 63.9498 79.8453 63.1818 80.272C62.4138 80.6987 61.8164 81.328 61.3898 82.16C60.9844 82.992 60.7818 84.0267 60.7818 85.264V94H57.7098V84.592C57.7098 82.9493 57.3258 81.712 56.5578 80.88C55.8111 80.048 54.7338 79.632 53.3258 79.632C52.3231 79.632 51.4378 79.8453 50.6698 80.272C49.9018 80.6987 49.3044 81.328 48.8778 82.16C48.4511 82.992 48.2378 84.0267 48.2378 85.264V94H45.1658V77.04H48.1098V81.552L47.6298 80.4C48.1631 79.2907 48.9844 78.4267 50.0938 77.808C51.2031 77.1893 52.4938 76.88 53.9658 76.88C55.5871 76.88 56.9844 77.2853 58.1578 78.096C59.3311 78.8853 60.0991 80.0907 60.4618 81.712L59.2138 81.2C59.7258 79.8987 60.6218 78.8533 61.9018 78.064C63.1818 77.2747 64.6751 76.88 66.3818 76.88ZM77.0582 94V77.04H80.1302V94H77.0582ZM78.5942 73.776C77.9969 73.776 77.4956 73.584 77.0902 73.2C76.7062 72.816 76.5142 72.3467 76.5142 71.792C76.5142 71.216 76.7062 70.736 77.0902 70.352C77.4956 69.968 77.9969 69.776 78.5942 69.776C79.1916 69.776 79.6822 69.968 80.0662 70.352C80.4716 70.7147 80.6742 71.1733 80.6742 71.728C80.6742 72.304 80.4822 72.7947 80.0982 73.2C79.7142 73.584 79.2129 73.776 78.5942 73.776ZM93.1318 76.88C94.5184 76.88 95.7344 77.1467 96.7798 77.68C97.8464 78.2133 98.6784 79.024 99.2758 80.112C99.8731 81.2 100.172 82.576 100.172 84.24V94H97.0998V84.592C97.0998 82.9493 96.6944 81.712 95.8837 80.88C95.0944 80.048 93.9744 79.632 92.5238 79.632C91.4358 79.632 90.4864 79.8453 89.6757 80.272C88.8651 80.6987 88.2358 81.328 87.7878 82.16C87.3611 82.992 87.1477 84.0267 87.1477 85.264V94H84.0757V77.04H87.0198V81.616L86.5398 80.4C87.0944 79.2907 87.9477 78.4267 89.0998 77.808C90.2518 77.1893 91.5958 76.88 93.1318 76.88Z" fill="black"/>
<path d="M44.8893 25.4222C50.7804 25.4222 55.556 20.6466 55.556 14.7555C55.556 8.8645 50.7804 4.08887 44.8893 4.08887C38.9983 4.08887 34.2227 8.8645 34.2227 14.7555C34.2227 20.6466 38.9983 25.4222 44.8893 25.4222Z" fill="black"/>
<path d="M49.2258 56.5689C48.6383 55.9879 48.2549 55.232 48.1331 54.4147C48.0113 53.5975 48.1577 52.7627 48.5502 52.0356L49.4925 50.2578L47.5547 49.6711C46.7645 49.4238 46.0765 48.9254 45.5953 48.2517C45.114 47.5779 44.8657 46.7655 44.888 45.9378V42.2934C44.8865 41.4693 45.1502 40.6666 45.64 40.0039C46.1298 39.3413 46.8198 38.8537 47.608 38.6134L49.5458 38.0267L48.6214 36.2489C48.2403 35.5317 48.0953 34.7126 48.207 33.9082C48.3188 33.1038 48.6815 32.3551 49.2436 31.7689C47.8759 31.59 46.4985 31.495 45.1191 31.4845C41.045 31.3886 37 32.1929 33.2724 33.84C29.5449 35.4871 26.2268 37.9365 23.5547 41.0134V54.7911C23.5547 55.2626 23.742 55.7148 24.0754 56.0482C24.4088 56.3816 24.861 56.5689 25.3325 56.5689H49.2258Z" fill="black"/>
<path d="M80.3723 41.7067L76.8167 40.64C76.5708 39.7618 76.2248 38.9148 75.7856 38.1155L77.5634 34.8089C77.6321 34.6861 77.6572 34.5438 77.6346 34.4049C77.612 34.2661 77.543 34.139 77.439 34.0444L74.8612 31.4489C74.7619 31.3523 74.6353 31.2885 74.4986 31.2662C74.3618 31.244 74.2215 31.2643 74.0967 31.3244L70.8078 33.1022C69.9985 32.662 69.1468 32.3046 68.2656 32.0355L67.1812 28.48C67.1335 28.3489 67.0463 28.2358 66.9317 28.1562C66.8171 28.0766 66.6807 28.0345 66.5412 28.0355H62.8434C62.7048 28.0394 62.5707 28.0858 62.4594 28.1685C62.3481 28.2512 62.2649 28.3662 62.2212 28.4978L61.1545 32.0533C60.2572 32.3168 59.3925 32.6806 58.5767 33.1378L55.359 31.36C55.2339 31.2935 55.091 31.268 54.9506 31.2872C54.8103 31.3063 54.6795 31.3691 54.5767 31.4667L51.9634 34.0267C51.8605 34.1258 51.7927 34.2558 51.7702 34.3969C51.7478 34.5381 51.7719 34.6827 51.839 34.8089L53.6167 38.0444C53.14 38.8472 52.7525 39.6996 52.4612 40.5867L48.9056 41.6711C48.7711 41.71 48.6531 41.7919 48.5696 41.9043C48.4861 42.0167 48.4418 42.1533 48.4434 42.2933V45.9378C48.4418 46.0778 48.4861 46.2144 48.5696 46.3268C48.6531 46.4392 48.7711 46.5211 48.9056 46.56L52.4612 47.6444C52.7278 48.5151 53.0853 49.3553 53.5278 50.1511L51.7501 53.5289C51.683 53.6551 51.6589 53.7997 51.6814 53.9408C51.7038 54.0819 51.7716 54.2119 51.8745 54.3111L54.5234 56.8889C54.6261 56.9864 54.7569 57.0492 54.8973 57.0684C55.0377 57.0875 55.1805 57.062 55.3056 56.9955L58.6301 55.2178C59.4207 55.6444 60.2552 55.9841 61.119 56.2311L62.1856 59.8755C62.2304 60.01 62.3162 60.1269 62.4311 60.2099C62.5459 60.2928 62.684 60.3376 62.8256 60.3378H66.4701C66.6087 60.3339 66.7428 60.2875 66.8541 60.2048C66.9654 60.1221 67.0486 60.0071 67.0923 59.8755L68.159 56.2311C69.0119 55.9858 69.8348 55.6459 70.6123 55.2178L73.9723 56.9955C74.0974 57.062 74.2402 57.0875 74.3806 57.0684C74.521 57.0492 74.6518 56.9864 74.7545 56.8889L77.3501 54.3111C77.4476 54.2084 77.5104 54.0776 77.5296 53.9372C77.5487 53.7968 77.5232 53.654 77.4567 53.5289L75.679 50.1867C76.1032 49.4073 76.4429 48.5849 76.6923 47.7333L80.2479 46.6489C80.3814 46.6059 80.4988 46.5234 80.5845 46.4123C80.6702 46.3012 80.7202 46.1668 80.7279 46.0267V42.3467C80.7322 42.2178 80.7014 42.0901 80.6388 41.9774C80.5761 41.8646 80.484 41.7711 80.3723 41.7067ZM64.6745 50.0978C63.4994 50.1013 62.3496 49.756 61.3708 49.1057C60.392 48.4554 59.6282 47.5293 59.1761 46.4446C58.7239 45.3599 58.6038 44.1655 58.8309 43.0125C59.058 41.8595 59.6221 40.7999 60.4518 39.9677C61.2815 39.1355 62.3395 38.5682 63.4918 38.3376C64.6441 38.1071 65.8389 38.2236 66.9249 38.6725C68.0109 39.1214 68.9393 39.8824 69.5926 40.8593C70.2458 41.8361 70.5945 42.9848 70.5945 44.16C70.5945 45.7317 69.9714 47.2393 68.8617 48.3524C67.752 49.4654 66.2462 50.0931 64.6745 50.0978Z" fill="black"/>
</svg>
