<svg width="185" height="234" viewBox="0 0 185 234" fill="none" xmlns="http://www.w3.org/2000/svg">
    <path d="M0 64C0 55.1634 7.16344 48 16 48H185V185H16C7.16344 185 0 177.837 0 169V64Z" fill="#5119E9"/>
    <path d="M143 184.751L185 184.751L185 233.249L184.161 228.427C180.424 206.94 164.228 189.754 143 184.751Z" fill="#5119E9"/>
    <path d="M143 48.4974L185 48.4974L185 1.83588e-06L184.161 4.82165C180.424 26.309 164.228 43.4944 143 48.4974Z" fill="#5119E9"/>
    <path d="M41.968 159L52.112 136.6H55.28L65.456 159H62.096L53.04 138.392H54.32L45.264 159H41.968ZM46.288 153.4L47.152 150.84H59.76L60.688 153.4H46.288ZM73.2812 159.192C71.6386 159.192 70.1666 158.829 68.8653 158.104C67.5853 157.379 66.5719 156.365 65.8253 155.064C65.0786 153.763 64.7053 152.248 64.7053 150.52C64.7053 148.792 65.0786 147.288 65.8253 146.008C66.5719 144.707 67.5853 143.693 68.8653 142.968C70.1666 142.243 71.6386 141.88 73.2812 141.88C74.7106 141.88 76.0013 142.2 77.1533 142.84C78.3053 143.48 79.2226 144.44 79.9053 145.72C80.6093 147 80.9613 148.6 80.9613 150.52C80.9613 152.44 80.6199 154.04 79.9373 155.32C79.2759 156.6 78.3693 157.571 77.2173 158.232C76.0653 158.872 74.7533 159.192 73.2812 159.192ZM73.5373 156.504C74.6039 156.504 75.5639 156.259 76.4173 155.768C77.2919 155.277 77.9746 154.584 78.4653 153.688C78.9773 152.771 79.2333 151.715 79.2333 150.52C79.2333 149.304 78.9773 148.259 78.4653 147.384C77.9746 146.488 77.2919 145.795 76.4173 145.304C75.5639 144.813 74.6039 144.568 73.5373 144.568C72.4493 144.568 71.4786 144.813 70.6253 145.304C69.7719 145.795 69.0893 146.488 68.5773 147.384C68.0653 148.259 67.8093 149.304 67.8093 150.52C67.8093 151.715 68.0653 152.771 68.5773 153.688C69.0893 154.584 69.7719 155.277 70.6253 155.768C71.4786 156.259 72.4493 156.504 73.5373 156.504ZM79.3293 159V154.424L79.5212 150.488L79.2013 146.552V135.256H82.2733V159H79.3293ZM107.382 141.88C108.747 141.88 109.952 142.147 110.998 142.68C112.043 143.213 112.854 144.024 113.43 145.112C114.027 146.2 114.326 147.576 114.326 149.24V159H111.254V149.592C111.254 147.949 110.87 146.712 110.102 145.88C109.334 145.048 108.256 144.632 106.87 144.632C105.846 144.632 104.95 144.845 104.182 145.272C103.414 145.699 102.816 146.328 102.39 147.16C101.984 147.992 101.782 149.027 101.782 150.264V159H98.7098V149.592C98.7098 147.949 98.3258 146.712 97.5578 145.88C96.8111 145.048 95.7338 144.632 94.3258 144.632C93.3231 144.632 92.4378 144.845 91.6698 145.272C90.9018 145.699 90.3044 146.328 89.8778 147.16C89.4511 147.992 89.2378 149.027 89.2378 150.264V159H86.1658V142.04H89.1098V146.552L88.6298 145.4C89.1631 144.291 89.9844 143.427 91.0938 142.808C92.2031 142.189 93.4938 141.88 94.9658 141.88C96.5871 141.88 97.9844 142.285 99.1578 143.096C100.331 143.885 101.099 145.091 101.462 146.712L100.214 146.2C100.726 144.899 101.622 143.853 102.902 143.064C104.182 142.275 105.675 141.88 107.382 141.88ZM118.058 159V142.04H121.13V159H118.058ZM119.594 138.776C118.997 138.776 118.496 138.584 118.09 138.2C117.706 137.816 117.514 137.347 117.514 136.792C117.514 136.216 117.706 135.736 118.09 135.352C118.496 134.968 118.997 134.776 119.594 134.776C120.192 134.776 120.682 134.968 121.066 135.352C121.472 135.715 121.674 136.173 121.674 136.728C121.674 137.304 121.482 137.795 121.098 138.2C120.714 138.584 120.213 138.776 119.594 138.776ZM134.132 141.88C135.518 141.88 136.734 142.147 137.78 142.68C138.846 143.213 139.678 144.024 140.276 145.112C140.873 146.2 141.172 147.576 141.172 149.24V159H138.1V149.592C138.1 147.949 137.694 146.712 136.884 145.88C136.094 145.048 134.974 144.632 133.524 144.632C132.436 144.632 131.486 144.845 130.676 145.272C129.865 145.699 129.236 146.328 128.788 147.16C128.361 147.992 128.148 149.027 128.148 150.264V159H125.076V142.04H128.02V146.616L127.54 145.4C128.094 144.291 128.948 143.427 130.1 142.808C131.252 142.189 132.596 141.88 134.132 141.88Z" fill="white"/>
    <path d="M85.8893 90.4222C91.7804 90.4222 96.556 85.6466 96.556 79.7555C96.556 73.8645 91.7804 69.0889 85.8893 69.0889C79.9983 69.0889 75.2227 73.8645 75.2227 79.7555C75.2227 85.6466 79.9983 90.4222 85.8893 90.4222Z" fill="white"/>
    <path d="M90.2258 121.569C89.6383 120.988 89.2549 120.232 89.1331 119.415C89.0113 118.597 89.1577 117.763 89.5502 117.036L90.4925 115.258L88.5547 114.671C87.7645 114.424 87.0765 113.925 86.5953 113.252C86.114 112.578 85.8657 111.766 85.888 110.938V107.293C85.8865 106.469 86.1502 105.667 86.64 105.004C87.1298 104.341 87.8198 103.854 88.608 103.613L90.5458 103.027L89.6214 101.249C89.2403 100.532 89.0953 99.7126 89.207 98.9082C89.3188 98.1038 89.6815 97.3551 90.2436 96.7689C88.8759 96.59 87.4985 96.495 86.1191 96.4845C82.045 96.3886 78 97.1929 74.2724 98.84C70.5449 100.487 67.2268 102.936 64.5547 106.013V119.791C64.5547 120.263 64.742 120.715 65.0754 121.048C65.4088 121.382 65.861 121.569 66.3325 121.569H90.2258Z" fill="white"/>
    <path d="M121.372 106.707L117.817 105.64C117.571 104.762 117.225 103.915 116.786 103.116L118.563 99.8089C118.632 99.6861 118.657 99.5438 118.635 99.4049C118.612 99.2661 118.543 99.139 118.439 99.0444L115.861 96.4489C115.762 96.3523 115.635 96.2885 115.499 96.2662C115.362 96.244 115.222 96.2643 115.097 96.3244L111.808 98.1022C110.998 97.662 110.147 97.3046 109.266 97.0355L108.181 93.48C108.133 93.3489 108.046 93.2358 107.932 93.1562C107.817 93.0766 107.681 93.0345 107.541 93.0355H103.843C103.705 93.0394 103.571 93.0858 103.459 93.1685C103.348 93.2512 103.265 93.3662 103.221 93.4978L102.155 97.0533C101.257 97.3168 100.393 97.6806 99.5767 98.1378L96.359 96.36C96.2339 96.2935 96.091 96.268 95.9506 96.2872C95.8103 96.3063 95.6795 96.3691 95.5767 96.4667L92.9634 99.0267C92.8605 99.1258 92.7927 99.2558 92.7702 99.3969C92.7478 99.5381 92.7719 99.6827 92.839 99.8089L94.6167 103.044C94.14 103.847 93.7525 104.7 93.4612 105.587L89.9056 106.671C89.7711 106.71 89.6531 106.792 89.5696 106.904C89.4861 107.017 89.4418 107.153 89.4434 107.293V110.938C89.4418 111.078 89.4861 111.214 89.5696 111.327C89.6531 111.439 89.7711 111.521 89.9056 111.56L93.4612 112.644C93.7278 113.515 94.0853 114.355 94.5278 115.151L92.7501 118.529C92.683 118.655 92.6589 118.8 92.6814 118.941C92.7038 119.082 92.7716 119.212 92.8745 119.311L95.5234 121.889C95.6261 121.986 95.7569 122.049 95.8973 122.068C96.0377 122.087 96.1805 122.062 96.3056 121.996L99.6301 120.218C100.421 120.644 101.255 120.984 102.119 121.231L103.186 124.876C103.23 125.01 103.316 125.127 103.431 125.21C103.546 125.293 103.684 125.338 103.826 125.338H107.47C107.609 125.334 107.743 125.287 107.854 125.205C107.965 125.122 108.049 125.007 108.092 124.876L109.159 121.231C110.012 120.986 110.835 120.646 111.612 120.218L114.972 121.996C115.097 122.062 115.24 122.087 115.381 122.068C115.521 122.049 115.652 121.986 115.755 121.889L118.35 119.311C118.448 119.208 118.51 119.078 118.53 118.937C118.549 118.797 118.523 118.654 118.457 118.529L116.679 115.187C117.103 114.407 117.443 113.585 117.692 112.733L121.248 111.649C121.381 111.606 121.499 111.523 121.585 111.412C121.67 111.301 121.72 111.167 121.728 111.027V107.347C121.732 107.218 121.701 107.09 121.639 106.977C121.576 106.865 121.484 106.771 121.372 106.707ZM105.675 115.098C104.499 115.101 103.35 114.756 102.371 114.106C101.392 113.455 100.628 112.529 100.176 111.445C99.7239 110.36 99.6038 109.166 99.8309 108.013C100.058 106.86 100.622 105.8 101.452 104.968C102.282 104.135 103.339 103.568 104.492 103.338C105.644 103.107 106.839 103.224 107.925 103.673C109.011 104.121 109.939 104.882 110.593 105.859C111.246 106.836 111.595 107.985 111.595 109.16C111.595 110.732 110.971 112.239 109.862 113.352C108.752 114.465 107.246 115.093 105.675 115.098Z" fill="white"/>
</svg>