<svg width="185" height="234" viewBox="0 0 185 234" fill="none" xmlns="http://www.w3.org/2000/svg">
<path d="M0 64C0 55.1634 7.16344 48 16 48H185V185H16C7.16344 185 0 177.837 0 169V64Z" fill="#5119E9"/>
<path d="M41.376 153.256C39.6693 153.256 38.0907 152.979 36.64 152.424C35.2107 151.848 33.9627 151.048 32.896 150.024C31.8507 148.979 31.0293 147.763 30.432 146.376C29.8347 144.989 29.536 143.464 29.536 141.8C29.536 140.136 29.8347 138.611 30.432 137.224C31.0293 135.837 31.8613 134.632 32.928 133.608C33.9947 132.563 35.2427 131.763 36.672 131.208C38.1227 130.632 39.7013 130.344 41.408 130.344C43.136 130.344 44.7253 130.643 46.176 131.24C47.648 131.816 48.896 132.68 49.92 133.832L47.84 135.848C46.9867 134.952 46.0267 134.291 44.96 133.864C43.8933 133.416 42.752 133.192 41.536 133.192C40.2773 133.192 39.104 133.405 38.016 133.832C36.9493 134.259 36.0213 134.856 35.232 135.624C34.4427 136.392 33.824 137.309 33.376 138.376C32.9493 139.421 32.736 140.563 32.736 141.8C32.736 143.037 32.9493 144.189 33.376 145.256C33.824 146.301 34.4427 147.208 35.232 147.976C36.0213 148.744 36.9493 149.341 38.016 149.768C39.104 150.195 40.2773 150.408 41.536 150.408C42.752 150.408 43.8933 150.195 44.96 149.768C46.0267 149.32 46.9867 148.637 47.84 147.72L49.92 149.736C48.896 150.888 47.648 151.763 46.176 152.36C44.7253 152.957 43.1253 153.256 41.376 153.256ZM62.4263 153V149.416L62.2663 148.744V142.632C62.2663 141.331 61.8823 140.328 61.1143 139.624C60.3676 138.899 59.2369 138.536 57.7222 138.536C56.7196 138.536 55.7383 138.707 54.7783 139.048C53.8183 139.368 53.0076 139.805 52.3463 140.36L51.0663 138.056C51.9409 137.352 52.9863 136.819 54.2023 136.456C55.4396 136.072 56.7303 135.88 58.0743 135.88C60.3996 135.88 62.1916 136.445 63.4503 137.576C64.7089 138.707 65.3383 140.435 65.3383 142.76V153H62.4263ZM56.8583 153.192C55.5996 153.192 54.4903 152.979 53.5303 152.552C52.5916 152.125 51.8663 151.539 51.3542 150.792C50.8422 150.024 50.5862 149.16 50.5862 148.2C50.5862 147.283 50.7996 146.451 51.2262 145.704C51.6743 144.957 52.3889 144.36 53.3703 143.912C54.3729 143.464 55.7169 143.24 57.4023 143.24H62.7783V145.448H57.5303C55.9943 145.448 54.9596 145.704 54.4262 146.216C53.8929 146.728 53.6263 147.347 53.6263 148.072C53.6263 148.904 53.9569 149.576 54.6183 150.088C55.2796 150.579 56.1969 150.824 57.3703 150.824C58.5223 150.824 59.5249 150.568 60.3783 150.056C61.2529 149.544 61.8823 148.797 62.2663 147.816L62.8743 149.928C62.4689 150.931 61.7543 151.731 60.7303 152.328C59.7063 152.904 58.4156 153.192 56.8583 153.192ZM78.0953 153.192C76.6446 153.192 75.3326 152.872 74.1593 152.232C73.0073 151.571 72.0899 150.6 71.4072 149.32C70.7459 148.04 70.4152 146.44 70.4152 144.52C70.4152 142.6 70.7566 141 71.4392 139.72C72.1433 138.44 73.0713 137.48 74.2233 136.84C75.3966 136.2 76.6873 135.88 78.0953 135.88C79.7593 135.88 81.2313 136.243 82.5113 136.968C83.7913 137.693 84.8046 138.707 85.5513 140.008C86.2979 141.288 86.6713 142.792 86.6713 144.52C86.6713 146.248 86.2979 147.763 85.5513 149.064C84.8046 150.365 83.7913 151.379 82.5113 152.104C81.2313 152.829 79.7593 153.192 78.0953 153.192ZM69.1033 153V129.256H72.1753V140.552L71.8552 144.488L72.0473 148.424V153H69.1033ZM77.8393 150.504C78.9273 150.504 79.8979 150.259 80.7513 149.768C81.6259 149.277 82.3086 148.584 82.7993 147.688C83.3113 146.771 83.5673 145.715 83.5673 144.52C83.5673 143.304 83.3113 142.259 82.7993 141.384C82.3086 140.488 81.6259 139.795 80.7513 139.304C79.8979 138.813 78.9273 138.568 77.8393 138.568C76.7726 138.568 75.8019 138.813 74.9272 139.304C74.0739 139.795 73.3913 140.488 72.8793 141.384C72.3886 142.259 72.1432 143.304 72.1432 144.52C72.1432 145.715 72.3886 146.771 72.8793 147.688C73.3913 148.584 74.0739 149.277 74.9272 149.768C75.8019 150.259 76.7726 150.504 77.8393 150.504ZM88.9958 153V136.04H92.0678V153H88.9958ZM90.5318 132.776C89.9344 132.776 89.4331 132.584 89.0278 132.2C88.6438 131.816 88.4518 131.347 88.4518 130.792C88.4518 130.216 88.6438 129.736 89.0278 129.352C89.4331 128.968 89.9344 128.776 90.5318 128.776C91.1291 128.776 91.6198 128.968 92.0038 129.352C92.4091 129.715 92.6118 130.173 92.6118 130.728C92.6118 131.304 92.4198 131.795 92.0358 132.2C91.6518 132.584 91.1504 132.776 90.5318 132.776ZM105.069 135.88C106.456 135.88 107.672 136.147 108.717 136.68C109.784 137.213 110.616 138.024 111.213 139.112C111.811 140.2 112.109 141.576 112.109 143.24V153H109.037V143.592C109.037 141.949 108.632 140.712 107.821 139.88C107.032 139.048 105.912 138.632 104.461 138.632C103.373 138.632 102.424 138.845 101.613 139.272C100.803 139.699 100.173 140.328 99.7253 141.16C99.2986 141.992 99.0852 143.027 99.0852 144.264V153H96.0132V136.04H98.9573V140.616L98.4773 139.4C99.0319 138.291 99.8852 137.427 101.037 136.808C102.189 136.189 103.533 135.88 105.069 135.88ZM123.427 153.192C121.613 153.192 120.013 152.819 118.627 152.072C117.261 151.325 116.195 150.301 115.427 149C114.68 147.699 114.307 146.205 114.307 144.52C114.307 142.835 114.669 141.341 115.395 140.04C116.141 138.739 117.155 137.725 118.435 137C119.736 136.253 121.197 135.88 122.819 135.88C124.461 135.88 125.912 136.243 127.171 136.968C128.429 137.693 129.411 138.717 130.115 140.04C130.84 141.341 131.203 142.867 131.203 144.616C131.203 144.744 131.192 144.893 131.171 145.064C131.171 145.235 131.16 145.395 131.139 145.544H116.707V143.336H129.539L128.291 144.104C128.312 143.016 128.088 142.045 127.619 141.192C127.149 140.339 126.499 139.677 125.667 139.208C124.856 138.717 123.907 138.472 122.819 138.472C121.752 138.472 120.803 138.717 119.971 139.208C119.139 139.677 118.488 140.349 118.019 141.224C117.549 142.077 117.315 143.059 117.315 144.168V144.68C117.315 145.811 117.571 146.824 118.083 147.72C118.616 148.595 119.352 149.277 120.291 149.768C121.229 150.259 122.307 150.504 123.523 150.504C124.525 150.504 125.432 150.333 126.243 149.992C127.075 149.651 127.8 149.139 128.419 148.456L130.115 150.44C129.347 151.336 128.387 152.019 127.235 152.488C126.104 152.957 124.835 153.192 123.427 153.192ZM139.372 153.192C137.666 153.192 136.343 152.733 135.404 151.816C134.466 150.899 133.996 149.587 133.996 147.88V132.328H137.068V147.752C137.068 148.669 137.292 149.373 137.74 149.864C138.21 150.355 138.871 150.6 139.724 150.6C140.684 150.6 141.484 150.333 142.124 149.8L143.084 152.008C142.615 152.413 142.05 152.712 141.388 152.904C140.748 153.096 140.076 153.192 139.372 153.192ZM131.116 138.568V136.04H141.932V138.568H131.116ZM149.742 153.192C148.334 153.192 146.99 153 145.71 152.616C144.452 152.232 143.46 151.763 142.734 151.208L144.014 148.776C144.74 149.267 145.636 149.683 146.702 150.024C147.769 150.365 148.857 150.536 149.966 150.536C151.396 150.536 152.42 150.333 153.038 149.928C153.678 149.523 153.998 148.957 153.998 148.232C153.998 147.699 153.806 147.283 153.422 146.984C153.038 146.685 152.526 146.461 151.886 146.312C151.268 146.163 150.574 146.035 149.806 145.928C149.038 145.8 148.27 145.651 147.502 145.48C146.734 145.288 146.03 145.032 145.39 144.712C144.75 144.371 144.238 143.912 143.854 143.336C143.47 142.739 143.278 141.949 143.278 140.968C143.278 139.944 143.566 139.048 144.142 138.28C144.718 137.512 145.529 136.925 146.574 136.52C147.641 136.093 148.9 135.88 150.35 135.88C151.46 135.88 152.58 136.019 153.71 136.296C154.862 136.552 155.801 136.925 156.526 137.416L155.214 139.848C154.446 139.336 153.646 138.984 152.814 138.792C151.982 138.6 151.15 138.504 150.318 138.504C148.974 138.504 147.972 138.728 147.31 139.176C146.649 139.603 146.318 140.157 146.318 140.84C146.318 141.416 146.51 141.864 146.894 142.184C147.3 142.483 147.812 142.717 148.43 142.888C149.07 143.059 149.774 143.208 150.542 143.336C151.31 143.443 152.078 143.592 152.846 143.784C153.614 143.955 154.308 144.2 154.926 144.52C155.566 144.84 156.078 145.288 156.462 145.864C156.868 146.44 157.07 147.208 157.07 148.168C157.07 149.192 156.772 150.077 156.174 150.824C155.577 151.571 154.734 152.157 153.646 152.584C152.558 152.989 151.257 153.192 149.742 153.192Z" fill="white"/>
<path d="M74 108.108C74 107.504 74.4819 107 75.0613 107H102.939C103.518 107 104 107.504 104 108.108V109.64C104 112.6 101.703 115 98.8644 115H79.1375C76.2969 115 74 112.602 74 109.64V108.108Z" fill="white"/>
<path d="M64 76.2938C64 72.6293 67.3099 70 70.9291 70H107.357C110.986 70 114.267 72.6369 114.267 76.2938V87H118.133V77.395C117.488 77.1722 116.945 76.7338 116.599 76.1573C116.252 75.5808 116.126 74.9033 116.242 74.2446C116.357 73.5858 116.708 72.9883 117.231 72.5575C117.754 72.1267 118.416 71.8904 119.1 71.8904C119.784 71.8904 120.446 72.1267 120.969 72.5575C121.492 72.9883 121.843 73.5858 121.958 74.2446C122.074 74.9033 121.948 75.5808 121.601 76.1573C121.255 76.7338 120.712 77.1722 120.067 77.395V87H120.753C121.453 87 122 87.476 122 88.0823V95.3621C122 95.9496 121.453 96.4444 120.753 96.4444H114.267V116.206C114.236 118.762 112.173 121 109.433 121H68.8333C66.1247 121 64 118.805 64 116.183V76.2938ZM70.9291 73.7778C69.0537 73.7778 67.8667 75.0811 67.8667 76.2938V82.2778H110.4V76.2938C110.4 75.0698 109.223 73.7778 107.357 73.7778H70.9291ZM110.4 84.1667H105.083V84.1856C105.083 85.4776 104.001 86.5278 102.667 86.5278C101.333 86.5278 100.25 85.4776 100.25 84.1856V84.1667H91.55V84.1856C91.55 85.4776 90.4673 86.5278 89.1333 86.5278C87.7993 86.5278 86.7167 85.4776 86.7167 84.1856V84.1667H78.0167V84.1856C78.0167 85.4776 76.934 86.5278 75.6 86.5278C74.266 86.5278 73.1833 85.4776 73.1833 84.1856V84.1667H67.8667V101.167H73.1833V101.148C73.1833 99.8558 74.266 98.8056 75.6 98.8056C76.934 98.8056 78.0167 99.8558 78.0167 101.148V101.167H86.7167V101.148C86.7167 99.8558 87.7993 98.8056 89.1333 98.8056C90.4673 98.8056 91.55 99.8558 91.55 101.148V101.167H100.25V101.148C100.25 99.8558 101.333 98.8056 102.667 98.8056C104.001 98.8056 105.083 99.8558 105.083 101.148V101.167H110.4V84.1667ZM67.8667 103.056V116.183C67.8667 116.818 68.3577 117.222 68.8333 117.222H109.433C109.878 117.222 110.388 116.826 110.4 116.17V103.056H67.8667Z" fill="white"/>
<path d="M143 184.751L185 184.751L185 233.249L184.161 228.427C180.424 206.94 164.228 189.754 143 184.751Z" fill="#5119E9"/>
<path d="M143 48.4974L185 48.4974L185 1.83588e-06L184.161 4.82165C180.424 26.309 164.228 43.4944 143 48.4974Z" fill="#5119E9"/>
</svg>
