<svg width="76" height="67" viewBox="0 0 76 67" fill="none" xmlns="http://www.w3.org/2000/svg">
<path d="M13.1035 49.9346C13.1035 49.1432 13.7349 48.4828 14.4941 48.4828H51.0233C51.7824 48.4828 52.4139 49.1432 52.4139 49.9346V51.9421C52.4139 55.8207 49.4042 58.9655 45.6844 58.9655H19.8354C16.1132 58.9655 13.1035 55.8233 13.1035 51.9421V49.9346Z" fill="black"/>
<path d="M0 8.24702C0 3.44533 4.33707 0 9.07947 0H56.8125C61.5676 0 65.8667 3.45523 65.8667 8.24702V22.2759H70.9333V9.69C70.0882 9.39807 69.3759 8.82363 68.9223 8.06822C68.4688 7.3128 68.3031 6.42505 68.4547 5.56187C68.6063 4.69869 69.0653 3.91565 69.7507 3.35115C70.436 2.78665 71.3036 2.47704 72.2 2.47704C73.0964 2.47704 73.9639 2.78665 74.6493 3.35115C75.3346 3.91565 75.7937 4.69869 75.9453 5.56187C76.0969 6.42505 75.9312 7.3128 75.4777 8.06822C75.0241 8.82363 74.3118 9.39807 73.4667 9.69V22.2759H74.366C75.2831 22.2759 76 22.8996 76 23.6941V33.2331C76 34.0029 75.2831 34.6513 74.366 34.6513H65.8667V60.5458C65.8261 63.8946 63.1231 66.8276 59.5333 66.8276H6.33333C2.78413 66.8276 0 63.9515 0 60.5161V8.24702ZM9.07947 4.95019C6.62213 4.95019 5.06667 6.65801 5.06667 8.24702V16.0881H60.8V8.24702C60.8 6.64316 59.2572 4.95019 56.8125 4.95019H9.07947ZM60.8 18.5632H53.8333V18.588C53.8333 20.2809 52.4147 21.6571 50.6667 21.6571C48.9187 21.6571 47.5 20.2809 47.5 18.588V18.5632H36.1V18.588C36.1 20.2809 34.6813 21.6571 32.9333 21.6571C31.1853 21.6571 29.7667 20.2809 29.7667 18.588V18.5632H18.3667V18.588C18.3667 20.2809 16.948 21.6571 15.2 21.6571C13.452 21.6571 12.0333 20.2809 12.0333 18.588V18.5632H5.06667V40.8391H12.0333V40.8143C12.0333 39.1214 13.452 37.7452 15.2 37.7452C16.948 37.7452 18.3667 39.1214 18.3667 40.8143V40.8391H29.7667V40.8143C29.7667 39.1214 31.1853 37.7452 32.9333 37.7452C34.6813 37.7452 36.1 39.1214 36.1 40.8143V40.8391H47.5V40.8143C47.5 39.1214 48.9187 37.7452 50.6667 37.7452C52.4147 37.7452 53.8333 39.1214 53.8333 40.8143V40.8391H60.8V18.5632ZM5.06667 43.3142V60.5161C5.06667 61.3477 5.71013 61.8774 6.33333 61.8774H59.5333C60.116 61.8774 60.7848 61.3576 60.8 60.4988V43.3142H5.06667Z" fill="black"/>
</svg>
