<svg width="52" height="52" viewBox="0 0 52 52" fill="none" xmlns="http://www.w3.org/2000/svg">
<circle cx="26" cy="26" r="26" fill="#707070"/>
<path d="M26 21.25C23.4255 21.25 21.25 23.4255 21.25 26C21.25 28.5745 23.4255 30.75 26 30.75C28.5745 30.75 30.75 28.5745 30.75 26C30.75 23.4255 28.5745 21.25 26 21.25Z" fill="white"/>
<path d="M38.666 14.9166H34.5715L30.2854 10.6305C29.9886 10.3336 29.5859 10.1667 29.166 10.1666H22.8327C22.4128 10.1667 22.0101 10.3336 21.7133 10.6305L17.4272 14.9166H13.3327C11.5863 14.9166 10.166 16.3369 10.166 18.0833V35.5C10.166 37.2464 11.5863 38.6666 13.3327 38.6666H38.666C40.4124 38.6666 41.8327 37.2464 41.8327 35.5V18.0833C41.8327 16.3369 40.4124 14.9166 38.666 14.9166ZM25.9994 33.9166C21.7085 33.9166 18.0827 30.2908 18.0827 26C18.0827 21.7091 21.7085 18.0833 25.9994 18.0833C30.2902 18.0833 33.916 21.7091 33.916 26C33.916 30.2908 30.2902 33.9166 25.9994 33.9166Z" fill="white"/>
</svg>
