<svg width="160" height="104" viewBox="0 0 160 104" fill="none" xmlns="http://www.w3.org/2000/svg">
<path d="M77.7917 2H58V50.8445H93.1818V19.0978M77.7917 2L93.1818 19.0978M77.7917 2V19.0978H93.1818M65.8182 60H101V28.6607M63.8636 28.6607H87.3182M63.8636 17.4682H71.6818M63.8636 39.8533H87.3182" stroke="black" stroke-width="3" stroke-linejoin="round"/>
<path d="M13.376 96.256C11.6693 96.256 10.0907 95.9787 8.64 95.424C7.21067 94.848 5.96267 94.048 4.896 93.024C3.85067 91.9787 3.02933 90.7627 2.432 89.376C1.83467 87.9893 1.536 86.464 1.536 84.8C1.536 83.136 1.83467 81.6107 2.432 80.224C3.02933 78.8373 3.86133 77.632 4.928 76.608C5.99467 75.5627 7.24267 74.7627 8.672 74.208C10.1227 73.632 11.7013 73.344 13.408 73.344C15.136 73.344 16.7253 73.6427 18.176 74.24C19.648 74.816 20.896 75.68 21.92 76.832L19.84 78.848C18.9867 77.952 18.0267 77.2907 16.96 76.864C15.8933 76.416 14.752 76.192 13.536 76.192C12.2773 76.192 11.104 76.4053 10.016 76.832C8.94933 77.2587 8.02133 77.856 7.232 78.624C6.44267 79.392 5.824 80.3093 5.376 81.376C4.94933 82.4213 4.736 83.5627 4.736 84.8C4.736 86.0373 4.94933 87.1893 5.376 88.256C5.824 89.3013 6.44267 90.208 7.232 90.976C8.02133 91.744 8.94933 92.3413 10.016 92.768C11.104 93.1947 12.2773 93.408 13.536 93.408C14.752 93.408 15.8933 93.1947 16.96 92.768C18.0267 92.32 18.9867 91.6373 19.84 90.72L21.92 92.736C20.896 93.888 19.648 94.7627 18.176 95.36C16.7253 95.9573 15.1253 96.256 13.376 96.256ZM30.6623 96.192C28.9556 96.192 27.4409 95.8187 26.1183 95.072C24.7956 94.3253 23.7503 93.3013 22.9822 92C22.2143 90.6773 21.8303 89.184 21.8303 87.52C21.8303 85.8347 22.2143 84.3413 22.9822 83.04C23.7503 81.7387 24.7956 80.7253 26.1183 80C27.4409 79.2533 28.9556 78.88 30.6623 78.88C32.3476 78.88 33.8516 79.2533 35.1743 80C36.5183 80.7253 37.5636 81.7387 38.3103 83.04C39.0783 84.32 39.4623 85.8133 39.4623 87.52C39.4623 89.2053 39.0783 90.6987 38.3103 92C37.5636 93.3013 36.5183 94.3253 35.1743 95.072C33.8516 95.8187 32.3476 96.192 30.6623 96.192ZM30.6623 93.504C31.7503 93.504 32.7209 93.2587 33.5743 92.768C34.4489 92.2773 35.1316 91.584 35.6223 90.688C36.1129 89.7707 36.3583 88.7147 36.3583 87.52C36.3583 86.304 36.1129 85.2587 35.6223 84.384C35.1316 83.488 34.4489 82.7947 33.5743 82.304C32.7209 81.8133 31.7503 81.568 30.6623 81.568C29.5743 81.568 28.6036 81.8133 27.7503 82.304C26.8969 82.7947 26.2143 83.488 25.7023 84.384C25.1903 85.2587 24.9343 86.304 24.9343 87.52C24.9343 88.7147 25.1903 89.7707 25.7023 90.688C26.2143 91.584 26.8969 92.2773 27.7503 92.768C28.6036 93.2587 29.5743 93.504 30.6623 93.504ZM41.7908 96V72.256H44.8628V96H41.7908ZM48.8083 96V72.256H51.8803V96H48.8083ZM63.3778 96.192C61.5644 96.192 59.9644 95.8187 58.5777 95.072C57.2124 94.3253 56.1457 93.3013 55.3777 92C54.6311 90.6987 54.2577 89.2053 54.2577 87.52C54.2577 85.8347 54.6204 84.3413 55.3457 83.04C56.0924 81.7387 57.1057 80.7253 58.3857 80C59.6871 79.2533 61.1484 78.88 62.7698 78.88C64.4124 78.88 65.8631 79.2427 67.1218 79.968C68.3804 80.6933 69.3618 81.7173 70.0658 83.04C70.7911 84.3413 71.1538 85.8667 71.1538 87.616C71.1538 87.744 71.1431 87.8933 71.1217 88.064C71.1217 88.2347 71.1111 88.3947 71.0898 88.544H56.6577V86.336H69.4897L68.2418 87.104C68.2631 86.016 68.0391 85.0453 67.5698 84.192C67.1004 83.3387 66.4498 82.6773 65.6178 82.208C64.8071 81.7173 63.8578 81.472 62.7698 81.472C61.7031 81.472 60.7538 81.7173 59.9218 82.208C59.0897 82.6773 58.4391 83.3493 57.9697 84.224C57.5004 85.0773 57.2657 86.0587 57.2657 87.168V87.68C57.2657 88.8107 57.5217 89.824 58.0338 90.72C58.5671 91.5947 59.3031 92.2773 60.2418 92.768C61.1804 93.2587 62.2577 93.504 63.4738 93.504C64.4764 93.504 65.3831 93.3333 66.1938 92.992C67.0258 92.6507 67.7511 92.1387 68.3698 91.456L70.0658 93.44C69.2977 94.336 68.3377 95.0187 67.1858 95.488C66.0551 95.9573 64.7858 96.192 63.3778 96.192ZM80.8915 96.192C79.1635 96.192 77.6168 95.8187 76.2515 95.072C74.9075 94.3253 73.8515 93.3013 73.0835 92C72.3155 90.6987 71.9315 89.2053 71.9315 87.52C71.9315 85.8347 72.3155 84.3413 73.0835 83.04C73.8515 81.7387 74.9075 80.7253 76.2515 80C77.6168 79.2533 79.1635 78.88 80.8915 78.88C82.4275 78.88 83.7928 79.1893 84.9875 79.808C86.2035 80.4053 87.1422 81.3013 87.8035 82.496L85.4675 84C84.9128 83.168 84.2302 82.56 83.4195 82.176C82.6302 81.7707 81.7768 81.568 80.8595 81.568C79.7502 81.568 78.7582 81.8133 77.8835 82.304C77.0088 82.7947 76.3155 83.488 75.8035 84.384C75.2915 85.2587 75.0355 86.304 75.0355 87.52C75.0355 88.736 75.2915 89.792 75.8035 90.688C76.3155 91.584 77.0088 92.2773 77.8835 92.768C78.7582 93.2587 79.7502 93.504 80.8595 93.504C81.7768 93.504 82.6302 93.312 83.4195 92.928C84.2302 92.5227 84.9128 91.904 85.4675 91.072L87.8035 92.544C87.1422 93.7173 86.2035 94.624 84.9875 95.264C83.7928 95.8827 82.4275 96.192 80.8915 96.192ZM95.9035 96.192C94.1968 96.192 92.8742 95.7333 91.9355 94.816C90.9968 93.8987 90.5275 92.5867 90.5275 90.88V75.328H93.5995V90.752C93.5995 91.6693 93.8235 92.3733 94.2715 92.864C94.7408 93.3547 95.4022 93.6 96.2555 93.6C97.2155 93.6 98.0155 93.3333 98.6555 92.8L99.6155 95.008C99.1462 95.4133 98.5808 95.712 97.9195 95.904C97.2795 96.096 96.6075 96.192 95.9035 96.192ZM87.6475 81.568V79.04H98.4635V81.568H87.6475ZM101.409 96V79.04H104.481V96H101.409ZM102.945 75.776C102.348 75.776 101.847 75.584 101.441 75.2C101.057 74.816 100.865 74.3467 100.865 73.792C100.865 73.216 101.057 72.736 101.441 72.352C101.847 71.968 102.348 71.776 102.945 71.776C103.543 71.776 104.033 71.968 104.417 72.352C104.823 72.7147 105.025 73.1733 105.025 73.728C105.025 74.304 104.833 74.7947 104.449 75.2C104.065 75.584 103.564 75.776 102.945 75.776ZM115.691 96.192C113.984 96.192 112.47 95.8187 111.147 95.072C109.824 94.3253 108.779 93.3013 108.011 92C107.243 90.6773 106.859 89.184 106.859 87.52C106.859 85.8347 107.243 84.3413 108.011 83.04C108.779 81.7387 109.824 80.7253 111.147 80C112.47 79.2533 113.984 78.88 115.691 78.88C117.376 78.88 118.88 79.2533 120.203 80C121.547 80.7253 122.592 81.7387 123.339 83.04C124.107 84.32 124.491 85.8133 124.491 87.52C124.491 89.2053 124.107 90.6987 123.339 92C122.592 93.3013 121.547 94.3253 120.203 95.072C118.88 95.8187 117.376 96.192 115.691 96.192ZM115.691 93.504C116.779 93.504 117.75 93.2587 118.603 92.768C119.478 92.2773 120.16 91.584 120.651 90.688C121.142 89.7707 121.387 88.7147 121.387 87.52C121.387 86.304 121.142 85.2587 120.651 84.384C120.16 83.488 119.478 82.7947 118.603 82.304C117.75 81.8133 116.779 81.568 115.691 81.568C114.603 81.568 113.632 81.8133 112.779 82.304C111.926 82.7947 111.243 83.488 110.731 84.384C110.219 85.2587 109.963 86.304 109.963 87.52C109.963 88.7147 110.219 89.7707 110.731 90.688C111.243 91.584 111.926 92.2773 112.779 92.768C113.632 93.2587 114.603 93.504 115.691 93.504ZM135.876 78.88C137.262 78.88 138.478 79.1467 139.524 79.68C140.59 80.2133 141.422 81.024 142.02 82.112C142.617 83.2 142.916 84.576 142.916 86.24V96H139.844V86.592C139.844 84.9493 139.438 83.712 138.628 82.88C137.838 82.048 136.718 81.632 135.268 81.632C134.18 81.632 133.23 81.8453 132.42 82.272C131.609 82.6987 130.98 83.328 130.532 84.16C130.105 84.992 129.892 86.0267 129.892 87.264V96H126.82V79.04H129.764V83.616L129.284 82.4C129.838 81.2907 130.692 80.4267 131.844 79.808C132.996 79.1893 134.34 78.88 135.876 78.88ZM151.545 96.192C150.137 96.192 148.793 96 147.513 95.616C146.254 95.232 145.262 94.7627 144.537 94.208L145.817 91.776C146.542 92.2667 147.438 92.6827 148.505 93.024C149.571 93.3653 150.659 93.536 151.769 93.536C153.198 93.536 154.222 93.3333 154.841 92.928C155.481 92.5227 155.801 91.9573 155.801 91.232C155.801 90.6987 155.609 90.2827 155.225 89.984C154.841 89.6853 154.329 89.4613 153.689 89.312C153.07 89.1627 152.377 89.0347 151.609 88.928C150.841 88.8 150.073 88.6507 149.305 88.48C148.537 88.288 147.833 88.032 147.193 87.712C146.553 87.3707 146.041 86.912 145.657 86.336C145.273 85.7387 145.081 84.9493 145.081 83.968C145.081 82.944 145.369 82.048 145.945 81.28C146.521 80.512 147.331 79.9253 148.377 79.52C149.443 79.0933 150.702 78.88 152.153 78.88C153.262 78.88 154.382 79.0187 155.513 79.296C156.665 79.552 157.603 79.9253 158.329 80.416L157.017 82.848C156.249 82.336 155.449 81.984 154.617 81.792C153.785 81.6 152.953 81.504 152.121 81.504C150.777 81.504 149.774 81.728 149.113 82.176C148.451 82.6027 148.121 83.1573 148.121 83.84C148.121 84.416 148.313 84.864 148.697 85.184C149.102 85.4827 149.614 85.7173 150.233 85.888C150.873 86.0587 151.577 86.208 152.345 86.336C153.113 86.4427 153.881 86.592 154.649 86.784C155.417 86.9547 156.11 87.2 156.729 87.52C157.369 87.84 157.881 88.288 158.265 88.864C158.67 89.44 158.873 90.208 158.873 91.168C158.873 92.192 158.574 93.0773 157.977 93.824C157.379 94.5707 156.537 95.1573 155.449 95.584C154.361 95.9893 153.059 96.192 151.545 96.192Z" fill="black"/>
</svg>
