<svg width="185" height="234" viewBox="0 0 185 234" fill="none" xmlns="http://www.w3.org/2000/svg">
<path d="M0 64C0 55.1634 7.16344 48 16 48H185V185H16C7.16344 185 0 177.837 0 169V64Z" fill="#5119E9"/>
<path d="M90.7917 65H71V113.844H106.182V82.0978M90.7917 65L106.182 82.0978M90.7917 65V82.0978H106.182M78.8182 123H114V91.6607M76.8636 91.6607H100.318M76.8636 80.4682H84.6818M76.8636 102.853H100.318" stroke="white" stroke-width="3" stroke-linejoin="round"/>
<path d="M26.376 159.256C24.6693 159.256 23.0907 158.979 21.64 158.424C20.2107 157.848 18.9627 157.048 17.896 156.024C16.8507 154.979 16.0293 153.763 15.432 152.376C14.8347 150.989 14.536 149.464 14.536 147.8C14.536 146.136 14.8347 144.611 15.432 143.224C16.0293 141.837 16.8613 140.632 17.928 139.608C18.9947 138.563 20.2427 137.763 21.672 137.208C23.1227 136.632 24.7013 136.344 26.408 136.344C28.136 136.344 29.7253 136.643 31.176 137.24C32.648 137.816 33.896 138.68 34.92 139.832L32.84 141.848C31.9867 140.952 31.0267 140.291 29.96 139.864C28.8933 139.416 27.752 139.192 26.536 139.192C25.2773 139.192 24.104 139.405 23.016 139.832C21.9493 140.259 21.0213 140.856 20.232 141.624C19.4427 142.392 18.824 143.309 18.376 144.376C17.9493 145.421 17.736 146.563 17.736 147.8C17.736 149.037 17.9493 150.189 18.376 151.256C18.824 152.301 19.4427 153.208 20.232 153.976C21.0213 154.744 21.9493 155.341 23.016 155.768C24.104 156.195 25.2773 156.408 26.536 156.408C27.752 156.408 28.8933 156.195 29.96 155.768C31.0267 155.32 31.9867 154.637 32.84 153.72L34.92 155.736C33.896 156.888 32.648 157.763 31.176 158.36C29.7253 158.957 28.1253 159.256 26.376 159.256ZM43.6623 159.192C41.9556 159.192 40.4409 158.819 39.1183 158.072C37.7956 157.325 36.7503 156.301 35.9822 155C35.2143 153.677 34.8303 152.184 34.8303 150.52C34.8303 148.835 35.2143 147.341 35.9822 146.04C36.7503 144.739 37.7956 143.725 39.1183 143C40.4409 142.253 41.9556 141.88 43.6623 141.88C45.3476 141.88 46.8516 142.253 48.1743 143C49.5183 143.725 50.5636 144.739 51.3103 146.04C52.0783 147.32 52.4623 148.813 52.4623 150.52C52.4623 152.205 52.0783 153.699 51.3103 155C50.5636 156.301 49.5183 157.325 48.1743 158.072C46.8516 158.819 45.3476 159.192 43.6623 159.192ZM43.6623 156.504C44.7503 156.504 45.7209 156.259 46.5743 155.768C47.4489 155.277 48.1316 154.584 48.6223 153.688C49.1129 152.771 49.3583 151.715 49.3583 150.52C49.3583 149.304 49.1129 148.259 48.6223 147.384C48.1316 146.488 47.4489 145.795 46.5743 145.304C45.7209 144.813 44.7503 144.568 43.6623 144.568C42.5743 144.568 41.6036 144.813 40.7503 145.304C39.8969 145.795 39.2143 146.488 38.7023 147.384C38.1903 148.259 37.9343 149.304 37.9343 150.52C37.9343 151.715 38.1903 152.771 38.7023 153.688C39.2143 154.584 39.8969 155.277 40.7503 155.768C41.6036 156.259 42.5743 156.504 43.6623 156.504ZM54.7908 159V135.256H57.8628V159H54.7908ZM61.8083 159V135.256H64.8803V159H61.8083ZM76.3778 159.192C74.5644 159.192 72.9644 158.819 71.5777 158.072C70.2124 157.325 69.1457 156.301 68.3777 155C67.6311 153.699 67.2577 152.205 67.2577 150.52C67.2577 148.835 67.6204 147.341 68.3457 146.04C69.0924 144.739 70.1057 143.725 71.3857 143C72.6871 142.253 74.1484 141.88 75.7698 141.88C77.4124 141.88 78.8631 142.243 80.1218 142.968C81.3804 143.693 82.3618 144.717 83.0658 146.04C83.7911 147.341 84.1538 148.867 84.1538 150.616C84.1538 150.744 84.1431 150.893 84.1217 151.064C84.1217 151.235 84.1111 151.395 84.0898 151.544H69.6577V149.336H82.4897L81.2418 150.104C81.2631 149.016 81.0391 148.045 80.5698 147.192C80.1004 146.339 79.4498 145.677 78.6178 145.208C77.8071 144.717 76.8578 144.472 75.7698 144.472C74.7031 144.472 73.7538 144.717 72.9218 145.208C72.0897 145.677 71.4391 146.349 70.9697 147.224C70.5004 148.077 70.2657 149.059 70.2657 150.168V150.68C70.2657 151.811 70.5217 152.824 71.0338 153.72C71.5671 154.595 72.3031 155.277 73.2418 155.768C74.1804 156.259 75.2577 156.504 76.4738 156.504C77.4764 156.504 78.3831 156.333 79.1938 155.992C80.0258 155.651 80.7511 155.139 81.3698 154.456L83.0658 156.44C82.2977 157.336 81.3377 158.019 80.1858 158.488C79.0551 158.957 77.7858 159.192 76.3778 159.192ZM93.8915 159.192C92.1635 159.192 90.6168 158.819 89.2515 158.072C87.9075 157.325 86.8515 156.301 86.0835 155C85.3155 153.699 84.9315 152.205 84.9315 150.52C84.9315 148.835 85.3155 147.341 86.0835 146.04C86.8515 144.739 87.9075 143.725 89.2515 143C90.6168 142.253 92.1635 141.88 93.8915 141.88C95.4275 141.88 96.7928 142.189 97.9875 142.808C99.2035 143.405 100.142 144.301 100.804 145.496L98.4675 147C97.9128 146.168 97.2302 145.56 96.4195 145.176C95.6302 144.771 94.7768 144.568 93.8595 144.568C92.7502 144.568 91.7582 144.813 90.8835 145.304C90.0088 145.795 89.3155 146.488 88.8035 147.384C88.2915 148.259 88.0355 149.304 88.0355 150.52C88.0355 151.736 88.2915 152.792 88.8035 153.688C89.3155 154.584 90.0088 155.277 90.8835 155.768C91.7582 156.259 92.7502 156.504 93.8595 156.504C94.7768 156.504 95.6302 156.312 96.4195 155.928C97.2302 155.523 97.9128 154.904 98.4675 154.072L100.804 155.544C100.142 156.717 99.2035 157.624 97.9875 158.264C96.7928 158.883 95.4275 159.192 93.8915 159.192ZM108.904 159.192C107.197 159.192 105.874 158.733 104.936 157.816C103.997 156.899 103.528 155.587 103.528 153.88V138.328H106.6V153.752C106.6 154.669 106.824 155.373 107.272 155.864C107.741 156.355 108.402 156.6 109.256 156.6C110.216 156.6 111.016 156.333 111.656 155.8L112.616 158.008C112.146 158.413 111.581 158.712 110.92 158.904C110.28 159.096 109.608 159.192 108.904 159.192ZM100.648 144.568V142.04H111.464V144.568H100.648ZM114.409 159V142.04H117.481V159H114.409ZM115.945 138.776C115.348 138.776 114.847 138.584 114.441 138.2C114.057 137.816 113.865 137.347 113.865 136.792C113.865 136.216 114.057 135.736 114.441 135.352C114.847 134.968 115.348 134.776 115.945 134.776C116.543 134.776 117.033 134.968 117.417 135.352C117.823 135.715 118.025 136.173 118.025 136.728C118.025 137.304 117.833 137.795 117.449 138.2C117.065 138.584 116.564 138.776 115.945 138.776ZM128.691 159.192C126.984 159.192 125.47 158.819 124.147 158.072C122.824 157.325 121.779 156.301 121.011 155C120.243 153.677 119.859 152.184 119.859 150.52C119.859 148.835 120.243 147.341 121.011 146.04C121.779 144.739 122.824 143.725 124.147 143C125.47 142.253 126.984 141.88 128.691 141.88C130.376 141.88 131.88 142.253 133.203 143C134.547 143.725 135.592 144.739 136.339 146.04C137.107 147.32 137.491 148.813 137.491 150.52C137.491 152.205 137.107 153.699 136.339 155C135.592 156.301 134.547 157.325 133.203 158.072C131.88 158.819 130.376 159.192 128.691 159.192ZM128.691 156.504C129.779 156.504 130.75 156.259 131.603 155.768C132.478 155.277 133.16 154.584 133.651 153.688C134.142 152.771 134.387 151.715 134.387 150.52C134.387 149.304 134.142 148.259 133.651 147.384C133.16 146.488 132.478 145.795 131.603 145.304C130.75 144.813 129.779 144.568 128.691 144.568C127.603 144.568 126.632 144.813 125.779 145.304C124.926 145.795 124.243 146.488 123.731 147.384C123.219 148.259 122.963 149.304 122.963 150.52C122.963 151.715 123.219 152.771 123.731 153.688C124.243 154.584 124.926 155.277 125.779 155.768C126.632 156.259 127.603 156.504 128.691 156.504ZM148.876 141.88C150.262 141.88 151.478 142.147 152.524 142.68C153.59 143.213 154.422 144.024 155.02 145.112C155.617 146.2 155.916 147.576 155.916 149.24V159H152.844V149.592C152.844 147.949 152.438 146.712 151.628 145.88C150.838 145.048 149.718 144.632 148.268 144.632C147.18 144.632 146.23 144.845 145.42 145.272C144.609 145.699 143.98 146.328 143.532 147.16C143.105 147.992 142.892 149.027 142.892 150.264V159H139.82V142.04H142.764V146.616L142.284 145.4C142.838 144.291 143.692 143.427 144.844 142.808C145.996 142.189 147.34 141.88 148.876 141.88ZM164.545 159.192C163.137 159.192 161.793 159 160.513 158.616C159.254 158.232 158.262 157.763 157.537 157.208L158.817 154.776C159.542 155.267 160.438 155.683 161.505 156.024C162.571 156.365 163.659 156.536 164.769 156.536C166.198 156.536 167.222 156.333 167.841 155.928C168.481 155.523 168.801 154.957 168.801 154.232C168.801 153.699 168.609 153.283 168.225 152.984C167.841 152.685 167.329 152.461 166.689 152.312C166.07 152.163 165.377 152.035 164.609 151.928C163.841 151.8 163.073 151.651 162.305 151.48C161.537 151.288 160.833 151.032 160.193 150.712C159.553 150.371 159.041 149.912 158.657 149.336C158.273 148.739 158.081 147.949 158.081 146.968C158.081 145.944 158.369 145.048 158.945 144.28C159.521 143.512 160.331 142.925 161.377 142.52C162.443 142.093 163.702 141.88 165.153 141.88C166.262 141.88 167.382 142.019 168.513 142.296C169.665 142.552 170.603 142.925 171.329 143.416L170.017 145.848C169.249 145.336 168.449 144.984 167.617 144.792C166.785 144.6 165.953 144.504 165.121 144.504C163.777 144.504 162.774 144.728 162.113 145.176C161.451 145.603 161.121 146.157 161.121 146.84C161.121 147.416 161.313 147.864 161.697 148.184C162.102 148.483 162.614 148.717 163.233 148.888C163.873 149.059 164.577 149.208 165.345 149.336C166.113 149.443 166.881 149.592 167.649 149.784C168.417 149.955 169.11 150.2 169.729 150.52C170.369 150.84 170.881 151.288 171.265 151.864C171.67 152.44 171.873 153.208 171.873 154.168C171.873 155.192 171.574 156.077 170.977 156.824C170.379 157.571 169.537 158.157 168.449 158.584C167.361 158.989 166.059 159.192 164.545 159.192Z" fill="white"/>
<path d="M143 184.751L185 184.751L185 233.249L184.161 228.427C180.424 206.94 164.228 189.754 143 184.751V184.751Z" fill="#5119E9"/>
<path d="M143 48.4974L185 48.4974L185 1.83588e-06L184.161 4.82165C180.424 26.309 164.228 43.4944 143 48.4974V48.4974Z" fill="#5119E9"/>
</svg>
