<svg width="44" height="44" viewBox="0 0 44 44" fill="none" xmlns="http://www.w3.org/2000/svg">
<path d="M2.75 35.75C2.75 36.1147 2.89487 36.4644 3.15273 36.7223C3.41059 36.9801 3.76033 37.125 4.125 37.125H39.875C40.2397 37.125 40.5894 36.9801 40.8473 36.7223C41.1051 36.4644 41.25 36.1147 41.25 35.75V19.0781H2.75V35.75ZM8.42188 23.8906C8.42188 23.7083 8.49431 23.5334 8.62324 23.4045C8.75217 23.2756 8.92704 23.2031 9.10938 23.2031H17.0156C17.198 23.2031 17.3728 23.2756 17.5018 23.4045C17.6307 23.5334 17.7031 23.7083 17.7031 23.8906V29.3906C17.7031 29.573 17.6307 29.7478 17.5018 29.8768C17.3728 30.0057 17.198 30.0781 17.0156 30.0781H9.10938C8.92704 30.0781 8.75217 30.0057 8.62324 29.8768C8.49431 29.7478 8.42188 29.573 8.42188 29.3906V23.8906ZM39.875 6.875H4.125C3.76033 6.875 3.41059 7.01987 3.15273 7.27773C2.89487 7.53559 2.75 7.88533 2.75 8.25V13.9219H41.25V8.25C41.25 7.88533 41.1051 7.53559 40.8473 7.27773C40.5894 7.01987 40.2397 6.875 39.875 6.875Z" fill="#5119E9"/>
</svg>
