<svg width="185" height="177" viewBox="0 0 185 177" fill="none" xmlns="http://www.w3.org/2000/svg">
<path d="M0 16C0 7.16345 7.16344 0 16 0H185V137V177C176.043 146.281 165.827 137.959 139.5 137H16C7.16344 137 0 129.837 0 121V16Z" fill="#5119E9"/>
<rect x="62.8196" y="36.8077" width="9.69389" height="32.4615" fill="white" stroke="white"/>
<rect x="77.791" y="32.3462" width="9.69389" height="36.9231" fill="white" stroke="white"/>
<rect x="92.7625" y="36.8077" width="9.69389" height="32.4615" fill="white" stroke="white"/>
<rect x="107.734" y="27.8846" width="9.69389" height="41.3846" fill="white" stroke="white"/>
<path d="M63.389 27.3846L81.7965 14L97.5218 27.3846L113.65 14M113.65 14L112.037 20.6923M113.65 14H106.796" stroke="white" stroke-width="3"/>
<path d="M28 111H20.8182V87.7273H28.3182C30.5758 87.7273 32.5076 88.1932 34.1136 89.125C35.7197 90.0492 36.9508 91.3788 37.8068 93.1136C38.6629 94.8409 39.0909 96.9091 39.0909 99.3182C39.0909 101.742 38.6591 103.83 37.7955 105.58C36.9318 107.322 35.6742 108.663 34.0227 109.602C32.3712 110.534 30.3636 111 28 111ZM23.6364 108.5H27.8182C29.7424 108.5 31.3371 108.129 32.6023 107.386C33.8674 106.644 34.8106 105.587 35.4318 104.216C36.053 102.845 36.3636 101.212 36.3636 99.3182C36.3636 97.4394 36.0568 95.822 35.4432 94.4659C34.8295 93.1023 33.9129 92.0568 32.6932 91.3295C31.4735 90.5947 29.9545 90.2273 28.1364 90.2273H23.6364V108.5ZM47.5029 111.409C46.3968 111.409 45.3931 111.201 44.4915 110.784C43.59 110.36 42.8741 109.75 42.3438 108.955C41.8135 108.152 41.5484 107.182 41.5484 106.045C41.5484 105.045 41.7453 104.235 42.1393 103.614C42.5332 102.985 43.0597 102.492 43.7188 102.136C44.3779 101.78 45.1052 101.515 45.9006 101.341C46.7037 101.159 47.5105 101.015 48.3211 100.909C49.3817 100.773 50.2415 100.67 50.9006 100.602C51.5673 100.527 52.0522 100.402 52.3552 100.227C52.6658 100.053 52.8211 99.75 52.8211 99.3182V99.2273C52.8211 98.1061 52.5143 97.2348 51.9006 96.6136C51.2946 95.9924 50.3741 95.6818 49.1393 95.6818C47.859 95.6818 46.8552 95.9621 46.1279 96.5227C45.4006 97.0833 44.8893 97.6818 44.5938 98.3182L42.0484 97.4091C42.5029 96.3485 43.109 95.5227 43.8665 94.9318C44.6317 94.3333 45.465 93.9167 46.3665 93.6818C47.2756 93.4394 48.1696 93.3182 49.0484 93.3182C49.609 93.3182 50.2529 93.3864 50.9802 93.5227C51.715 93.6515 52.4234 93.9205 53.1052 94.3295C53.7946 94.7386 54.3665 95.3561 54.8211 96.1818C55.2756 97.0076 55.5029 98.1136 55.5029 99.5V111H52.8211V108.636H52.6847C52.5029 109.015 52.1999 109.42 51.7756 109.852C51.3514 110.284 50.787 110.652 50.0825 110.955C49.3779 111.258 48.5181 111.409 47.5029 111.409ZM47.912 109C48.9726 109 49.8665 108.792 50.5938 108.375C51.3287 107.958 51.8817 107.42 52.2529 106.761C52.6317 106.102 52.8211 105.409 52.8211 104.682V102.227C52.7075 102.364 52.4575 102.489 52.0711 102.602C51.6923 102.708 51.2529 102.803 50.7529 102.886C50.2605 102.962 49.7794 103.03 49.3097 103.091C48.8476 103.144 48.4726 103.189 48.1847 103.227C47.4878 103.318 46.8362 103.466 46.2302 103.67C45.6317 103.867 45.1468 104.167 44.7756 104.568C44.412 104.962 44.2302 105.5 44.2302 106.182C44.2302 107.114 44.5749 107.818 45.2643 108.295C45.9612 108.765 46.8438 109 47.912 109ZM71.6734 97.4545L69.2643 98.1364C69.1128 97.7348 68.8893 97.3447 68.5939 96.9659C68.306 96.5795 67.9121 96.2614 67.4121 96.0114C66.9121 95.7614 66.2719 95.6364 65.4916 95.6364C64.4234 95.6364 63.5333 95.8826 62.8212 96.375C62.1166 96.8598 61.7643 97.4773 61.7643 98.2273C61.7643 98.8939 62.0068 99.4205 62.4916 99.8068C62.9765 100.193 63.734 100.515 64.7643 100.773L67.3553 101.409C68.9159 101.788 70.0787 102.367 70.8439 103.148C71.609 103.92 71.9916 104.917 71.9916 106.136C71.9916 107.136 71.7037 108.03 71.128 108.818C70.5598 109.606 69.7643 110.227 68.7416 110.682C67.7189 111.136 66.5295 111.364 65.1734 111.364C63.3931 111.364 61.9196 110.977 60.753 110.205C59.5863 109.432 58.8477 108.303 58.5371 106.818L61.0825 106.182C61.3249 107.121 61.7833 107.826 62.4575 108.295C63.1393 108.765 64.0295 109 65.128 109C66.378 109 67.3704 108.735 68.1053 108.205C68.8477 107.667 69.2189 107.023 69.2189 106.273C69.2189 105.667 69.0068 105.159 68.5825 104.75C68.1583 104.333 67.5068 104.023 66.628 103.818L63.7189 103.136C62.1204 102.758 60.9462 102.17 60.1962 101.375C59.4537 100.572 59.0825 99.5682 59.0825 98.3636C59.0825 97.3788 59.359 96.5076 59.9121 95.75C60.4727 94.9924 61.234 94.3977 62.1962 93.9659C63.1659 93.5341 64.2643 93.3182 65.4916 93.3182C67.2189 93.3182 68.5749 93.697 69.5598 94.4545C70.5522 95.2121 71.2568 96.2121 71.6734 97.4545ZM77.6224 100.5V111H74.9405V87.7273H77.6224V96.2727H77.8496C78.2587 95.3712 78.8724 94.6553 79.6905 94.125C80.5163 93.5871 81.6148 93.3182 82.986 93.3182C84.1754 93.3182 85.2171 93.5568 86.111 94.0341C87.0049 94.5038 87.6981 95.2273 88.1905 96.2045C88.6905 97.1742 88.9405 98.4091 88.9405 99.9091V111H86.2587V100.091C86.2587 98.7045 85.8989 97.6326 85.1792 96.875C84.4671 96.1098 83.4784 95.7273 82.2133 95.7273C81.3345 95.7273 80.5466 95.9129 79.8496 96.2841C79.1602 96.6553 78.6148 97.197 78.2133 97.9091C77.8193 98.6212 77.6224 99.4848 77.6224 100.5ZM93.1224 111V87.7273H95.8043V96.3182H96.0315C96.2285 96.0152 96.5012 95.6288 96.8497 95.1591C97.2058 94.6818 97.7133 94.2576 98.3724 93.8864C99.0391 93.5076 99.9406 93.3182 101.077 93.3182C102.547 93.3182 103.842 93.6856 104.963 94.4205C106.085 95.1553 106.96 96.197 107.588 97.5455C108.217 98.8939 108.532 100.485 108.532 102.318C108.532 104.167 108.217 105.769 107.588 107.125C106.96 108.473 106.088 109.519 104.975 110.261C103.861 110.996 102.577 111.364 101.122 111.364C100.001 111.364 99.1035 111.178 98.4293 110.807C97.755 110.428 97.2361 110 96.8724 109.523C96.5088 109.038 96.2285 108.636 96.0315 108.318H95.7133V111H93.1224ZM95.7588 102.273C95.7588 103.591 95.952 104.754 96.3383 105.761C96.7247 106.761 97.2891 107.545 98.0315 108.114C98.7739 108.674 99.683 108.955 100.759 108.955C101.88 108.955 102.816 108.659 103.566 108.068C104.323 107.47 104.891 106.667 105.27 105.659C105.657 104.644 105.85 103.515 105.85 102.273C105.85 101.045 105.66 99.9394 105.282 98.9545C104.91 97.9621 104.346 97.178 103.588 96.6023C102.838 96.0189 101.895 95.7273 100.759 95.7273C99.6679 95.7273 98.7512 96.0038 98.0088 96.5568C97.2664 97.1023 96.7058 97.8674 96.327 98.8523C95.9482 99.8295 95.7588 100.97 95.7588 102.273ZM118.637 111.364C117.061 111.364 115.678 110.989 114.489 110.239C113.307 109.489 112.383 108.439 111.716 107.091C111.057 105.742 110.728 104.167 110.728 102.364C110.728 100.545 111.057 98.9583 111.716 97.6023C112.383 96.2462 113.307 95.1932 114.489 94.4432C115.678 93.6932 117.061 93.3182 118.637 93.3182C120.212 93.3182 121.591 93.6932 122.773 94.4432C123.962 95.1932 124.887 96.2462 125.546 97.6023C126.212 98.9583 126.546 100.545 126.546 102.364C126.546 104.167 126.212 105.742 125.546 107.091C124.887 108.439 123.962 109.489 122.773 110.239C121.591 110.989 120.212 111.364 118.637 111.364ZM118.637 108.955C119.834 108.955 120.819 108.648 121.591 108.034C122.364 107.42 122.936 106.614 123.307 105.614C123.678 104.614 123.864 103.53 123.864 102.364C123.864 101.197 123.678 100.11 123.307 99.1023C122.936 98.0947 122.364 97.2803 121.591 96.6591C120.819 96.0379 119.834 95.7273 118.637 95.7273C117.44 95.7273 116.455 96.0379 115.682 96.6591C114.909 97.2803 114.337 98.0947 113.966 99.1023C113.595 100.11 113.409 101.197 113.409 102.364C113.409 103.53 113.595 104.614 113.966 105.614C114.337 106.614 114.909 107.42 115.682 108.034C116.455 108.648 117.44 108.955 118.637 108.955ZM134.688 111.409C133.582 111.409 132.578 111.201 131.677 110.784C130.775 110.36 130.059 109.75 129.529 108.955C128.999 108.152 128.733 107.182 128.733 106.045C128.733 105.045 128.93 104.235 129.324 103.614C129.718 102.985 130.245 102.492 130.904 102.136C131.563 101.78 132.29 101.515 133.086 101.341C133.889 101.159 134.695 101.015 135.506 100.909C136.567 100.773 137.427 100.67 138.086 100.602C138.752 100.527 139.237 100.402 139.54 100.227C139.851 100.053 140.006 99.75 140.006 99.3182V99.2273C140.006 98.1061 139.699 97.2348 139.086 96.6136C138.48 95.9924 137.559 95.6818 136.324 95.6818C135.044 95.6818 134.04 95.9621 133.313 96.5227C132.586 97.0833 132.074 97.6818 131.779 98.3182L129.233 97.4091C129.688 96.3485 130.294 95.5227 131.052 94.9318C131.817 94.3333 132.65 93.9167 133.552 93.6818C134.461 93.4394 135.355 93.3182 136.233 93.3182C136.794 93.3182 137.438 93.3864 138.165 93.5227C138.9 93.6515 139.608 93.9205 140.29 94.3295C140.98 94.7386 141.552 95.3561 142.006 96.1818C142.461 97.0076 142.688 98.1136 142.688 99.5V111H140.006V108.636H139.87C139.688 109.015 139.385 109.42 138.961 109.852C138.536 110.284 137.972 110.652 137.267 110.955C136.563 111.258 135.703 111.409 134.688 111.409ZM135.097 109C136.158 109 137.052 108.792 137.779 108.375C138.514 107.958 139.067 107.42 139.438 106.761C139.817 106.102 140.006 105.409 140.006 104.682V102.227C139.892 102.364 139.642 102.489 139.256 102.602C138.877 102.708 138.438 102.803 137.938 102.886C137.445 102.962 136.964 103.03 136.495 103.091C136.033 103.144 135.658 103.189 135.37 103.227C134.673 103.318 134.021 103.466 133.415 103.67C132.817 103.867 132.332 104.167 131.961 104.568C131.597 104.962 131.415 105.5 131.415 106.182C131.415 107.114 131.76 107.818 132.449 108.295C133.146 108.765 134.029 109 135.097 109ZM146.495 111V93.5455H149.086V96.1818H149.268C149.586 95.3182 150.161 94.6174 150.995 94.0795C151.828 93.5417 152.768 93.2727 153.813 93.2727C154.01 93.2727 154.256 93.2765 154.552 93.2841C154.847 93.2917 155.071 93.303 155.222 93.3182V96.0455C155.131 96.0227 154.923 95.9886 154.597 95.9432C154.279 95.8902 153.942 95.8636 153.586 95.8636C152.737 95.8636 151.98 96.0417 151.313 96.3977C150.654 96.7462 150.131 97.2311 149.745 97.8523C149.366 98.4659 149.177 99.1667 149.177 99.9545V111H146.495ZM163.373 111.364C161.918 111.364 160.634 110.996 159.52 110.261C158.407 109.519 157.536 108.473 156.907 107.125C156.278 105.769 155.964 104.167 155.964 102.318C155.964 100.485 156.278 98.8939 156.907 97.5455C157.536 96.197 158.411 95.1553 159.532 94.4205C160.653 93.6856 161.948 93.3182 163.418 93.3182C164.555 93.3182 165.452 93.5076 166.111 93.8864C166.778 94.2576 167.286 94.6818 167.634 95.1591C167.99 95.6288 168.267 96.0152 168.464 96.3182H168.691V87.7273H171.373V111H168.782V108.318H168.464C168.267 108.636 167.986 109.038 167.623 109.523C167.259 110 166.74 110.428 166.066 110.807C165.392 111.178 164.494 111.364 163.373 111.364ZM163.736 108.955C164.812 108.955 165.721 108.674 166.464 108.114C167.206 107.545 167.77 106.761 168.157 105.761C168.543 104.754 168.736 103.591 168.736 102.273C168.736 100.97 168.547 99.8295 168.168 98.8523C167.789 97.8674 167.229 97.1023 166.486 96.5568C165.744 96.0038 164.827 95.7273 163.736 95.7273C162.6 95.7273 161.653 96.0189 160.895 96.6023C160.145 97.178 159.581 97.9621 159.202 98.9545C158.831 99.9394 158.645 101.045 158.645 102.273C158.645 103.515 158.835 104.644 159.214 105.659C159.6 106.667 160.168 107.47 160.918 108.068C161.676 108.659 162.615 108.955 163.736 108.955Z" fill="white"/>
</svg>
