<svg width="32" height="32" viewBox="0 0 32 32" fill="none" xmlns="http://www.w3.org/2000/svg">
<g clip-path="url(#clip0_745_385)">
<path d="M31.85 21.32V0.140015H5.17999C2.41999 0.140015 0.179993 2.38001 0.179993 5.14001V16.34C0.179993 19.1 2.41999 21.34 5.17999 21.34H22.33C23.54 21.34 24.74 21.63 25.78 22.24C31.15 25.38 31.86 31.82 31.86 31.82V21.32H31.85Z" fill="#5119E9"/>
<path d="M12.97 7.37H11.06V13.34H12.97V7.37Z" fill="white"/>
<path d="M13.03 13.41H11V7.31H13.03V13.41ZM11.12 13.28H12.9V7.44H11.12V13.28Z" fill="white"/>
<path d="M15.81 6.56H13.9V13.35H15.81V6.56Z" fill="white"/>
<path d="M15.87 13.41H13.84V6.48999H15.87V13.41ZM13.97 13.28H15.75V6.61999H13.97V13.28Z" fill="white"/>
<path d="M18.66 7.37H16.75V13.34H18.66V7.37Z" fill="white"/>
<path d="M18.72 13.41H16.69V7.31H18.72V13.41ZM16.82 13.28H18.6V7.44H16.82V13.28Z" fill="white"/>
<path d="M21.51 5.73999H19.6V13.34H21.51V5.73999Z" fill="white"/>
<path d="M21.57 13.41H19.54V5.67999H21.57V13.41ZM19.66 13.28H21.44V5.80999H19.66V13.28Z" fill="white"/>
<path d="M17.69 5.93L14.69 3.48L11.31 5.84L11.08 5.52L14.71 3L17.69 5.43L20.64 3.09L20.88 3.39L17.69 5.93Z" fill="white"/>
<path d="M20.64 4.49999L20.26 4.40999L20.58 3.09999L20.96 3.04999L20.64 4.49999Z" fill="white"/>
<path d="M20.77 3.43999H19.46V3.05999L20.96 3.04999L20.77 3.43999Z" fill="white"/>
<path d="M4.5625 18H3.44034V14.3636H4.61222C4.96496 14.3636 5.26681 14.4364 5.51776 14.582C5.7687 14.7264 5.96106 14.9342 6.09482 15.2053C6.22857 15.4751 6.29545 15.7983 6.29545 16.1747C6.29545 16.5535 6.22798 16.8796 6.09304 17.1531C5.9581 17.4253 5.7616 17.6348 5.50355 17.7816C5.2455 17.9272 4.93182 18 4.5625 18ZM3.88068 17.6094H4.53409C4.83475 17.6094 5.08393 17.5514 5.28161 17.4354C5.47929 17.3194 5.62666 17.1542 5.72372 16.94C5.82079 16.7257 5.86932 16.4706 5.86932 16.1747C5.86932 15.8812 5.82138 15.6284 5.7255 15.4165C5.62962 15.2035 5.48639 15.0401 5.29581 14.9265C5.10523 14.8117 4.8679 14.7543 4.58381 14.7543H3.88068V17.6094ZM7.77983 18.0639C7.60701 18.0639 7.45017 18.0314 7.3093 17.9663C7.16844 17.9 7.05658 17.8047 6.97372 17.6804C6.89086 17.5549 6.84943 17.4034 6.84943 17.2259C6.84943 17.0696 6.88021 16.9429 6.94176 16.8459C7.00331 16.7476 7.08558 16.6707 7.18857 16.6151C7.29155 16.5594 7.40518 16.518 7.52947 16.4908C7.65495 16.4624 7.78101 16.4399 7.90767 16.4233C8.07339 16.402 8.20774 16.386 8.31072 16.3754C8.41489 16.3635 8.49065 16.344 8.538 16.3168C8.58653 16.2895 8.6108 16.2422 8.6108 16.1747V16.1605C8.6108 15.9853 8.56286 15.8492 8.46697 15.7521C8.37228 15.6551 8.22846 15.6065 8.03551 15.6065C7.83546 15.6065 7.67862 15.6503 7.56499 15.7379C7.45135 15.8255 7.37145 15.919 7.32528 16.0185L6.92756 15.8764C6.99858 15.7107 7.09328 15.5817 7.21165 15.4893C7.3312 15.3958 7.46141 15.3307 7.60227 15.294C7.74432 15.2562 7.884 15.2372 8.02131 15.2372C8.1089 15.2372 8.20952 15.2479 8.32315 15.2692C8.43797 15.2893 8.54865 15.3313 8.65518 15.3952C8.7629 15.4592 8.85227 15.5556 8.9233 15.6847C8.99432 15.8137 9.02983 15.9865 9.02983 16.2031V18H8.6108V17.6307H8.58949C8.56108 17.6899 8.51373 17.7532 8.44744 17.8207C8.38116 17.8881 8.29297 17.9455 8.18288 17.9929C8.0728 18.0402 7.93845 18.0639 7.77983 18.0639ZM7.84375 17.6875C8.00947 17.6875 8.14915 17.6549 8.26278 17.5898C8.3776 17.5247 8.46402 17.4407 8.52202 17.3377C8.5812 17.2347 8.6108 17.1264 8.6108 17.0128V16.6293C8.59304 16.6506 8.55398 16.6701 8.49361 16.6879C8.43442 16.7044 8.36577 16.7192 8.28764 16.7322C8.2107 16.7441 8.13554 16.7547 8.06214 16.7642C7.98994 16.7725 7.93134 16.7796 7.88636 16.7855C7.77746 16.7997 7.67566 16.8228 7.58097 16.8548C7.48745 16.8855 7.4117 16.9323 7.35369 16.995C7.29688 17.0566 7.26847 17.1406 7.26847 17.2472C7.26847 17.3928 7.32232 17.5028 7.43004 17.5774C7.53894 17.6508 7.67685 17.6875 7.84375 17.6875ZM11.7265 15.8835L11.3501 15.9901C11.3264 15.9273 11.2915 15.8664 11.2453 15.8072C11.2003 15.7468 11.1388 15.6971 11.0606 15.658C10.9825 15.619 10.8825 15.5994 10.7606 15.5994C10.5937 15.5994 10.4546 15.6379 10.3433 15.7148C10.2332 15.7906 10.1782 15.8871 10.1782 16.0043C10.1782 16.1084 10.2161 16.1907 10.2918 16.2511C10.3676 16.3114 10.4859 16.3617 10.6469 16.402L11.0518 16.5014C11.2956 16.5606 11.4773 16.6512 11.5969 16.7731C11.7164 16.8938 11.7762 17.0495 11.7762 17.2401C11.7762 17.3963 11.7312 17.536 11.6412 17.6591C11.5525 17.7822 11.4282 17.8793 11.2684 17.9503C11.1086 18.0213 10.9227 18.0568 10.7108 18.0568C10.4327 18.0568 10.2024 17.9964 10.0202 17.8757C9.83786 17.755 9.72245 17.5786 9.67392 17.3466L10.0716 17.2472C10.1095 17.3939 10.1811 17.504 10.2865 17.5774C10.393 17.6508 10.5321 17.6875 10.7037 17.6875C10.8991 17.6875 11.0541 17.6461 11.1689 17.5632C11.2849 17.4792 11.343 17.3786 11.343 17.2614C11.343 17.1667 11.3098 17.0874 11.2435 17.0234C11.1772 16.9583 11.0754 16.9098 10.9381 16.8778L10.4836 16.7713C10.2338 16.7121 10.0503 16.6204 9.93315 16.4961C9.81715 16.3706 9.75914 16.2138 9.75914 16.0256C9.75914 15.8717 9.80235 15.7356 9.88876 15.6172C9.97636 15.4988 10.0953 15.4059 10.2456 15.3384C10.3972 15.271 10.5688 15.2372 10.7606 15.2372C11.0305 15.2372 11.2423 15.2964 11.3962 15.4148C11.5513 15.5331 11.6614 15.6894 11.7265 15.8835ZM12.826 16.3594V18H12.407V14.3636H12.826V15.6989H12.8615C12.9254 15.558 13.0213 15.4461 13.1491 15.3633C13.2782 15.2792 13.4498 15.2372 13.6641 15.2372C13.8499 15.2372 14.0127 15.2745 14.1523 15.3491C14.292 15.4225 14.4003 15.5355 14.4773 15.6882C14.5554 15.8397 14.5945 16.0327 14.5945 16.267V18H14.1754V16.2955C14.1754 16.0788 14.1192 15.9113 14.0067 15.793C13.8955 15.6734 13.741 15.6136 13.5433 15.6136C13.406 15.6136 13.2829 15.6426 13.174 15.7006C13.0663 15.7586 12.9811 15.8433 12.9183 15.9545C12.8568 16.0658 12.826 16.2008 12.826 16.3594ZM15.4179 18V14.3636H15.8369V15.706H15.8724C15.9032 15.6586 15.9458 15.5982 16.0003 15.5249C16.0559 15.4503 16.1352 15.384 16.2382 15.326C16.3424 15.2668 16.4832 15.2372 16.6608 15.2372C16.8904 15.2372 17.0928 15.2946 17.268 15.4094C17.4432 15.5243 17.5799 15.687 17.6782 15.8977C17.7764 16.1084 17.8256 16.357 17.8256 16.6435C17.8256 16.9323 17.7764 17.1826 17.6782 17.3945C17.5799 17.6052 17.4438 17.7686 17.2698 17.8846C17.0958 17.9994 16.8952 18.0568 16.6679 18.0568C16.4927 18.0568 16.3524 18.0278 16.2471 17.9698C16.1417 17.9106 16.0606 17.8437 16.0038 17.7692C15.947 17.6934 15.9032 17.6307 15.8724 17.581H15.8227V18H15.4179ZM15.8298 16.6364C15.8298 16.8423 15.86 17.024 15.9204 17.1815C15.9807 17.3377 16.0689 17.4602 16.1849 17.549C16.3009 17.6366 16.443 17.6804 16.6111 17.6804C16.7863 17.6804 16.9324 17.6342 17.0496 17.5419C17.168 17.4484 17.2568 17.3229 17.316 17.1655C17.3763 17.0069 17.4065 16.8305 17.4065 16.6364C17.4065 16.4446 17.3769 16.2718 17.3177 16.1179C17.2597 15.9628 17.1715 15.8403 17.0532 15.7504C16.936 15.6592 16.7886 15.6136 16.6111 15.6136C16.4406 15.6136 16.2974 15.6568 16.1814 15.7433C16.0654 15.8285 15.9778 15.948 15.9186 16.1019C15.8594 16.2546 15.8298 16.4328 15.8298 16.6364ZM19.5745 18.0568C19.3283 18.0568 19.1122 17.9982 18.9264 17.881C18.7417 17.7638 18.5973 17.5999 18.4932 17.3892C18.3902 17.1785 18.3387 16.9323 18.3387 16.6506C18.3387 16.3665 18.3902 16.1185 18.4932 15.9066C18.5973 15.6947 18.7417 15.5302 18.9264 15.413C19.1122 15.2958 19.3283 15.2372 19.5745 15.2372C19.8207 15.2372 20.0361 15.2958 20.2208 15.413C20.4066 15.5302 20.551 15.6947 20.654 15.9066C20.7582 16.1185 20.8103 16.3665 20.8103 16.6506C20.8103 16.9323 20.7582 17.1785 20.654 17.3892C20.551 17.5999 20.4066 17.7638 20.2208 17.881C20.0361 17.9982 19.8207 18.0568 19.5745 18.0568ZM19.5745 17.6804C19.7615 17.6804 19.9154 17.6325 20.0361 17.5366C20.1569 17.4407 20.2462 17.3146 20.3042 17.1584C20.3622 17.0021 20.3912 16.8329 20.3912 16.6506C20.3912 16.4683 20.3622 16.2984 20.3042 16.141C20.2462 15.9835 20.1569 15.8563 20.0361 15.7592C19.9154 15.6622 19.7615 15.6136 19.5745 15.6136C19.3875 15.6136 19.2336 15.6622 19.1128 15.7592C18.9921 15.8563 18.9027 15.9835 18.8447 16.141C18.7867 16.2984 18.7577 16.4683 18.7577 16.6506C18.7577 16.8329 18.7867 17.0021 18.8447 17.1584C18.9027 17.3146 18.9921 17.4407 19.1128 17.5366C19.2336 17.6325 19.3875 17.6804 19.5745 17.6804ZM22.2525 18.0639C22.0797 18.0639 21.9228 18.0314 21.782 17.9663C21.6411 17.9 21.5292 17.8047 21.4464 17.6804C21.3635 17.5549 21.3221 17.4034 21.3221 17.2259C21.3221 17.0696 21.3529 16.9429 21.4144 16.8459C21.476 16.7476 21.5582 16.6707 21.6612 16.6151C21.7642 16.5594 21.8778 16.518 22.0021 16.4908C22.1276 16.4624 22.2537 16.4399 22.3803 16.4233C22.546 16.402 22.6804 16.386 22.7834 16.3754C22.8875 16.3635 22.9633 16.344 23.0107 16.3168C23.0592 16.2895 23.0835 16.2422 23.0835 16.1747V16.1605C23.0835 15.9853 23.0355 15.8492 22.9396 15.7521C22.8449 15.6551 22.7011 15.6065 22.5082 15.6065C22.3081 15.6065 22.1513 15.6503 22.0376 15.7379C21.924 15.8255 21.8441 15.919 21.7979 16.0185L21.4002 15.8764C21.4712 15.7107 21.5659 15.5817 21.6843 15.4893C21.8039 15.3958 21.9341 15.3307 22.0749 15.294C22.217 15.2562 22.3567 15.2372 22.494 15.2372C22.5816 15.2372 22.6822 15.2479 22.7958 15.2692C22.9106 15.2893 23.0213 15.3313 23.1278 15.3952C23.2356 15.4592 23.3249 15.5556 23.396 15.6847C23.467 15.8137 23.5025 15.9865 23.5025 16.2031V18H23.0835V17.6307H23.0621C23.0337 17.6899 22.9864 17.7532 22.9201 17.8207C22.8538 17.8881 22.7656 17.9455 22.6555 17.9929C22.5455 18.0402 22.4111 18.0639 22.2525 18.0639ZM22.3164 17.6875C22.4821 17.6875 22.6218 17.6549 22.7354 17.5898C22.8503 17.5247 22.9367 17.4407 22.9947 17.3377C23.0539 17.2347 23.0835 17.1264 23.0835 17.0128V16.6293C23.0657 16.6506 23.0266 16.6701 22.9663 16.6879C22.9071 16.7044 22.8384 16.7192 22.7603 16.7322C22.6834 16.7441 22.6082 16.7547 22.5348 16.7642C22.4626 16.7725 22.404 16.7796 22.359 16.7855C22.2501 16.7997 22.1483 16.8228 22.0536 16.8548C21.9601 16.8855 21.8844 16.9323 21.8263 16.995C21.7695 17.0566 21.7411 17.1406 21.7411 17.2472C21.7411 17.3928 21.795 17.5028 21.9027 17.5774C22.0116 17.6508 22.1495 17.6875 22.3164 17.6875ZM24.2673 18V15.2727H24.6721V15.6847H24.7006C24.7503 15.5497 24.8402 15.4402 24.9704 15.3562C25.1006 15.2721 25.2474 15.2301 25.4108 15.2301C25.4416 15.2301 25.48 15.2307 25.5262 15.2319C25.5724 15.2331 25.6073 15.2348 25.6309 15.2372V15.6634C25.6167 15.6598 25.5842 15.6545 25.5333 15.6474C25.4836 15.6391 25.4309 15.6349 25.3753 15.6349C25.2427 15.6349 25.1243 15.6628 25.0202 15.7184C24.9172 15.7728 24.8355 15.8486 24.7751 15.9457C24.7159 16.0415 24.6863 16.151 24.6863 16.2741V18H24.2673ZM27.0745 18.0568C26.8472 18.0568 26.6466 17.9994 26.4726 17.8846C26.2986 17.7686 26.1624 17.6052 26.0642 17.3945C25.9659 17.1826 25.9168 16.9323 25.9168 16.6435C25.9168 16.357 25.9659 16.1084 26.0642 15.8977C26.1624 15.687 26.2992 15.5243 26.4743 15.4094C26.6495 15.2946 26.8519 15.2372 27.0816 15.2372C27.2591 15.2372 27.3994 15.2668 27.5024 15.326C27.6066 15.384 27.6859 15.4503 27.7403 15.5249C27.796 15.5982 27.8392 15.6586 27.8699 15.706H27.9055V14.3636H28.3245V18H27.9197V17.581H27.8699C27.8392 17.6307 27.7954 17.6934 27.7385 17.7692C27.6817 17.8437 27.6006 17.9106 27.4953 17.9698C27.3899 18.0278 27.2497 18.0568 27.0745 18.0568ZM27.1313 17.6804C27.2994 17.6804 27.4414 17.6366 27.5574 17.549C27.6734 17.4602 27.7616 17.3377 27.822 17.1815C27.8824 17.024 27.9126 16.8423 27.9126 16.6364C27.9126 16.4328 27.883 16.2546 27.8238 16.1019C27.7646 15.948 27.677 15.8285 27.561 15.7433C27.445 15.6568 27.3018 15.6136 27.1313 15.6136C26.9537 15.6136 26.8058 15.6592 26.6874 15.7504C26.5702 15.8403 26.482 15.9628 26.4229 16.1179C26.3648 16.2718 26.3358 16.4446 26.3358 16.6364C26.3358 16.8305 26.3654 17.0069 26.4246 17.1655C26.485 17.3229 26.5738 17.4484 26.691 17.5419C26.8093 17.6342 26.9561 17.6804 27.1313 17.6804Z" fill="white"/>
</g>
<defs>
<clipPath id="clip0_745_385">
<rect width="32" height="32" fill="white"/>
</clipPath>
</defs>
</svg>
