<svg width="159" height="107" viewBox="0 0 159 107" fill="none" xmlns="http://www.w3.org/2000/svg">
<rect x="44.8196" y="24.8077" width="9.69389" height="32.4615" fill="black" stroke="white"/>
<rect x="59.791" y="20.3462" width="9.69389" height="36.9231" fill="black" stroke="white"/>
<rect x="74.7625" y="24.8077" width="9.69389" height="32.4615" fill="black" stroke="white"/>
<rect x="89.7339" y="15.8846" width="9.69389" height="41.3846" fill="black" stroke="white"/>
<path d="M45.3889 15.3846L63.7964 2L79.5217 15.3846L95.6502 2M95.6502 2L94.0374 8.69231M95.6502 2H88.7956" stroke="black" stroke-width="3"/>
<path d="M10 99H2.81818V75.7273H10.3182C12.5758 75.7273 14.5076 76.1932 16.1136 77.125C17.7197 78.0492 18.9508 79.3788 19.8068 81.1136C20.6629 82.8409 21.0909 84.9091 21.0909 87.3182C21.0909 89.7424 20.6591 91.8295 19.7955 93.5795C18.9318 95.322 17.6742 96.6629 16.0227 97.6023C14.3712 98.5341 12.3636 99 10 99ZM5.63636 96.5H9.81818C11.7424 96.5 13.3371 96.1288 14.6023 95.3864C15.8674 94.6439 16.8106 93.5871 17.4318 92.2159C18.053 90.8447 18.3636 89.2121 18.3636 87.3182C18.3636 85.4394 18.0568 83.822 17.4432 82.4659C16.8295 81.1023 15.9129 80.0568 14.6932 79.3295C13.4735 78.5947 11.9545 78.2273 10.1364 78.2273H5.63636V96.5ZM29.5029 99.4091C28.3968 99.4091 27.3931 99.2008 26.4915 98.7841C25.59 98.3598 24.8741 97.75 24.3438 96.9545C23.8135 96.1515 23.5484 95.1818 23.5484 94.0455C23.5484 93.0455 23.7453 92.2348 24.1393 91.6136C24.5332 90.9848 25.0597 90.4924 25.7188 90.1364C26.3779 89.7803 27.1052 89.5152 27.9006 89.3409C28.7037 89.1591 29.5105 89.0152 30.3211 88.9091C31.3817 88.7727 32.2415 88.6705 32.9006 88.6023C33.5673 88.5265 34.0522 88.4015 34.3552 88.2273C34.6658 88.053 34.8211 87.75 34.8211 87.3182V87.2273C34.8211 86.1061 34.5143 85.2348 33.9006 84.6136C33.2946 83.9924 32.3741 83.6818 31.1393 83.6818C29.859 83.6818 28.8552 83.9621 28.1279 84.5227C27.4006 85.0833 26.8893 85.6818 26.5938 86.3182L24.0484 85.4091C24.5029 84.3485 25.109 83.5227 25.8665 82.9318C26.6317 82.3333 27.465 81.9167 28.3665 81.6818C29.2756 81.4394 30.1696 81.3182 31.0484 81.3182C31.609 81.3182 32.2529 81.3864 32.9802 81.5227C33.715 81.6515 34.4234 81.9205 35.1052 82.3295C35.7946 82.7386 36.3665 83.3561 36.8211 84.1818C37.2756 85.0076 37.5029 86.1136 37.5029 87.5V99H34.8211V96.6364H34.6847C34.5029 97.0152 34.1999 97.4205 33.7756 97.8523C33.3514 98.2841 32.787 98.6515 32.0825 98.9545C31.3779 99.2576 30.5181 99.4091 29.5029 99.4091ZM29.912 97C30.9726 97 31.8665 96.7917 32.5938 96.375C33.3287 95.9583 33.8817 95.4205 34.2529 94.7614C34.6317 94.1023 34.8211 93.4091 34.8211 92.6818V90.2273C34.7075 90.3636 34.4575 90.4886 34.0711 90.6023C33.6923 90.7083 33.2529 90.803 32.7529 90.8864C32.2605 90.9621 31.7794 91.0303 31.3097 91.0909C30.8476 91.1439 30.4726 91.1894 30.1847 91.2273C29.4878 91.3182 28.8362 91.4659 28.2302 91.6705C27.6317 91.8674 27.1468 92.1667 26.7756 92.5682C26.412 92.9621 26.2302 93.5 26.2302 94.1818C26.2302 95.1136 26.5749 95.8182 27.2643 96.2955C27.9612 96.7652 28.8438 97 29.912 97ZM53.6734 85.4545L51.2643 86.1364C51.1128 85.7348 50.8893 85.3447 50.5939 84.9659C50.306 84.5795 49.9121 84.2614 49.4121 84.0114C48.9121 83.7614 48.2719 83.6364 47.4916 83.6364C46.4234 83.6364 45.5333 83.8826 44.8212 84.375C44.1166 84.8598 43.7643 85.4773 43.7643 86.2273C43.7643 86.8939 44.0068 87.4205 44.4916 87.8068C44.9765 88.1932 45.734 88.5152 46.7643 88.7727L49.3553 89.4091C50.9159 89.7879 52.0787 90.3674 52.8439 91.1477C53.609 91.9205 53.9916 92.9167 53.9916 94.1364C53.9916 95.1364 53.7037 96.0303 53.128 96.8182C52.5598 97.6061 51.7643 98.2273 50.7416 98.6818C49.7189 99.1364 48.5295 99.3636 47.1734 99.3636C45.3931 99.3636 43.9196 98.9773 42.753 98.2045C41.5863 97.4318 40.8477 96.303 40.5371 94.8182L43.0825 94.1818C43.3249 95.1212 43.7833 95.8258 44.4575 96.2955C45.1393 96.7652 46.0295 97 47.128 97C48.378 97 49.3704 96.7348 50.1053 96.2045C50.8477 95.6667 51.2189 95.0227 51.2189 94.2727C51.2189 93.6667 51.0068 93.1591 50.5825 92.75C50.1583 92.3333 49.5068 92.0227 48.628 91.8182L45.7189 91.1364C44.1204 90.7576 42.9462 90.1705 42.1962 89.375C41.4537 88.572 41.0825 87.5682 41.0825 86.3636C41.0825 85.3788 41.359 84.5076 41.9121 83.75C42.4727 82.9924 43.234 82.3977 44.1962 81.9659C45.1659 81.5341 46.2643 81.3182 47.4916 81.3182C49.2189 81.3182 50.5749 81.697 51.5598 82.4545C52.5522 83.2121 53.2568 84.2121 53.6734 85.4545ZM59.6224 88.5V99H56.9405V75.7273H59.6224V84.2727H59.8496C60.2587 83.3712 60.8724 82.6553 61.6905 82.125C62.5163 81.5871 63.6148 81.3182 64.986 81.3182C66.1754 81.3182 67.2171 81.5568 68.111 82.0341C69.0049 82.5038 69.6981 83.2273 70.1905 84.2045C70.6905 85.1742 70.9405 86.4091 70.9405 87.9091V99H68.2587V88.0909C68.2587 86.7045 67.8989 85.6326 67.1792 84.875C66.4671 84.1098 65.4784 83.7273 64.2133 83.7273C63.3345 83.7273 62.5466 83.9129 61.8496 84.2841C61.1602 84.6553 60.6148 85.197 60.2133 85.9091C59.8193 86.6212 59.6224 87.4848 59.6224 88.5ZM75.1224 99V75.7273H77.8043V84.3182H78.0315C78.2285 84.0152 78.5012 83.6288 78.8497 83.1591C79.2058 82.6818 79.7133 82.2576 80.3724 81.8864C81.0391 81.5076 81.9406 81.3182 83.077 81.3182C84.5467 81.3182 85.8421 81.6856 86.9633 82.4205C88.0846 83.1553 88.9596 84.197 89.5883 85.5455C90.2171 86.8939 90.5315 88.4848 90.5315 90.3182C90.5315 92.1667 90.2171 93.7689 89.5883 95.125C88.9596 96.4735 88.0883 97.5189 86.9747 98.2614C85.8611 98.9962 84.577 99.3636 83.1224 99.3636C82.0012 99.3636 81.1035 99.178 80.4293 98.8068C79.755 98.428 79.2361 98 78.8724 97.5227C78.5088 97.0379 78.2285 96.6364 78.0315 96.3182H77.7133V99H75.1224ZM77.7588 90.2727C77.7588 91.5909 77.952 92.7538 78.3383 93.7614C78.7247 94.7614 79.2891 95.5455 80.0315 96.1136C80.7739 96.6742 81.683 96.9545 82.7588 96.9545C83.88 96.9545 84.8156 96.6591 85.5656 96.0682C86.3232 95.4697 86.8914 94.6667 87.2702 93.6591C87.6565 92.6439 87.8497 91.5152 87.8497 90.2727C87.8497 89.0455 87.6603 87.9394 87.2815 86.9545C86.9103 85.9621 86.3459 85.178 85.5883 84.6023C84.8383 84.0189 83.8952 83.7273 82.7588 83.7273C81.6679 83.7273 80.7512 84.0038 80.0088 84.5568C79.2664 85.1023 78.7058 85.8674 78.327 86.8523C77.9482 87.8295 77.7588 88.9697 77.7588 90.2727ZM100.637 99.3636C99.0609 99.3636 97.6784 98.9886 96.489 98.2386C95.3072 97.4886 94.3829 96.4394 93.7162 95.0909C93.0572 93.7424 92.7276 92.1667 92.7276 90.3636C92.7276 88.5455 93.0572 86.9583 93.7162 85.6023C94.3829 84.2462 95.3072 83.1932 96.489 82.4432C97.6784 81.6932 99.0609 81.3182 100.637 81.3182C102.212 81.3182 103.591 81.6932 104.773 82.4432C105.962 83.1932 106.887 84.2462 107.546 85.6023C108.212 86.9583 108.546 88.5455 108.546 90.3636C108.546 92.1667 108.212 93.7424 107.546 95.0909C106.887 96.4394 105.962 97.4886 104.773 98.2386C103.591 98.9886 102.212 99.3636 100.637 99.3636ZM100.637 96.9545C101.834 96.9545 102.819 96.6477 103.591 96.0341C104.364 95.4205 104.936 94.6136 105.307 93.6136C105.678 92.6136 105.864 91.5303 105.864 90.3636C105.864 89.197 105.678 88.1098 105.307 87.1023C104.936 86.0947 104.364 85.2803 103.591 84.6591C102.819 84.0379 101.834 83.7273 100.637 83.7273C99.4397 83.7273 98.4549 84.0379 97.6822 84.6591C96.9094 85.2803 96.3375 86.0947 95.9662 87.1023C95.595 88.1098 95.4094 89.197 95.4094 90.3636C95.4094 91.5303 95.595 92.6136 95.9662 93.6136C96.3375 94.6136 96.9094 95.4205 97.6822 96.0341C98.4549 96.6477 99.4397 96.9545 100.637 96.9545ZM116.688 99.4091C115.582 99.4091 114.578 99.2008 113.677 98.7841C112.775 98.3598 112.059 97.75 111.529 96.9545C110.999 96.1515 110.733 95.1818 110.733 94.0455C110.733 93.0455 110.93 92.2348 111.324 91.6136C111.718 90.9848 112.245 90.4924 112.904 90.1364C113.563 89.7803 114.29 89.5152 115.086 89.3409C115.889 89.1591 116.695 89.0152 117.506 88.9091C118.567 88.7727 119.427 88.6705 120.086 88.6023C120.752 88.5265 121.237 88.4015 121.54 88.2273C121.851 88.053 122.006 87.75 122.006 87.3182V87.2273C122.006 86.1061 121.699 85.2348 121.086 84.6136C120.48 83.9924 119.559 83.6818 118.324 83.6818C117.044 83.6818 116.04 83.9621 115.313 84.5227C114.586 85.0833 114.074 85.6818 113.779 86.3182L111.233 85.4091C111.688 84.3485 112.294 83.5227 113.052 82.9318C113.817 82.3333 114.65 81.9167 115.552 81.6818C116.461 81.4394 117.355 81.3182 118.233 81.3182C118.794 81.3182 119.438 81.3864 120.165 81.5227C120.9 81.6515 121.608 81.9205 122.29 82.3295C122.98 82.7386 123.552 83.3561 124.006 84.1818C124.461 85.0076 124.688 86.1136 124.688 87.5V99H122.006V96.6364H121.87C121.688 97.0152 121.385 97.4205 120.961 97.8523C120.536 98.2841 119.972 98.6515 119.267 98.9545C118.563 99.2576 117.703 99.4091 116.688 99.4091ZM117.097 97C118.158 97 119.052 96.7917 119.779 96.375C120.514 95.9583 121.067 95.4205 121.438 94.7614C121.817 94.1023 122.006 93.4091 122.006 92.6818V90.2273C121.892 90.3636 121.642 90.4886 121.256 90.6023C120.877 90.7083 120.438 90.803 119.938 90.8864C119.445 90.9621 118.964 91.0303 118.495 91.0909C118.033 91.1439 117.658 91.1894 117.37 91.2273C116.673 91.3182 116.021 91.4659 115.415 91.6705C114.817 91.8674 114.332 92.1667 113.961 92.5682C113.597 92.9621 113.415 93.5 113.415 94.1818C113.415 95.1136 113.76 95.8182 114.449 96.2955C115.146 96.7652 116.029 97 117.097 97ZM128.495 99V81.5455H131.086V84.1818H131.268C131.586 83.3182 132.161 82.6174 132.995 82.0795C133.828 81.5417 134.768 81.2727 135.813 81.2727C136.01 81.2727 136.256 81.2765 136.552 81.2841C136.847 81.2917 137.071 81.303 137.222 81.3182V84.0455C137.131 84.0227 136.923 83.9886 136.597 83.9432C136.279 83.8902 135.942 83.8636 135.586 83.8636C134.737 83.8636 133.98 84.0417 133.313 84.3977C132.654 84.7462 132.131 85.2311 131.745 85.8523C131.366 86.4659 131.177 87.1667 131.177 87.9545V99H128.495ZM145.373 99.3636C143.918 99.3636 142.634 98.9962 141.52 98.2614C140.407 97.5189 139.536 96.4735 138.907 95.125C138.278 93.7689 137.964 92.1667 137.964 90.3182C137.964 88.4848 138.278 86.8939 138.907 85.5455C139.536 84.197 140.411 83.1553 141.532 82.4205C142.653 81.6856 143.948 81.3182 145.418 81.3182C146.555 81.3182 147.452 81.5076 148.111 81.8864C148.778 82.2576 149.286 82.6818 149.634 83.1591C149.99 83.6288 150.267 84.0152 150.464 84.3182H150.691V75.7273H153.373V99H150.782V96.3182H150.464C150.267 96.6364 149.986 97.0379 149.623 97.5227C149.259 98 148.74 98.428 148.066 98.8068C147.392 99.178 146.494 99.3636 145.373 99.3636ZM145.736 96.9545C146.812 96.9545 147.721 96.6742 148.464 96.1136C149.206 95.5455 149.77 94.7614 150.157 93.7614C150.543 92.7538 150.736 91.5909 150.736 90.2727C150.736 88.9697 150.547 87.8295 150.168 86.8523C149.789 85.8674 149.229 85.1023 148.486 84.5568C147.744 84.0038 146.827 83.7273 145.736 83.7273C144.6 83.7273 143.653 84.0189 142.895 84.6023C142.145 85.178 141.581 85.9621 141.202 86.9545C140.831 87.9394 140.645 89.0455 140.645 90.2727C140.645 91.5152 140.835 92.6439 141.214 93.6591C141.6 94.6667 142.168 95.4697 142.918 96.0682C143.676 96.6591 144.615 96.9545 145.736 96.9545Z" fill="black"/>
</svg>
