<svg width="159" height="109" viewBox="0 0 159 109" fill="none" xmlns="http://www.w3.org/2000/svg">
<rect x="52" y="24.5415" width="10.6939" height="33.8123" stroke="black" stroke-width="2"/>
<rect x="66.9707" y="20.0332" width="10.6939" height="38.3207" stroke="black" stroke-width="2"/>
<rect x="81.9434" y="24.5415" width="10.6939" height="33.8123" stroke="black" stroke-width="2"/>
<rect x="96.9141" y="15.5249" width="10.6939" height="42.829" stroke="black" stroke-width="2"/>
<path d="M53.0703 15.5249L71.4778 2L87.2031 15.5249L103.332 2M103.332 2L101.719 8.76247M103.332 2H96.477" stroke="black" stroke-width="3"/>
<path d="M10 99.6919H2.81818V76.4192H10.3182C12.5758 76.4192 14.5076 76.8851 16.1136 77.8169C17.7197 78.7411 18.9508 80.0707 19.8068 81.8055C20.6629 83.5328 21.0909 85.601 21.0909 88.0101C21.0909 90.4343 20.6591 92.5214 19.7955 94.2714C18.9318 96.0139 17.6742 97.3548 16.0227 98.2942C14.3712 99.226 12.3636 99.6919 10 99.6919ZM5.63636 97.1919H9.81818C11.7424 97.1919 13.3371 96.8207 14.6023 96.0783C15.8674 95.3358 16.8106 94.279 17.4318 92.9078C18.053 91.5366 18.3636 89.904 18.3636 88.0101C18.3636 86.1313 18.0568 84.5139 17.4432 83.1578C16.8295 81.7942 15.9129 80.7487 14.6932 80.0214C13.4735 79.2866 11.9545 78.9192 10.1364 78.9192H5.63636V97.1919ZM29.5029 100.101C28.3968 100.101 27.3931 99.8927 26.4915 99.476C25.59 99.0517 24.8741 98.4419 24.3438 97.6464C23.8135 96.8434 23.5484 95.8737 23.5484 94.7373C23.5484 93.7373 23.7453 92.9267 24.1393 92.3055C24.5332 91.6767 25.0597 91.1843 25.7188 90.8283C26.3779 90.4722 27.1052 90.207 27.9006 90.0328C28.7037 89.851 29.5105 89.707 30.3211 89.601C31.3817 89.4646 32.2415 89.3623 32.9006 89.2942C33.5673 89.2184 34.0522 89.0934 34.3552 88.9192C34.6658 88.7449 34.8211 88.4419 34.8211 88.0101V87.9192C34.8211 86.798 34.5143 85.9267 33.9006 85.3055C33.2946 84.6843 32.3741 84.3737 31.1393 84.3737C29.859 84.3737 28.8552 84.654 28.1279 85.2146C27.4006 85.7752 26.8893 86.3737 26.5938 87.0101L24.0484 86.101C24.5029 85.0404 25.109 84.2146 25.8665 83.6237C26.6317 83.0252 27.465 82.6086 28.3665 82.3737C29.2756 82.1313 30.1696 82.0101 31.0484 82.0101C31.609 82.0101 32.2529 82.0783 32.9802 82.2146C33.715 82.3434 34.4234 82.6123 35.1052 83.0214C35.7946 83.4305 36.3665 84.048 36.8211 84.8737C37.2756 85.6995 37.5029 86.8055 37.5029 88.1919V99.6919H34.8211V97.3283H34.6847C34.5029 97.707 34.1999 98.1123 33.7756 98.5442C33.3514 98.976 32.787 99.3434 32.0825 99.6464C31.3779 99.9495 30.5181 100.101 29.5029 100.101ZM29.912 97.6919C30.9726 97.6919 31.8665 97.4836 32.5938 97.0669C33.3287 96.6502 33.8817 96.1123 34.2529 95.4533C34.6317 94.7942 34.8211 94.101 34.8211 93.3737V90.9192C34.7075 91.0555 34.4575 91.1805 34.0711 91.2942C33.6923 91.4002 33.2529 91.4949 32.7529 91.5783C32.2605 91.654 31.7794 91.7222 31.3097 91.7828C30.8476 91.8358 30.4726 91.8813 30.1847 91.9192C29.4878 92.0101 28.8362 92.1578 28.2302 92.3623C27.6317 92.5593 27.1468 92.8586 26.7756 93.2601C26.412 93.654 26.2302 94.1919 26.2302 94.8737C26.2302 95.8055 26.5749 96.5101 27.2643 96.9873C27.9612 97.457 28.8438 97.6919 29.912 97.6919ZM53.6734 86.1464L51.2643 86.8283C51.1128 86.4267 50.8893 86.0366 50.5939 85.6578C50.306 85.2714 49.9121 84.9533 49.4121 84.7033C48.9121 84.4533 48.2719 84.3283 47.4916 84.3283C46.4234 84.3283 45.5333 84.5745 44.8212 85.0669C44.1166 85.5517 43.7643 86.1692 43.7643 86.9192C43.7643 87.5858 44.0068 88.1123 44.4916 88.4987C44.9765 88.8851 45.734 89.207 46.7643 89.4646L49.3553 90.101C50.9159 90.4798 52.0787 91.0593 52.8439 91.8396C53.609 92.6123 53.9916 93.6086 53.9916 94.8283C53.9916 95.8283 53.7037 96.7222 53.128 97.5101C52.5598 98.298 51.7643 98.9192 50.7416 99.3737C49.7189 99.8283 48.5295 100.056 47.1734 100.056C45.3931 100.056 43.9196 99.6692 42.753 98.8964C41.5863 98.1237 40.8477 96.9949 40.5371 95.5101L43.0825 94.8737C43.3249 95.8131 43.7833 96.5177 44.4575 96.9873C45.1393 97.457 46.0295 97.6919 47.128 97.6919C48.378 97.6919 49.3704 97.4267 50.1053 96.8964C50.8477 96.3586 51.2189 95.7146 51.2189 94.9646C51.2189 94.3586 51.0068 93.851 50.5825 93.4419C50.1583 93.0252 49.5068 92.7146 48.628 92.5101L45.7189 91.8283C44.1204 91.4495 42.9462 90.8623 42.1962 90.0669C41.4537 89.2639 41.0825 88.2601 41.0825 87.0555C41.0825 86.0707 41.359 85.1995 41.9121 84.4419C42.4727 83.6843 43.234 83.0896 44.1962 82.6578C45.1659 82.226 46.2643 82.0101 47.4916 82.0101C49.2189 82.0101 50.5749 82.3889 51.5598 83.1464C52.5522 83.904 53.2568 84.904 53.6734 86.1464ZM59.6224 89.1919V99.6919H56.9405V76.4192H59.6224V84.9646H59.8496C60.2587 84.0631 60.8724 83.3472 61.6905 82.8169C62.5163 82.279 63.6148 82.0101 64.986 82.0101C66.1754 82.0101 67.2171 82.2487 68.111 82.726C69.0049 83.1957 69.6981 83.9192 70.1905 84.8964C70.6905 85.8661 70.9405 87.101 70.9405 88.601V99.6919H68.2587V88.7828C68.2587 87.3964 67.8989 86.3245 67.1792 85.5669C66.4671 84.8017 65.4784 84.4192 64.2133 84.4192C63.3345 84.4192 62.5466 84.6048 61.8496 84.976C61.1602 85.3472 60.6148 85.8889 60.2133 86.601C59.8193 87.3131 59.6224 88.1767 59.6224 89.1919ZM75.1224 99.6919V76.4192H77.8043V85.0101H78.0315C78.2285 84.707 78.5012 84.3207 78.8497 83.851C79.2058 83.3737 79.7133 82.9495 80.3724 82.5783C81.0391 82.1995 81.9406 82.0101 83.077 82.0101C84.5467 82.0101 85.8421 82.3775 86.9633 83.1123C88.0846 83.8472 88.9596 84.8889 89.5883 86.2373C90.2171 87.5858 90.5315 89.1767 90.5315 91.0101C90.5315 92.8586 90.2171 94.4608 89.5883 95.8169C88.9596 97.1654 88.0883 98.2108 86.9747 98.9533C85.8611 99.6881 84.577 100.056 83.1224 100.056C82.0012 100.056 81.1035 99.8699 80.4293 99.4987C79.755 99.1199 79.2361 98.6919 78.8724 98.2146C78.5088 97.7298 78.2285 97.3283 78.0315 97.0101H77.7133V99.6919H75.1224ZM77.7588 90.9646C77.7588 92.2828 77.952 93.4457 78.3383 94.4533C78.7247 95.4533 79.2891 96.2373 80.0315 96.8055C80.7739 97.3661 81.683 97.6464 82.7588 97.6464C83.88 97.6464 84.8156 97.351 85.5656 96.7601C86.3232 96.1616 86.8914 95.3586 87.2702 94.351C87.6565 93.3358 87.8497 92.207 87.8497 90.9646C87.8497 89.7373 87.6603 88.6313 87.2815 87.6464C86.9103 86.654 86.3459 85.8699 85.5883 85.2942C84.8383 84.7108 83.8952 84.4192 82.7588 84.4192C81.6679 84.4192 80.7512 84.6957 80.0088 85.2487C79.2664 85.7942 78.7058 86.5593 78.327 87.5442C77.9482 88.5214 77.7588 89.6616 77.7588 90.9646ZM100.637 100.056C99.0609 100.056 97.6784 99.6805 96.489 98.9305C95.3072 98.1805 94.3829 97.1313 93.7162 95.7828C93.0572 94.4343 92.7276 92.8586 92.7276 91.0555C92.7276 89.2373 93.0572 87.6502 93.7162 86.2942C94.3829 84.9381 95.3072 83.8851 96.489 83.1351C97.6784 82.3851 99.0609 82.0101 100.637 82.0101C102.212 82.0101 103.591 82.3851 104.773 83.1351C105.962 83.8851 106.887 84.9381 107.546 86.2942C108.212 87.6502 108.546 89.2373 108.546 91.0555C108.546 92.8586 108.212 94.4343 107.546 95.7828C106.887 97.1313 105.962 98.1805 104.773 98.9305C103.591 99.6805 102.212 100.056 100.637 100.056ZM100.637 97.6464C101.834 97.6464 102.819 97.3396 103.591 96.726C104.364 96.1123 104.936 95.3055 105.307 94.3055C105.678 93.3055 105.864 92.2222 105.864 91.0555C105.864 89.8889 105.678 88.8017 105.307 87.7942C104.936 86.7866 104.364 85.9722 103.591 85.351C102.819 84.7298 101.834 84.4192 100.637 84.4192C99.4397 84.4192 98.4549 84.7298 97.6822 85.351C96.9094 85.9722 96.3375 86.7866 95.9662 87.7942C95.595 88.8017 95.4094 89.8889 95.4094 91.0555C95.4094 92.2222 95.595 93.3055 95.9662 94.3055C96.3375 95.3055 96.9094 96.1123 97.6822 96.726C98.4549 97.3396 99.4397 97.6464 100.637 97.6464ZM116.688 100.101C115.582 100.101 114.578 99.8927 113.677 99.476C112.775 99.0517 112.059 98.4419 111.529 97.6464C110.999 96.8434 110.733 95.8737 110.733 94.7373C110.733 93.7373 110.93 92.9267 111.324 92.3055C111.718 91.6767 112.245 91.1843 112.904 90.8283C113.563 90.4722 114.29 90.207 115.086 90.0328C115.889 89.851 116.695 89.707 117.506 89.601C118.567 89.4646 119.427 89.3623 120.086 89.2942C120.752 89.2184 121.237 89.0934 121.54 88.9192C121.851 88.7449 122.006 88.4419 122.006 88.0101V87.9192C122.006 86.798 121.699 85.9267 121.086 85.3055C120.48 84.6843 119.559 84.3737 118.324 84.3737C117.044 84.3737 116.04 84.654 115.313 85.2146C114.586 85.7752 114.074 86.3737 113.779 87.0101L111.233 86.101C111.688 85.0404 112.294 84.2146 113.052 83.6237C113.817 83.0252 114.65 82.6086 115.552 82.3737C116.461 82.1313 117.355 82.0101 118.233 82.0101C118.794 82.0101 119.438 82.0783 120.165 82.2146C120.9 82.3434 121.608 82.6123 122.29 83.0214C122.98 83.4305 123.552 84.048 124.006 84.8737C124.461 85.6995 124.688 86.8055 124.688 88.1919V99.6919H122.006V97.3283H121.87C121.688 97.707 121.385 98.1123 120.961 98.5442C120.536 98.976 119.972 99.3434 119.267 99.6464C118.563 99.9495 117.703 100.101 116.688 100.101ZM117.097 97.6919C118.158 97.6919 119.052 97.4836 119.779 97.0669C120.514 96.6502 121.067 96.1123 121.438 95.4533C121.817 94.7942 122.006 94.101 122.006 93.3737V90.9192C121.892 91.0555 121.642 91.1805 121.256 91.2942C120.877 91.4002 120.438 91.4949 119.938 91.5783C119.445 91.654 118.964 91.7222 118.495 91.7828C118.033 91.8358 117.658 91.8813 117.37 91.9192C116.673 92.0101 116.021 92.1578 115.415 92.3623C114.817 92.5593 114.332 92.8586 113.961 93.2601C113.597 93.654 113.415 94.1919 113.415 94.8737C113.415 95.8055 113.76 96.5101 114.449 96.9873C115.146 97.457 116.029 97.6919 117.097 97.6919ZM128.495 99.6919V82.2373H131.086V84.8737H131.268C131.586 84.0101 132.161 83.3093 132.995 82.7714C133.828 82.2336 134.768 81.9646 135.813 81.9646C136.01 81.9646 136.256 81.9684 136.552 81.976C136.847 81.9836 137.071 81.9949 137.222 82.0101V84.7373C137.131 84.7146 136.923 84.6805 136.597 84.6351C136.279 84.582 135.942 84.5555 135.586 84.5555C134.737 84.5555 133.98 84.7336 133.313 85.0896C132.654 85.4381 132.131 85.923 131.745 86.5442C131.366 87.1578 131.177 87.8586 131.177 88.6464V99.6919H128.495ZM145.373 100.056C143.918 100.056 142.634 99.6881 141.52 98.9533C140.407 98.2108 139.536 97.1654 138.907 95.8169C138.278 94.4608 137.964 92.8586 137.964 91.0101C137.964 89.1767 138.278 87.5858 138.907 86.2373C139.536 84.8889 140.411 83.8472 141.532 83.1123C142.653 82.3775 143.948 82.0101 145.418 82.0101C146.555 82.0101 147.452 82.1995 148.111 82.5783C148.778 82.9495 149.286 83.3737 149.634 83.851C149.99 84.3207 150.267 84.707 150.464 85.0101H150.691V76.4192H153.373V99.6919H150.782V97.0101H150.464C150.267 97.3283 149.986 97.7298 149.623 98.2146C149.259 98.6919 148.74 99.1199 148.066 99.4987C147.392 99.8699 146.494 100.056 145.373 100.056ZM145.736 97.6464C146.812 97.6464 147.721 97.3661 148.464 96.8055C149.206 96.2373 149.77 95.4533 150.157 94.4533C150.543 93.4457 150.736 92.2828 150.736 90.9646C150.736 89.6616 150.547 88.5214 150.168 87.5442C149.789 86.5593 149.229 85.7942 148.486 85.2487C147.744 84.6957 146.827 84.4192 145.736 84.4192C144.6 84.4192 143.653 84.7108 142.895 85.2942C142.145 85.8699 141.581 86.654 141.202 87.6464C140.831 88.6313 140.645 89.7373 140.645 90.9646C140.645 92.207 140.835 93.3358 141.214 94.351C141.6 95.3586 142.168 96.1616 142.918 96.7601C143.676 97.351 144.615 97.6464 145.736 97.6464Z" fill="black"/>
</svg>
