<svg width="185" height="177" viewBox="0 0 185 177" fill="none" xmlns="http://www.w3.org/2000/svg">
<path d="M0 16C0 7.16345 7.16344 0 16 0H185V137V177C176.043 146.281 165.827 137.959 139.5 137H16C7.16344 137 0 129.837 0 121V16Z" fill="#5119E9"/>
<rect x="65" y="34.5416" width="10.6939" height="33.8123" stroke="white" stroke-width="2"/>
<rect x="79.9707" y="30.0333" width="10.6939" height="38.3207" stroke="white" stroke-width="2"/>
<rect x="94.9434" y="34.5416" width="10.6939" height="33.8123" stroke="white" stroke-width="2"/>
<rect x="109.914" y="25.525" width="10.6939" height="42.829" stroke="white" stroke-width="2"/>
<path d="M66.0703 25.5249L84.4778 12L100.203 25.5249L116.332 12M116.332 12L114.719 18.7625M116.332 12H109.477" stroke="white" stroke-width="3"/>
<path d="M23 109.692H15.8182V86.4192H23.3182C25.5758 86.4192 27.5076 86.8851 29.1136 87.8169C30.7197 88.7411 31.9508 90.0707 32.8068 91.8055C33.6629 93.5328 34.0909 95.601 34.0909 98.0101C34.0909 100.434 33.6591 102.521 32.7955 104.271C31.9318 106.014 30.6742 107.355 29.0227 108.294C27.3712 109.226 25.3636 109.692 23 109.692ZM18.6364 107.192H22.8182C24.7424 107.192 26.3371 106.821 27.6023 106.078C28.8674 105.336 29.8106 104.279 30.4318 102.908C31.053 101.537 31.3636 99.904 31.3636 98.0101C31.3636 96.1313 31.0568 94.5139 30.4432 93.1578C29.8295 91.7942 28.9129 90.7487 27.6932 90.0214C26.4735 89.2866 24.9545 88.9192 23.1364 88.9192H18.6364V107.192ZM42.5029 110.101C41.3968 110.101 40.3931 109.893 39.4915 109.476C38.59 109.052 37.8741 108.442 37.3438 107.646C36.8135 106.843 36.5484 105.874 36.5484 104.737C36.5484 103.737 36.7453 102.927 37.1393 102.306C37.5332 101.677 38.0597 101.184 38.7188 100.828C39.3779 100.472 40.1052 100.207 40.9006 100.033C41.7037 99.851 42.5105 99.707 43.3211 99.601C44.3817 99.4646 45.2415 99.3623 45.9006 99.2942C46.5673 99.2184 47.0522 99.0934 47.3552 98.9192C47.6658 98.7449 47.8211 98.4419 47.8211 98.0101V97.9192C47.8211 96.798 47.5143 95.9267 46.9006 95.3055C46.2946 94.6843 45.3741 94.3737 44.1393 94.3737C42.859 94.3737 41.8552 94.654 41.1279 95.2146C40.4006 95.7752 39.8893 96.3737 39.5938 97.0101L37.0484 96.101C37.5029 95.0404 38.109 94.2146 38.8665 93.6237C39.6317 93.0252 40.465 92.6086 41.3665 92.3737C42.2756 92.1313 43.1696 92.0101 44.0484 92.0101C44.609 92.0101 45.2529 92.0783 45.9802 92.2146C46.715 92.3434 47.4234 92.6123 48.1052 93.0214C48.7946 93.4305 49.3665 94.048 49.8211 94.8737C50.2756 95.6995 50.5029 96.8055 50.5029 98.1919V109.692H47.8211V107.328H47.6847C47.5029 107.707 47.1999 108.112 46.7756 108.544C46.3514 108.976 45.787 109.343 45.0825 109.646C44.3779 109.949 43.5181 110.101 42.5029 110.101ZM42.912 107.692C43.9726 107.692 44.8665 107.484 45.5938 107.067C46.3287 106.65 46.8817 106.112 47.2529 105.453C47.6317 104.794 47.8211 104.101 47.8211 103.374V100.919C47.7075 101.056 47.4575 101.181 47.0711 101.294C46.6923 101.4 46.2529 101.495 45.7529 101.578C45.2605 101.654 44.7794 101.722 44.3097 101.783C43.8476 101.836 43.4726 101.881 43.1847 101.919C42.4878 102.01 41.8362 102.158 41.2302 102.362C40.6317 102.559 40.1468 102.859 39.7756 103.26C39.412 103.654 39.2302 104.192 39.2302 104.874C39.2302 105.806 39.5749 106.51 40.2643 106.987C40.9612 107.457 41.8438 107.692 42.912 107.692ZM66.6734 96.1464L64.2643 96.8283C64.1128 96.4267 63.8893 96.0366 63.5939 95.6578C63.306 95.2714 62.9121 94.9533 62.4121 94.7033C61.9121 94.4533 61.2719 94.3283 60.4916 94.3283C59.4234 94.3283 58.5333 94.5745 57.8212 95.0669C57.1166 95.5517 56.7643 96.1692 56.7643 96.9192C56.7643 97.5858 57.0068 98.1123 57.4916 98.4987C57.9765 98.8851 58.734 99.207 59.7643 99.4646L62.3553 100.101C63.9159 100.48 65.0787 101.059 65.8439 101.84C66.609 102.612 66.9916 103.609 66.9916 104.828C66.9916 105.828 66.7037 106.722 66.128 107.51C65.5598 108.298 64.7643 108.919 63.7416 109.374C62.7189 109.828 61.5295 110.056 60.1734 110.056C58.3931 110.056 56.9196 109.669 55.753 108.896C54.5863 108.124 53.8477 106.995 53.5371 105.51L56.0825 104.874C56.3249 105.813 56.7833 106.518 57.4575 106.987C58.1393 107.457 59.0295 107.692 60.128 107.692C61.378 107.692 62.3704 107.427 63.1053 106.896C63.8477 106.359 64.2189 105.715 64.2189 104.965C64.2189 104.359 64.0068 103.851 63.5825 103.442C63.1583 103.025 62.5068 102.715 61.628 102.51L58.7189 101.828C57.1204 101.449 55.9462 100.862 55.1962 100.067C54.4537 99.2639 54.0825 98.2601 54.0825 97.0555C54.0825 96.0707 54.359 95.1995 54.9121 94.4419C55.4727 93.6843 56.234 93.0896 57.1962 92.6578C58.1659 92.226 59.2643 92.0101 60.4916 92.0101C62.2189 92.0101 63.5749 92.3889 64.5598 93.1464C65.5522 93.904 66.2568 94.904 66.6734 96.1464ZM72.6224 99.1919V109.692H69.9405V86.4192H72.6224V94.9646H72.8496C73.2587 94.0631 73.8724 93.3472 74.6905 92.8169C75.5163 92.279 76.6148 92.0101 77.986 92.0101C79.1754 92.0101 80.2171 92.2487 81.111 92.726C82.0049 93.1957 82.6981 93.9192 83.1905 94.8964C83.6905 95.8661 83.9405 97.101 83.9405 98.601V109.692H81.2587V98.7828C81.2587 97.3964 80.8989 96.3245 80.1792 95.5669C79.4671 94.8017 78.4784 94.4192 77.2133 94.4192C76.3345 94.4192 75.5466 94.6048 74.8496 94.976C74.1602 95.3472 73.6148 95.8889 73.2133 96.601C72.8193 97.3131 72.6224 98.1767 72.6224 99.1919ZM88.1224 109.692V86.4192H90.8043V95.0101H91.0315C91.2285 94.707 91.5012 94.3207 91.8497 93.851C92.2058 93.3737 92.7133 92.9495 93.3724 92.5783C94.0391 92.1995 94.9406 92.0101 96.077 92.0101C97.5467 92.0101 98.8421 92.3775 99.9633 93.1123C101.085 93.8472 101.96 94.8889 102.588 96.2373C103.217 97.5858 103.532 99.1767 103.532 101.01C103.532 102.859 103.217 104.461 102.588 105.817C101.96 107.165 101.088 108.211 99.9747 108.953C98.8611 109.688 97.577 110.056 96.1224 110.056C95.0012 110.056 94.1035 109.87 93.4293 109.499C92.755 109.12 92.2361 108.692 91.8724 108.215C91.5088 107.73 91.2285 107.328 91.0315 107.01H90.7133V109.692H88.1224ZM90.7588 100.965C90.7588 102.283 90.952 103.446 91.3383 104.453C91.7247 105.453 92.2891 106.237 93.0315 106.806C93.7739 107.366 94.683 107.646 95.7588 107.646C96.88 107.646 97.8156 107.351 98.5656 106.76C99.3232 106.162 99.8914 105.359 100.27 104.351C100.657 103.336 100.85 102.207 100.85 100.965C100.85 99.7373 100.66 98.6313 100.282 97.6464C99.9103 96.654 99.3459 95.8699 98.5883 95.2942C97.8383 94.7108 96.8952 94.4192 95.7588 94.4192C94.6679 94.4192 93.7512 94.6957 93.0088 95.2487C92.2664 95.7942 91.7058 96.5593 91.327 97.5442C90.9482 98.5214 90.7588 99.6616 90.7588 100.965ZM113.637 110.056C112.061 110.056 110.678 109.681 109.489 108.931C108.307 108.181 107.383 107.131 106.716 105.783C106.057 104.434 105.728 102.859 105.728 101.056C105.728 99.2373 106.057 97.6502 106.716 96.2942C107.383 94.9381 108.307 93.8851 109.489 93.1351C110.678 92.3851 112.061 92.0101 113.637 92.0101C115.212 92.0101 116.591 92.3851 117.773 93.1351C118.962 93.8851 119.887 94.9381 120.546 96.2942C121.212 97.6502 121.546 99.2373 121.546 101.056C121.546 102.859 121.212 104.434 120.546 105.783C119.887 107.131 118.962 108.181 117.773 108.931C116.591 109.681 115.212 110.056 113.637 110.056ZM113.637 107.646C114.834 107.646 115.819 107.34 116.591 106.726C117.364 106.112 117.936 105.306 118.307 104.306C118.678 103.306 118.864 102.222 118.864 101.056C118.864 99.8889 118.678 98.8017 118.307 97.7942C117.936 96.7866 117.364 95.9722 116.591 95.351C115.819 94.7298 114.834 94.4192 113.637 94.4192C112.44 94.4192 111.455 94.7298 110.682 95.351C109.909 95.9722 109.337 96.7866 108.966 97.7942C108.595 98.8017 108.409 99.8889 108.409 101.056C108.409 102.222 108.595 103.306 108.966 104.306C109.337 105.306 109.909 106.112 110.682 106.726C111.455 107.34 112.44 107.646 113.637 107.646ZM129.688 110.101C128.582 110.101 127.578 109.893 126.677 109.476C125.775 109.052 125.059 108.442 124.529 107.646C123.999 106.843 123.733 105.874 123.733 104.737C123.733 103.737 123.93 102.927 124.324 102.306C124.718 101.677 125.245 101.184 125.904 100.828C126.563 100.472 127.29 100.207 128.086 100.033C128.889 99.851 129.695 99.707 130.506 99.601C131.567 99.4646 132.427 99.3623 133.086 99.2942C133.752 99.2184 134.237 99.0934 134.54 98.9192C134.851 98.7449 135.006 98.4419 135.006 98.0101V97.9192C135.006 96.798 134.699 95.9267 134.086 95.3055C133.48 94.6843 132.559 94.3737 131.324 94.3737C130.044 94.3737 129.04 94.654 128.313 95.2146C127.586 95.7752 127.074 96.3737 126.779 97.0101L124.233 96.101C124.688 95.0404 125.294 94.2146 126.052 93.6237C126.817 93.0252 127.65 92.6086 128.552 92.3737C129.461 92.1313 130.355 92.0101 131.233 92.0101C131.794 92.0101 132.438 92.0783 133.165 92.2146C133.9 92.3434 134.608 92.6123 135.29 93.0214C135.98 93.4305 136.552 94.048 137.006 94.8737C137.461 95.6995 137.688 96.8055 137.688 98.1919V109.692H135.006V107.328H134.87C134.688 107.707 134.385 108.112 133.961 108.544C133.536 108.976 132.972 109.343 132.267 109.646C131.563 109.949 130.703 110.101 129.688 110.101ZM130.097 107.692C131.158 107.692 132.052 107.484 132.779 107.067C133.514 106.65 134.067 106.112 134.438 105.453C134.817 104.794 135.006 104.101 135.006 103.374V100.919C134.892 101.056 134.642 101.181 134.256 101.294C133.877 101.4 133.438 101.495 132.938 101.578C132.445 101.654 131.964 101.722 131.495 101.783C131.033 101.836 130.658 101.881 130.37 101.919C129.673 102.01 129.021 102.158 128.415 102.362C127.817 102.559 127.332 102.859 126.961 103.26C126.597 103.654 126.415 104.192 126.415 104.874C126.415 105.806 126.76 106.51 127.449 106.987C128.146 107.457 129.029 107.692 130.097 107.692ZM141.495 109.692V92.2373H144.086V94.8737H144.268C144.586 94.0101 145.161 93.3093 145.995 92.7714C146.828 92.2336 147.768 91.9646 148.813 91.9646C149.01 91.9646 149.256 91.9684 149.552 91.976C149.847 91.9836 150.071 91.9949 150.222 92.0101V94.7373C150.131 94.7146 149.923 94.6805 149.597 94.6351C149.279 94.582 148.942 94.5555 148.586 94.5555C147.737 94.5555 146.98 94.7336 146.313 95.0896C145.654 95.4381 145.131 95.923 144.745 96.5442C144.366 97.1578 144.177 97.8586 144.177 98.6464V109.692H141.495ZM158.373 110.056C156.918 110.056 155.634 109.688 154.52 108.953C153.407 108.211 152.536 107.165 151.907 105.817C151.278 104.461 150.964 102.859 150.964 101.01C150.964 99.1767 151.278 97.5858 151.907 96.2373C152.536 94.8889 153.411 93.8472 154.532 93.1123C155.653 92.3775 156.948 92.0101 158.418 92.0101C159.555 92.0101 160.452 92.1995 161.111 92.5783C161.778 92.9495 162.286 93.3737 162.634 93.851C162.99 94.3207 163.267 94.707 163.464 95.0101H163.691V86.4192H166.373V109.692H163.782V107.01H163.464C163.267 107.328 162.986 107.73 162.623 108.215C162.259 108.692 161.74 109.12 161.066 109.499C160.392 109.87 159.494 110.056 158.373 110.056ZM158.736 107.646C159.812 107.646 160.721 107.366 161.464 106.806C162.206 106.237 162.77 105.453 163.157 104.453C163.543 103.446 163.736 102.283 163.736 100.965C163.736 99.6616 163.547 98.5214 163.168 97.5442C162.789 96.5593 162.229 95.7942 161.486 95.2487C160.744 94.6957 159.827 94.4192 158.736 94.4192C157.6 94.4192 156.653 94.7108 155.895 95.2942C155.145 95.8699 154.581 96.654 154.202 97.6464C153.831 98.6313 153.645 99.7373 153.645 100.965C153.645 102.207 153.835 103.336 154.214 104.351C154.6 105.359 155.168 106.162 155.918 106.76C156.676 107.351 157.615 107.646 158.736 107.646Z" fill="white"/>
</svg>
