<svg width="17" height="17" viewBox="0 0 17 17" fill="none" xmlns="http://www.w3.org/2000/svg">
<circle cx="8.5" cy="8.5" r="8.5" fill="#D9D9D9"/>
<path fill-rule="evenodd" clip-rule="evenodd" d="M8.49983 3.91667C9.10172 3.91667 9.69772 4.03522 10.2538 4.26555C10.8099 4.49588 11.3151 4.83349 11.7407 5.25909C12.1663 5.68469 12.504 6.18996 12.7343 6.74603C12.9646 7.30211 13.0832 7.89811 13.0832 8.5C13.0832 11.0313 11.0311 13.0833 8.49983 13.0833C5.96854 13.0833 3.9165 11.0313 3.9165 8.5C3.9165 5.96871 5.96854 3.91667 8.49983 3.91667ZM8.95818 8.95835H8.0415C6.90681 8.95835 5.93264 9.64557 5.51247 10.6266C6.17728 11.5588 7.26757 12.1667 8.49983 12.1667C9.73209 12.1667 10.8224 11.5588 11.4872 10.6265C11.067 9.64557 10.0929 8.95835 8.95818 8.95835ZM8.49983 5.29167C7.74044 5.29167 7.12483 5.90729 7.12483 6.66667C7.12483 7.42606 7.74044 8.04167 8.49983 8.04167C9.25922 8.04167 9.87483 7.42606 9.87483 6.66667C9.87483 5.90729 9.25924 5.29167 8.49983 5.29167Z" fill="white"/>
</svg>
