<svg width="26" height="29" viewBox="0 0 26 29" fill="none" xmlns="http://www.w3.org/2000/svg">
<path d="M7.61143 11.8094H18.889M7.61143 22.2656H18.889M7.61143 17.0375H13.2502M1.97266 26.7095V2.13737C1.97266 1.92938 2.06177 1.72991 2.22039 1.58284C2.37901 1.43577 2.59415 1.35315 2.81847 1.35315H19.2442C19.4685 1.35333 19.6835 1.43608 19.8419 1.58319L24.2796 5.69771C24.3585 5.77078 24.4211 5.85758 24.4637 5.95314C24.5062 6.0487 24.528 6.15112 24.5277 6.25451V26.7095C24.5277 26.8125 24.5059 26.9145 24.4634 27.0096C24.4209 27.1048 24.3585 27.1912 24.28 27.264C24.2015 27.3369 24.1082 27.3946 24.0056 27.434C23.903 27.4734 23.793 27.4937 23.6819 27.4937H2.81847C2.7074 27.4937 2.59741 27.4734 2.49479 27.434C2.39217 27.3946 2.29893 27.3369 2.22039 27.264C2.14185 27.1912 2.07955 27.1048 2.03704 27.0096C1.99453 26.9145 1.97266 26.8125 1.97266 26.7095Z" stroke="#000000" stroke-width="2.5" stroke-linecap="round" stroke-linejoin="round"/>
<path d="M18.8887 1.35315V5.79705C18.8887 6.00504 18.9778 6.2045 19.1364 6.35157C19.295 6.49864 19.5102 6.58127 19.7345 6.58127H24.5274" stroke="#000000" stroke-width="2.5" stroke-linecap="round" stroke-linejoin="round"/>
</svg>
