<svg width="13" height="12" viewBox="0 0 13 12" fill="none" xmlns="http://www.w3.org/2000/svg">
<rect x="4.44016" y="11.019" width="2.2" height="2.93333" transform="rotate(-90.0699 4.44016 11.019)" fill="white"/>
<rect x="2.96991" y="8.08749" width="2.2" height="4.4" transform="rotate(-90.0699 2.96991 8.08749)" fill="white"/>
<rect x="1.49966" y="5.15594" width="2.2" height="5.86667" transform="rotate(-90.0699 1.49966 5.15594)" fill="white"/>
<rect x="0.0294342" y="2.22441" width="2.2" height="7.33333" transform="rotate(-90.0699 0.0294342 2.22441)" fill="white"/>
<path d="M10.8636 11.188C10.9613 11.2855 11.1196 11.2853 11.2171 11.1875L12.8062 9.59461C12.9037 9.49686 12.9035 9.33857 12.8058 9.24106C12.708 9.14354 12.5497 9.14374 12.4522 9.24149L11.0397 10.6574L9.62378 9.24494C9.52603 9.14743 9.36774 9.14762 9.27023 9.24537C9.17272 9.34312 9.17291 9.50141 9.27066 9.59892L10.8636 11.188ZM10.7767 0.0112913L10.7902 11.0113L11.2901 11.0107L11.2767 0.0106814L10.7767 0.0112913Z" fill="white"/>
</svg>
