<?xml version="1.0" encoding="UTF-8"?>
<svg version="1.1" xmlns="http://www.w3.org/2000/svg" width="512" height="512">
<path d="M0 0 C0.84024723 -0.00523668 1.68049446 -0.01047336 2.54620373 -0.01586872 C5.37208753 -0.03091458 8.197791 -0.03157488 11.02371216 -0.03224182 C13.04557604 -0.0398602 15.06743702 -0.04828714 17.08929443 -0.0574646 C22.58928265 -0.0794476 28.08921526 -0.08821355 33.58924246 -0.09329104 C37.02342104 -0.09692998 40.45758496 -0.1031676 43.89175797 -0.11029243 C55.86673882 -0.13479967 67.84167626 -0.14784168 79.81668091 -0.15138245 C90.98835173 -0.1550192 102.15974806 -0.18492149 113.33133495 -0.22678703 C122.91526799 -0.26144692 132.49910988 -0.27693014 142.08310521 -0.27762848 C147.81052177 -0.27842273 153.53765888 -0.28722946 159.26501083 -0.31562614 C164.65115664 -0.34173314 170.03678982 -0.34405313 175.42296982 -0.3279705 C177.40110386 -0.32615017 179.37926689 -0.33289918 181.35733795 -0.34878922 C184.05573173 -0.3691461 186.75231432 -0.35875986 189.45068359 -0.34057617 C190.23560838 -0.35377614 191.02053316 -0.36697611 191.82924354 -0.38057607 C195.8270906 -0.31893708 197.61994604 0.08491739 200.76028633 2.64224148 C202.89966195 5.33370689 204.73809469 8.01881819 206.49685669 10.97337341 C207.16547729 12.08688171 207.8340979 13.20039001 208.52297974 14.34764099 C209.23693635 15.55230744 209.95088471 16.7569788 210.66482544 17.96165466 C211.79938126 19.85687612 212.93658082 21.75049602 214.07377625 23.64413452 C214.85119953 24.93924076 215.6277533 26.23486933 216.40345764 27.53100586 C220.22700563 33.91721113 224.12756249 40.25439068 228.03982544 46.58665466 C233.90074306 56.08786221 239.72409052 65.61110561 245.51321411 75.15623474 C246.05566772 76.04979675 246.59812134 76.94335876 247.15701294 77.86399841 C247.63122681 78.64637878 248.10544067 79.42875916 248.59402466 80.23484802 C249.64440486 81.93718133 250.74275348 83.60979673 251.85232544 85.27415466 C252.94548931 92.66374914 250.99985505 99.19018773 248.57107544 106.09446716 C248.23813477 107.07913971 247.90519409 108.06381226 247.56216431 109.07832336 C246.50633599 112.19029539 245.4297584 115.29460509 244.35232544 118.39915466 C243.62828017 120.52107704 242.90561014 122.64346921 242.18435669 124.76634216 C240.42287368 129.94114995 238.64434701 135.10984814 236.85232544 140.27415466 C238.11567215 140.24417641 238.11567215 140.24417641 239.40454102 140.21359253 C247.37728114 140.03257551 255.3493225 139.89589557 263.32365227 139.80784512 C267.42264985 139.76105192 271.51993715 139.69768839 275.61795044 139.59519958 C279.57980016 139.4967466 283.54001516 139.44346291 287.50299454 139.42025948 C289.00776006 139.40374544 290.51244513 139.37149524 292.0165062 139.32258415 C299.51787643 139.08855021 305.46624226 139.11263358 311.34890747 144.32957458 C312.8792565 145.95068299 314.3819649 147.59844571 315.85232544 149.27415466 C317.22051546 150.61827764 318.59776057 151.95326355 319.98513794 153.27757263 C321.31850957 154.60451248 322.64919195 155.93415948 323.97732544 157.26634216 C324.6909021 157.9789621 325.40447876 158.69158203 326.13967896 159.42579651 C327.62633876 160.91178323 329.11176654 162.39900355 330.59597778 163.88743591 C332.87168736 166.16856267 335.15276765 168.44422265 337.43435669 170.71946716 C338.88650083 172.17227115 340.33833526 173.6253848 341.78982544 175.07884216 C342.46996704 175.75695953 343.15010864 176.4350769 343.8508606 177.13374329 C344.47911743 177.76515228 345.10737427 178.39656128 345.75466919 179.04710388 C346.30630737 179.59953766 346.85794556 180.15197144 347.42630005 180.72114563 C350.21193718 183.7548361 351.10362222 185.72246278 351.15339661 189.74365234 C351.16915237 190.65888168 351.18490814 191.57411102 351.20114136 192.51707458 C351.21156464 194.02020203 351.21156464 194.02020203 351.22219849 195.55369568 C351.23694717 196.61096359 351.25169586 197.66823151 351.26689148 198.75753784 C351.31149311 202.26436906 351.33966395 205.77103335 351.36404419 209.27806091 C351.378143 211.07558461 351.378143 211.07558461 351.39252663 212.90942192 C351.44013165 219.25567412 351.47379897 225.60184322 351.49758911 231.94822693 C351.52526343 238.49345583 351.60439746 245.03700634 351.69513226 251.58162022 C351.75504324 256.62183005 351.77486564 261.66164334 351.78409767 266.70217705 C351.79566223 269.1139073 351.82246211 271.52561602 351.86502647 273.93699837 C352.21772798 295.18289683 352.21772798 295.18289683 346.79251099 301.32469177 C345.18356741 302.68709959 343.53732757 304.00702314 341.85232544 305.27415466 C340.49695865 306.63120712 339.16158036 308.00857509 337.84890747 309.40696716 C336.52196762 310.74033879 335.19232062 312.07102117 333.86013794 313.39915466 C333.14751801 314.11273132 332.43489807 314.82630798 331.70068359 315.56150818 C330.21469687 317.04816799 328.72747656 318.53359576 327.23904419 320.01780701 C324.95791743 322.29351658 322.68225746 324.57459687 320.40701294 326.85618591 C318.95420895 328.30833006 317.5010953 329.76016448 316.04763794 331.21165466 C315.36952057 331.89179626 314.6914032 332.57193787 313.99273682 333.27268982 C313.36132782 333.90094666 312.72991882 334.52920349 312.07937622 335.17649841 C311.25072556 336.00395569 311.25072556 336.00395569 310.40533447 336.84812927 C306.57571992 340.36461081 304.13650507 340.52937977 299.0713501 340.54830933 C298.37811075 340.553546 297.6848714 340.55878268 296.9706248 340.56417805 C294.64223396 340.579208 292.31406229 340.57988385 289.98562622 340.58055115 C288.31843697 340.58817062 286.65125124 340.59659775 284.98406982 340.60577393 C280.45099172 340.62774647 275.91798109 340.63652149 271.38485575 340.64160037 C268.55371071 340.6452406 265.72258344 340.65147891 262.89144516 340.65860176 C253.01723197 340.68310556 243.14307139 340.69615022 233.26882935 340.69969177 C224.06026969 340.70332807 214.85204314 340.73322775 205.64358532 340.77509636 C197.74116499 340.80976895 189.8388552 340.82523968 181.93635929 340.82593781 C177.21496257 340.82673164 172.49390504 340.83551898 167.77258682 340.86393547 C163.33194091 340.89006442 158.89191663 340.89235054 154.4512291 340.87627983 C152.821405 340.87446121 151.19154559 340.88119333 149.5617981 340.89709854 C147.33621576 340.91749452 145.11282177 340.9070491 142.88726807 340.8888855 C141.01956851 340.89190249 141.01956851 340.89190249 139.11413765 340.89498043 C134.89486244 340.09191925 133.43755551 338.65251293 130.85232544 335.27415466 C130.52232544 333.62415466 130.19232544 331.97415466 129.85232544 330.27415466 C121.93232544 330.27415466 114.01232544 330.27415466 105.85232544 330.27415466 C105.52232544 332.25415466 105.19232544 334.23415466 104.85232544 336.27415466 C102.67561593 338.85899721 101.03615998 340.04467949 97.69607544 340.69212341 C93.38894848 340.95772958 91.41414787 340.68381685 87.85232544 338.08665466 C85.85232544 335.27415466 85.85232544 335.27415466 84.85232544 330.27415466 C76.93232544 330.27415466 69.01232544 330.27415466 60.85232544 330.27415466 C60.52232544 332.25415466 60.19232544 334.23415466 59.85232544 336.27415466 C57.17734354 339.22346922 55.53638444 340.16553022 51.59444904 340.79148579 C50.35103339 340.79948798 49.10761774 340.80749018 47.82652283 340.81573486 C47.13101891 340.82550265 46.43551499 340.83527045 45.71893519 340.84533423 C43.39441158 340.87293926 41.07079851 340.87206318 38.74612427 340.87107849 C37.07689064 340.88468833 35.40766958 340.89992194 33.73846436 340.91665649 C29.20719838 340.95625414 24.67621855 340.96975471 20.14479661 340.97611451 C17.31123256 340.98118256 14.47774207 340.99169506 11.64420128 341.00411034 C1.7512142 341.0471076 -8.14155985 341.06832645 -18.03463745 341.07029724 C-27.24347657 341.07272939 -36.45118715 341.12368388 -45.6597082 341.19718915 C-53.57502001 341.25813123 -61.48996107 341.28421232 -69.40550596 341.28363246 C-74.12900997 341.28391518 -78.85143316 341.2982321 -83.57469749 341.34798622 C-88.02157742 341.39368207 -92.46642829 341.39580494 -96.91341782 341.36529732 C-98.53955558 341.36140574 -100.16581655 341.37270524 -101.79171562 341.40083694 C-109.6907828 341.52888051 -115.70919428 341.49415788 -121.93644714 335.95654297 C-123.37072514 334.42375987 -124.77672955 332.86383614 -126.14767456 331.27415466 C-127.51457864 329.92872397 -128.8905384 328.59234679 -130.28048706 327.27073669 C-131.61385869 325.94379684 -132.94454107 324.61414984 -134.27267456 323.28196716 C-134.98625122 322.56934723 -135.69982788 321.85672729 -136.43502808 321.12251282 C-137.92168789 319.63652609 -139.40711566 318.14930578 -140.8913269 316.66087341 C-143.16703648 314.37974666 -145.44811677 312.10408668 -147.72970581 309.82884216 C-149.18184995 308.37603817 -150.63368438 306.92292453 -152.08517456 305.46946716 C-152.76531616 304.79134979 -153.44545776 304.11323242 -154.14620972 303.41456604 C-154.77446655 302.78315704 -155.40272339 302.15174805 -156.05001831 301.50120544 C-156.87747559 300.67255478 -156.87747559 300.67255478 -157.72164917 299.8271637 C-160.50728631 296.79347323 -161.39897134 294.82584655 -161.44874573 290.80465698 C-161.4645015 289.88942764 -161.48025726 288.9741983 -161.49649048 288.03123474 C-161.50343933 287.02914978 -161.51038818 286.02706482 -161.51754761 284.99461365 C-161.5322963 283.93734573 -161.54704498 282.88007782 -161.5622406 281.79077148 C-161.60684223 278.28394027 -161.63501308 274.77727597 -161.65939331 271.27024841 C-161.66879251 270.07189928 -161.67819172 268.87355015 -161.68787575 267.63888741 C-161.73548077 261.29263521 -161.76914809 254.9464661 -161.79293823 248.6000824 C-161.82061255 242.0548535 -161.89974658 235.51130299 -161.99048138 228.96668911 C-162.05039236 223.92647928 -162.07021476 218.88666598 -162.07944679 213.84613228 C-162.09101135 211.43440202 -162.11781123 209.02269331 -162.1603756 206.61131096 C-162.5130771 185.3654125 -162.5130771 185.3654125 -157.08786011 179.22361755 C-155.47891653 177.86120974 -153.83267669 176.54128619 -152.14767456 175.27415466 C-150.79230777 173.91710221 -149.45692948 172.53973423 -148.14425659 171.14134216 C-146.81731674 169.80797053 -145.48766974 168.47728816 -144.15548706 167.14915466 C-143.44286713 166.435578 -142.73024719 165.72200134 -141.99603271 164.98680115 C-140.51004599 163.50014134 -139.02282568 162.01471357 -137.53439331 160.53050232 C-135.25326655 158.25479275 -132.97760658 155.97371245 -130.70236206 153.69212341 C-129.24955807 152.23997927 -127.79644442 150.78814484 -126.34298706 149.33665466 C-125.325811 148.31644226 -125.325811 148.31644226 -124.28808594 147.27561951 C-123.65667694 146.64736267 -123.02526794 146.01910583 -122.37472534 145.37181091 C-121.82229156 144.82017273 -121.26985779 144.26853455 -120.70068359 143.70018005 C-116.89384749 140.20461446 -114.50561593 140.02877054 -109.47311401 140.04710388 C-108.79967957 140.04681183 -108.12624512 140.04651978 -107.43240356 140.04621887 C-105.20845617 140.04761122 -102.98484461 140.06316764 -100.76095581 140.07884216 C-99.21824832 140.08257264 -97.67553846 140.08541945 -96.13282776 140.0874176 C-92.07378592 140.09505137 -88.01488736 140.1146976 -83.9559021 140.13682556 C-79.81346576 140.15728954 -75.67100626 140.1664205 -71.52853394 140.17649841 C-63.40151508 140.19794378 -55.27461265 140.23207658 -47.14767456 140.27415466 C-47.3355957 139.73259735 -47.52351685 139.19104004 -47.71713257 138.6330719 C-49.68204331 132.96074738 -51.62523722 127.28130868 -53.55636597 121.59739685 C-54.27843545 119.4812648 -55.00589603 117.36696393 -55.73898315 115.25462341 C-56.79594267 112.20597827 -57.83289783 109.15112404 -58.86642456 106.09446716 C-59.19453125 105.16175995 -59.52263794 104.22905273 -59.86068726 103.26808167 C-62.23872033 96.13996341 -63.7405331 89.30808608 -60.90109253 82.11717224 C-60.31988647 81.22667175 -59.73868042 80.33617126 -59.13986206 79.41868591 C-58.49017456 78.39645935 -57.84048706 77.37423279 -57.17111206 76.32102966 C-56.46212769 75.25368591 -55.75314331 74.18634216 -55.02267456 73.08665466 C-54.28587763 71.94107333 -53.55154069 70.79390645 -52.81954956 69.64524841 C-51.32549704 67.30425595 -49.8218339 64.96991539 -48.3107605 62.63987732 C-45.15133288 57.74870957 -42.1530893 52.76087803 -39.14767456 47.77415466 C-33.98949653 39.27692749 -28.79544829 30.8019967 -23.58517456 22.33665466 C-22.91808472 21.2525531 -22.25099487 20.16845154 -21.56369019 19.05149841 C-20.31906454 17.03072269 -19.07228855 15.01126919 -17.82296753 12.99339294 C-16.76403036 11.27458761 -15.71484519 9.54970165 -14.67941284 7.81663513 C-14.24741577 7.10007751 -13.8154187 6.3835199 -13.37033081 5.64524841 C-13.00818481 5.03479675 -12.64603882 4.42434509 -12.2729187 3.7953949 C-9.03940233 -0.57606107 -4.8891791 -0.01495818 0 0 Z " fill="#FECC68" transform="translate(161.14767456054688,85.72584533691406)"/>
<path d="M0 0 C0.84024723 -0.00523668 1.68049446 -0.01047336 2.54620373 -0.01586872 C5.37208753 -0.03091458 8.197791 -0.03157488 11.02371216 -0.03224182 C13.04557604 -0.0398602 15.06743702 -0.04828714 17.08929443 -0.0574646 C22.58928265 -0.0794476 28.08921526 -0.08821355 33.58924246 -0.09329104 C37.02342104 -0.09692998 40.45758496 -0.1031676 43.89175797 -0.11029243 C55.86673882 -0.13479967 67.84167626 -0.14784168 79.81668091 -0.15138245 C90.98835173 -0.1550192 102.15974806 -0.18492149 113.33133495 -0.22678703 C122.91526799 -0.26144692 132.49910988 -0.27693014 142.08310521 -0.27762848 C147.81052177 -0.27842273 153.53765888 -0.28722946 159.26501083 -0.31562614 C164.65115664 -0.34173314 170.03678982 -0.34405313 175.42296982 -0.3279705 C177.40110386 -0.32615017 179.37926689 -0.33289918 181.35733795 -0.34878922 C184.05573173 -0.3691461 186.75231432 -0.35875986 189.45068359 -0.34057617 C190.23560838 -0.35377614 191.02053316 -0.36697611 191.82924354 -0.38057607 C195.8270906 -0.31893708 197.61994604 0.08491739 200.76028633 2.64224148 C202.89966195 5.33370689 204.73809469 8.01881819 206.49685669 10.97337341 C207.16547729 12.08688171 207.8340979 13.20039001 208.52297974 14.34764099 C209.23693635 15.55230744 209.95088471 16.7569788 210.66482544 17.96165466 C211.79938126 19.85687612 212.93658082 21.75049602 214.07377625 23.64413452 C214.85119953 24.93924076 215.6277533 26.23486933 216.40345764 27.53100586 C220.22700563 33.91721113 224.12756249 40.25439068 228.03982544 46.58665466 C233.90074306 56.08786221 239.72409052 65.61110561 245.51321411 75.15623474 C246.05566772 76.04979675 246.59812134 76.94335876 247.15701294 77.86399841 C247.63122681 78.64637878 248.10544067 79.42875916 248.59402466 80.23484802 C249.64440486 81.93718133 250.74275348 83.60979673 251.85232544 85.27415466 C252.94548931 92.66374914 250.99985505 99.19018773 248.57107544 106.09446716 C248.23813477 107.07913971 247.90519409 108.06381226 247.56216431 109.07832336 C246.50633599 112.19029539 245.4297584 115.29460509 244.35232544 118.39915466 C243.62828017 120.52107704 242.90561014 122.64346921 242.18435669 124.76634216 C240.42287368 129.94114995 238.64434701 135.10984814 236.85232544 140.27415466 C238.11567215 140.24417641 238.11567215 140.24417641 239.40454102 140.21359253 C247.37728114 140.03257551 255.3493225 139.89589557 263.32365227 139.80784512 C267.42264985 139.76105192 271.51993715 139.69768839 275.61795044 139.59519958 C279.57980016 139.4967466 283.54001516 139.44346291 287.50299454 139.42025948 C289.00776006 139.40374544 290.51244513 139.37149524 292.0165062 139.32258415 C299.51787643 139.08855021 305.46624226 139.11263358 311.34890747 144.32957458 C312.8792565 145.95068299 314.3819649 147.59844571 315.85232544 149.27415466 C317.22051546 150.61827764 318.59776057 151.95326355 319.98513794 153.27757263 C321.31850957 154.60451248 322.64919195 155.93415948 323.97732544 157.26634216 C324.6909021 157.9789621 325.40447876 158.69158203 326.13967896 159.42579651 C327.62633876 160.91178323 329.11176654 162.39900355 330.59597778 163.88743591 C332.87168736 166.16856267 335.15276765 168.44422265 337.43435669 170.71946716 C338.88650083 172.17227115 340.33833526 173.6253848 341.78982544 175.07884216 C342.46996704 175.75695953 343.15010864 176.4350769 343.8508606 177.13374329 C344.47911743 177.76515228 345.10737427 178.39656128 345.75466919 179.04710388 C346.30630737 179.59953766 346.85794556 180.15197144 347.42630005 180.72114563 C350.21193718 183.7548361 351.10362222 185.72246278 351.15339661 189.74365234 C351.16915237 190.65888168 351.18490814 191.57411102 351.20114136 192.51707458 C351.21156464 194.02020203 351.21156464 194.02020203 351.22219849 195.55369568 C351.23694717 196.61096359 351.25169586 197.66823151 351.26689148 198.75753784 C351.31149311 202.26436906 351.33966395 205.77103335 351.36404419 209.27806091 C351.378143 211.07558461 351.378143 211.07558461 351.39252663 212.90942192 C351.44013165 219.25567412 351.47379897 225.60184322 351.49758911 231.94822693 C351.52526343 238.49345583 351.60439746 245.03700634 351.69513226 251.58162022 C351.75504324 256.62183005 351.77486564 261.66164334 351.78409767 266.70217705 C351.79566223 269.1139073 351.82246211 271.52561602 351.86502647 273.93699837 C352.21772798 295.18289683 352.21772798 295.18289683 346.79251099 301.32469177 C345.18356741 302.68709959 343.53732757 304.00702314 341.85232544 305.27415466 C340.49695865 306.63120712 339.16158036 308.00857509 337.84890747 309.40696716 C336.52196762 310.74033879 335.19232062 312.07102117 333.86013794 313.39915466 C333.14751801 314.11273132 332.43489807 314.82630798 331.70068359 315.56150818 C330.21469687 317.04816799 328.72747656 318.53359576 327.23904419 320.01780701 C324.95791743 322.29351658 322.68225746 324.57459687 320.40701294 326.85618591 C318.95420895 328.30833006 317.5010953 329.76016448 316.04763794 331.21165466 C315.36952057 331.89179626 314.6914032 332.57193787 313.99273682 333.27268982 C313.36132782 333.90094666 312.72991882 334.52920349 312.07937622 335.17649841 C311.25072556 336.00395569 311.25072556 336.00395569 310.40533447 336.84812927 C306.57571992 340.36461081 304.13650507 340.52937977 299.0713501 340.54830933 C298.37811075 340.553546 297.6848714 340.55878268 296.9706248 340.56417805 C294.64223396 340.579208 292.31406229 340.57988385 289.98562622 340.58055115 C288.31843697 340.58817062 286.65125124 340.59659775 284.98406982 340.60577393 C280.45099172 340.62774647 275.91798109 340.63652149 271.38485575 340.64160037 C268.55371071 340.6452406 265.72258344 340.65147891 262.89144516 340.65860176 C253.01723197 340.68310556 243.14307139 340.69615022 233.26882935 340.69969177 C224.06026969 340.70332807 214.85204314 340.73322775 205.64358532 340.77509636 C197.74116499 340.80976895 189.8388552 340.82523968 181.93635929 340.82593781 C177.21496257 340.82673164 172.49390504 340.83551898 167.77258682 340.86393547 C163.33194091 340.89006442 158.89191663 340.89235054 154.4512291 340.87627983 C152.821405 340.87446121 151.19154559 340.88119333 149.5617981 340.89709854 C147.33621576 340.91749452 145.11282177 340.9070491 142.88726807 340.8888855 C141.01956851 340.89190249 141.01956851 340.89190249 139.11413765 340.89498043 C134.95376665 340.10313058 133.48744746 338.51405511 130.85232544 335.27415466 C129.36408332 331.73957964 129.82831245 330.34745747 131.03982544 326.64915466 C132.84395279 323.28974511 133.62751237 322.1109631 136.85232544 320.27415466 C139.75111675 319.9815731 139.75111675 319.9815731 143.1855011 320.0974884 C145.14161064 320.1502166 145.14161064 320.1502166 147.13723755 320.20401001 C148.58157377 320.25782008 150.0259097 320.3116381 151.47024536 320.36546326 C152.99357553 320.4104854 154.51696039 320.45368808 156.04039001 320.49520874 C158.47787141 320.56198572 160.9152531 320.63011346 163.35253751 320.70376563 C169.4313163 320.88683234 175.50939201 321.01298515 181.5901947 321.10536194 C182.47617771 321.11887864 183.36216071 321.13239535 184.27499169 321.14632165 C187.93375018 321.20105256 191.59253355 321.2539039 195.25133169 321.30591273 C205.57963298 321.45508669 215.90016482 321.65782901 226.22317505 322.02610779 C272.51256253 325.70236171 272.51256253 325.70236171 314.03553772 309.64027405 C327.87298907 296.63206309 333.54949591 279.85525744 334.36209297 261.16690445 C334.4500736 256.20002083 334.34097565 251.25418812 334.15457153 246.29075623 C334.00349177 242.26343406 334.00349177 238.28487527 334.15457153 234.2575531 C334.20467125 232.75151016 334.20467125 232.75151016 334.25578308 231.21504211 C334.32370479 229.36506359 334.40812223 227.5155387 334.51661682 225.66749573 C335.10638686 206.26358427 329.87437243 188.76542228 316.72550583 174.48329949 C295.85407511 153.51229111 262.89358002 156.80537641 235.49500428 156.69082849 C229.09373677 156.68692497 222.69309179 156.74477722 216.29219895 156.8092516 C208.56902643 156.8850147 200.84825455 156.89390521 193.12481689 156.85823441 C192.01756998 156.85317772 190.91032306 156.84812103 189.7695232 156.8429111 C187.51881427 156.83235811 185.26810603 156.82165902 183.01739848 156.81081559 C162.00630618 156.71714141 140.99999655 156.8242141 119.98968947 157.00222768 C102.03623774 157.14964287 84.08982992 157.12402132 66.13650513 156.97190857 C45.19130821 156.79452479 24.25028209 156.72620062 3.30443859 156.82711327 C1.06290436 156.83762325 -1.17863052 156.84799753 -3.42016602 156.85823441 C-4.52248847 156.8633255 -5.62481092 156.86841659 -6.76053709 156.87366196 C-14.45743113 156.90192763 -22.151605 156.8539336 -29.8480835 156.77640915 C-80.30394096 153.69338362 -80.30394096 153.69338362 -124.85040283 172.30249214 C-139.03610359 186.55587292 -144.39679878 203.00192153 -144.89303589 223.00022888 C-144.83965462 224.75651574 -144.7623714 226.51226445 -144.65939331 228.26634216 C-144.58607575 230.26328728 -144.51635863 232.26036727 -144.44992065 234.2575531 C-144.41269897 235.24976868 -144.37547729 236.24198425 -144.33712769 237.26426697 C-144.25108935 241.28215969 -144.41182112 245.27627848 -144.56259918 249.29105186 C-145.22484148 269.75417964 -142.51632094 289.65188175 -128.49923706 305.50071716 C-114.28254088 320.39643291 -96.43079749 321.90590328 -76.97316825 322.48992944 C-62.57123763 322.80508682 -48.18504326 322.44059707 -33.79236257 321.92683339 C-23.48072385 321.564322 -13.16738885 321.41313021 -2.85079956 321.26634216 C0.77318561 321.21411656 4.39714816 321.16067009 8.02108765 321.10536194 C8.89811002 321.092035 9.77513239 321.07870807 10.6787312 321.06497729 C16.70021613 320.96748138 22.71830719 320.81039376 28.73776245 320.62825012 C31.11389734 320.56198071 33.49006058 320.49684975 35.86623764 320.43211174 C37.35112319 320.3882177 38.83585608 320.33874988 40.32035446 320.28328514 C42.34606875 320.20762989 44.37250322 320.15205359 46.39889526 320.0974884 C47.5313203 320.05923635 48.66374535 320.02098431 49.8304863 319.9815731 C53.3102433 320.31849135 55.0909585 321.15872063 57.85232544 323.27415466 C59.8796814 326.85581686 60.85232544 329.33629457 60.85232544 333.46165466 C59.55159027 337.11997234 58.0998204 338.1765261 54.85232544 340.27415466 C51.59444904 340.79148579 51.59444904 340.79148579 47.82652283 340.81573486 C47.13101891 340.82550265 46.43551499 340.83527045 45.71893519 340.84533423 C43.39441158 340.87293926 41.07079851 340.87206318 38.74612427 340.87107849 C37.07689064 340.88468833 35.40766958 340.89992194 33.73846436 340.91665649 C29.20719838 340.95625414 24.67621855 340.96975471 20.14479661 340.97611451 C17.31123256 340.98118256 14.47774207 340.99169506 11.64420128 341.00411034 C1.7512142 341.0471076 -8.14155985 341.06832645 -18.03463745 341.07029724 C-27.24347657 341.07272939 -36.45118715 341.12368388 -45.6597082 341.19718915 C-53.57502001 341.25813123 -61.48996107 341.28421232 -69.40550596 341.28363246 C-74.12900997 341.28391518 -78.85143316 341.2982321 -83.57469749 341.34798622 C-88.02157742 341.39368207 -92.46642829 341.39580494 -96.91341782 341.36529732 C-98.53955558 341.36140574 -100.16581655 341.37270524 -101.79171562 341.40083694 C-109.6907828 341.52888051 -115.70919428 341.49415788 -121.93644714 335.95654297 C-123.37072514 334.42375987 -124.77672955 332.86383614 -126.14767456 331.27415466 C-127.51457864 329.92872397 -128.8905384 328.59234679 -130.28048706 327.27073669 C-131.61385869 325.94379684 -132.94454107 324.61414984 -134.27267456 323.28196716 C-134.98625122 322.56934723 -135.69982788 321.85672729 -136.43502808 321.12251282 C-137.92168789 319.63652609 -139.40711566 318.14930578 -140.8913269 316.66087341 C-143.16703648 314.37974666 -145.44811677 312.10408668 -147.72970581 309.82884216 C-149.18184995 308.37603817 -150.63368438 306.92292453 -152.08517456 305.46946716 C-152.76531616 304.79134979 -153.44545776 304.11323242 -154.14620972 303.41456604 C-154.77446655 302.78315704 -155.40272339 302.15174805 -156.05001831 301.50120544 C-156.87747559 300.67255478 -156.87747559 300.67255478 -157.72164917 299.8271637 C-160.50728631 296.79347323 -161.39897134 294.82584655 -161.44874573 290.80465698 C-161.4645015 289.88942764 -161.48025726 288.9741983 -161.49649048 288.03123474 C-161.50343933 287.02914978 -161.51038818 286.02706482 -161.51754761 284.99461365 C-161.5322963 283.93734573 -161.54704498 282.88007782 -161.5622406 281.79077148 C-161.60684223 278.28394027 -161.63501308 274.77727597 -161.65939331 271.27024841 C-161.66879251 270.07189928 -161.67819172 268.87355015 -161.68787575 267.63888741 C-161.73548077 261.29263521 -161.76914809 254.9464661 -161.79293823 248.6000824 C-161.82061255 242.0548535 -161.89974658 235.51130299 -161.99048138 228.96668911 C-162.05039236 223.92647928 -162.07021476 218.88666598 -162.07944679 213.84613228 C-162.09101135 211.43440202 -162.11781123 209.02269331 -162.1603756 206.61131096 C-162.5130771 185.3654125 -162.5130771 185.3654125 -157.08786011 179.22361755 C-155.47891653 177.86120974 -153.83267669 176.54128619 -152.14767456 175.27415466 C-150.79230777 173.91710221 -149.45692948 172.53973423 -148.14425659 171.14134216 C-146.81731674 169.80797053 -145.48766974 168.47728816 -144.15548706 167.14915466 C-143.44286713 166.435578 -142.73024719 165.72200134 -141.99603271 164.98680115 C-140.51004599 163.50014134 -139.02282568 162.01471357 -137.53439331 160.53050232 C-135.25326655 158.25479275 -132.97760658 155.97371245 -130.70236206 153.69212341 C-129.24955807 152.23997927 -127.79644442 150.78814484 -126.34298706 149.33665466 C-125.325811 148.31644226 -125.325811 148.31644226 -124.28808594 147.27561951 C-123.65667694 146.64736267 -123.02526794 146.01910583 -122.37472534 145.37181091 C-121.82229156 144.82017273 -121.26985779 144.26853455 -120.70068359 143.70018005 C-116.89384749 140.20461446 -114.50561593 140.02877054 -109.47311401 140.04710388 C-108.79967957 140.04681183 -108.12624512 140.04651978 -107.43240356 140.04621887 C-105.20845617 140.04761122 -102.98484461 140.06316764 -100.76095581 140.07884216 C-99.21824832 140.08257264 -97.67553846 140.08541945 -96.13282776 140.0874176 C-92.07378592 140.09505137 -88.01488736 140.1146976 -83.9559021 140.13682556 C-79.81346576 140.15728954 -75.67100626 140.1664205 -71.52853394 140.17649841 C-63.40151508 140.19794378 -55.27461265 140.23207658 -47.14767456 140.27415466 C-47.3355957 139.73259735 -47.52351685 139.19104004 -47.71713257 138.6330719 C-49.68204331 132.96074738 -51.62523722 127.28130868 -53.55636597 121.59739685 C-54.27843545 119.4812648 -55.00589603 117.36696393 -55.73898315 115.25462341 C-56.79594267 112.20597827 -57.83289783 109.15112404 -58.86642456 106.09446716 C-59.19453125 105.16175995 -59.52263794 104.22905273 -59.86068726 103.26808167 C-62.23872033 96.13996341 -63.7405331 89.30808608 -60.90109253 82.11717224 C-60.31988647 81.22667175 -59.73868042 80.33617126 -59.13986206 79.41868591 C-58.49017456 78.39645935 -57.84048706 77.37423279 -57.17111206 76.32102966 C-56.46212769 75.25368591 -55.75314331 74.18634216 -55.02267456 73.08665466 C-54.28587763 71.94107333 -53.55154069 70.79390645 -52.81954956 69.64524841 C-51.32549704 67.30425595 -49.8218339 64.96991539 -48.3107605 62.63987732 C-45.15133288 57.74870957 -42.1530893 52.76087803 -39.14767456 47.77415466 C-33.98949653 39.27692749 -28.79544829 30.8019967 -23.58517456 22.33665466 C-22.91808472 21.2525531 -22.25099487 20.16845154 -21.56369019 19.05149841 C-20.31906454 17.03072269 -19.07228855 15.01126919 -17.82296753 12.99339294 C-16.76403036 11.27458761 -15.71484519 9.54970165 -14.67941284 7.81663513 C-14.24741577 7.10007751 -13.8154187 6.3835199 -13.37033081 5.64524841 C-13.00818481 5.03479675 -12.64603882 4.42434509 -12.2729187 3.7953949 C-9.03940233 -0.57606107 -4.8891791 -0.01495818 0 0 Z " fill="#000000" transform="translate(161.14767456054688,85.72584533691406)"/>
<path d="M0 0 C7.55603731 5.76515834 13.55326268 13.40999987 15.625 22.8125 C17.02065429 34.85421746 15.64510377 45.49516702 8.5 55.5625 C0.67344111 64.83166615 -9.2910985 69.6201611 -21.26171875 71.19140625 C-31.82330964 71.65846662 -41.27651461 67.38954782 -49.375 60.8125 C-55.87653954 54.78487678 -61.00956314 45.90251336 -61.6484375 37.00390625 C-62.02789565 24.88100897 -60.61287597 15.63121544 -52.6875 5.9375 C-38.16454889 -9.13142671 -17.59302587 -11.47951612 0 0 Z " fill="#030301" transform="translate(411.375,294.1875)"/>
<path d="M0 0 C4.64730604 1.59096964 6.8253889 5.04323265 8.9140625 9.3046875 C9.49236902 10.77824387 10.05495918 12.25802241 10.60546875 13.7421875 C10.92257813 14.57016846 11.2396875 15.39814941 11.56640625 16.2512207 C12.3163329 18.21445588 13.06044277 20.179918 13.80029297 22.14697266 C15.12069038 25.61790665 16.47329977 29.07435217 17.83546448 32.52902222 C19.13312089 35.82729835 20.41645676 39.13104741 21.69754028 42.43579102 C22.34070754 44.0886615 22.98850496 45.73973829 23.64108276 47.38891602 C24.57102457 49.74474084 25.48084536 52.10748926 26.38671875 54.47265625 C26.66757828 55.1721489 26.94843781 55.87164154 27.23780823 56.59233093 C29.11707819 61.5805258 29.97662954 66.41499843 29.16796875 71.7421875 C26.64962402 75.40523438 24.96513064 76.49579201 20.73046875 77.8046875 C16.09745708 77.72340659 14.48935522 76.98808791 11.16796875 73.7421875 C10.17796875 70.4421875 9.18796875 67.1421875 8.16796875 63.7421875 C0.90796875 64.0721875 -6.35203125 64.4021875 -13.83203125 64.7421875 C-15.15203125 67.7121875 -16.47203125 70.6821875 -17.83203125 73.7421875 C-21.18443349 76.87109626 -22.81409794 77.70647054 -27.39453125 77.8671875 C-31.87284903 76.40155623 -33.38710185 74.74298106 -35.83203125 70.7421875 C-36.60775322 64.2382973 -34.41919971 59.12851876 -32.0703125 53.19921875 C-31.68264206 52.19436935 -31.29497162 51.18951996 -30.89555359 50.15422058 C-29.65613252 46.95001328 -28.40044624 43.75246068 -27.14453125 40.5546875 C-26.31862105 38.42423117 -25.49374092 36.2933752 -24.66992188 34.16210938 C-22.74213087 29.18474053 -20.78797677 24.21835087 -18.82086182 19.25640869 C-17.96636463 17.08374635 -17.1327303 14.90505807 -16.31005859 12.72021484 C-15.89836426 11.65883301 -15.48666992 10.59745117 -15.0625 9.50390625 C-14.74047607 8.65143311 -14.41845215 7.79895996 -14.08666992 6.9206543 C-10.70821587 1.05454308 -6.37263971 -0.41909043 0 0 Z " fill="#040301" transform="translate(115.83203125,287.2578125)"/>
<path d="M0 0 C2.9375 1.9375 2.9375 1.9375 5 5 C5.40271849 8.37663965 5.29553817 11.61772979 5 15 C5.46148437 14.5875 5.92296875 14.175 6.3984375 13.75 C7.78655801 12.52099212 9.18462939 11.30317612 10.58984375 10.09375 C12.23377642 8.66563345 13.85029207 7.20548709 15.44140625 5.71875 C21.58314856 0.2594235 21.58314856 0.2594235 25.49609375 -0.45703125 C29.41454182 -0.21896462 31.48880013 0.58854645 34.5625 3.0625 C36.42369313 6.8658077 37.09981348 9.91931276 36 14 C31.10705824 21.90999531 22.54984549 28.17048471 15.375 33.9375 C14.59125 34.618125 13.8075 35.29875 13 36 C13 36.66 13 37.32 13 38 C14.48164736 39.52317842 14.48164736 39.52317842 16.4375 41.1015625 C21.08835757 45.06545477 25.58439144 49.15070897 30 53.375 C31.16208984 54.43074219 31.16208984 54.43074219 32.34765625 55.5078125 C36.05273096 59.08873127 38.49600872 61.53350905 38.62890625 66.8515625 C38.40592095 70.19075811 37.93380442 71.09628448 35.9375 74 C32.38205409 76.42072913 30.30373949 77.0755042 26 77 C20.98635841 74.16103419 17.22654336 70.43987776 13.25 66.3125 C9.50551295 62.16251004 9.50551295 62.16251004 5 59 C5.02320313 59.74765625 5.04640625 60.4953125 5.0703125 61.265625 C5.09738281 62.74289062 5.09738281 62.74289062 5.125 64.25 C5.14820313 65.22453125 5.17140625 66.1990625 5.1953125 67.203125 C4.99542735 70.06548041 4.53938758 71.60835632 3 74 C-0.0116359 76.49535546 -1.5573648 77 -5.5 77 C-9.62653166 75.82099095 -11.28809794 74.27023484 -14 71 C-15.34642757 68.30714485 -15.14948999 66.19195645 -15.17700195 63.17675781 C-15.18983719 61.9549884 -15.20267242 60.73321899 -15.21589661 59.47442627 C-15.22406524 58.13399664 -15.23150874 56.79356241 -15.23828125 55.453125 C-15.24235678 54.77842918 -15.2464323 54.10373337 -15.25063133 53.40859222 C-15.2714944 49.83554897 -15.28579346 46.26254412 -15.29516602 42.68945312 C-15.30621432 39.00621261 -15.34059415 35.32357894 -15.38033772 31.64055252 C-15.40654157 28.80258089 -15.41486126 25.9647528 -15.41844749 23.12667084 C-15.42566184 21.11147956 -15.45208771 19.09638653 -15.47883606 17.08135986 C-15.45189679 5.71493738 -15.45189679 5.71493738 -11 1 C-7.44985064 -1.8156357 -4.22365209 -1.11148739 0 0 Z " fill="#040301" transform="translate(240,288)"/>
<path d="M0 0 C25.08 0 50.16 0 76 0 C72.31113943 13.52582209 67.57033306 26.74603413 63 40 C40.23 40 17.46 40 -6 40 C-4.88033941 26.56407287 -2.3700971 13.27254375 0 0 Z " fill="#65DEF5" transform="translate(313,186)"/>
<path d="M0 0 C25.08 0 50.16 0 76 0 C82 34 82 34 82 40 C59.23 40 36.46 40 13 40 C10.855 33.77125 8.71 27.5425 6.5 21.125 C5.82130859 19.15934082 5.14261719 17.19368164 4.44335938 15.16845703 C3.90991319 13.6149923 3.37669436 12.06144947 2.84375 10.5078125 C2.56305664 9.69755615 2.28236328 8.8872998 1.99316406 8.05249023 C0 2.2281436 0 2.2281436 0 0 Z " fill="#65DEF5" transform="translate(123,186)"/>
<path d="M0 0 C1.52947266 0.00193359 1.52947266 0.00193359 3.08984375 0.00390625 C4.65798828 0.05224609 4.65798828 0.05224609 6.2578125 0.1015625 C7.29550781 0.09511719 8.33320313 0.08867187 9.40234375 0.08203125 C19.22147915 0.21823615 26.51299376 3.06318644 33.65234375 9.83203125 C39.34852012 16.06825143 40.04832632 21.96447323 39.75390625 30.32421875 C38.8306912 38.78864309 35.26941318 43.71952091 28.734375 49.0625 C21.87674256 53.91524322 15.63592831 54.13618406 7.3828125 53.7265625 C7.42921875 54.88414062 7.475625 56.04171875 7.5234375 57.234375 C7.56097498 58.77341156 7.59737301 60.3124762 7.6328125 61.8515625 C7.68308594 62.99238281 7.68308594 62.99238281 7.734375 64.15625 C7.82684224 69.51935016 6.91784834 72.454238 3.3828125 76.7265625 C0.74266543 78.82047224 -0.62894214 78.7265625 -4.0546875 78.7265625 C-7.602858 77.73058482 -9.31904754 76.82626852 -11.58044434 73.92651367 C-14.00869686 68.77380356 -13.3734203 62.72204898 -13.3515625 57.1328125 C-13.36001991 55.69843829 -13.36966231 54.26407063 -13.38043213 52.82971191 C-13.39678669 49.83040137 -13.39414796 46.83182952 -13.37890625 43.83251953 C-13.36160752 39.9984089 -13.39879641 36.16703261 -13.45116806 32.33332062 C-13.48432585 29.37338626 -13.4848382 26.41410539 -13.47602081 23.45402527 C-13.47637952 22.04106658 -13.48759941 20.62806544 -13.51012421 19.21528625 C-13.66038229 8.35139701 -13.66038229 8.35139701 -11.19857788 4.51699829 C-7.80830663 1.36786609 -4.68433769 -0.03063823 0 0 Z " fill="#020201" transform="translate(300.6171875,286.2734375)"/>
<path d="M0 0 C3.2221507 2.47263363 4.45140473 4.08356144 5.06640625 8.125 C4.51487408 12.06451552 3.12347622 14.18524261 0.62890625 17.25 C-4.74762525 19.04217717 -8.82621836 18.68634767 -13.87109375 16.25 C-18.59742577 14.01079025 -22.28553494 13.19581676 -27.40625 14.9453125 C-32.37293198 17.15478972 -35.26004575 19.81911345 -38.37109375 24.25 C-40.0418454 29.26225494 -40.43640893 34.55456892 -38.46484375 39.54296875 C-35.29122492 44.96456759 -31.4003969 48.24023228 -25.37109375 50.25 C-20.08380381 50.64904075 -16.89963588 50.0065039 -12.37109375 47.25 C-11.58734375 46.528125 -10.80359375 45.80625 -9.99609375 45.0625 C-6.86905813 42.90335636 -5.02808978 42.66855974 -1.3046875 42.8515625 C1.75266387 43.48156218 3.49539161 45.0518334 5.62890625 47.25 C7.42140235 50.83499219 6.70999044 54.48782702 5.62890625 58.25 C1.40989491 64.76559855 -6.08149942 68.59238261 -13.328125 70.86328125 C-23.2208862 72.73590717 -32.91128184 70.93971895 -41.62109375 65.96484375 C-43.69193106 64.51283087 -45.52026836 62.9733155 -47.37109375 61.25 C-48.40556641 60.29480469 -48.40556641 60.29480469 -49.4609375 59.3203125 C-57.12534544 51.52745079 -60.57280462 42.57048638 -60.99609375 31.6875 C-60.54741492 20.50504295 -56.4990593 12.41297113 -48.7578125 4.44140625 C-34.73924427 -8.42997964 -16.09719075 -10.92657796 0 0 Z " fill="#030201" transform="translate(208.37109375,293.75)"/>
<path d="M0 0 C24.42 0 48.84 0 74 0 C72.32770182 13.37838543 70.21650917 26.70094496 68 40 C47.54 40 27.08 40 6 40 C5.01 34.1425 4.02 28.285 3 22.25 C2.68675781 20.40696289 2.37351563 18.56392578 2.05078125 16.66503906 C1.80442894 15.19861112 1.55831882 13.73214246 1.3125 12.265625 C1.18294922 11.50878418 1.05339844 10.75194336 0.91992188 9.97216797 C0.35389876 6.57827543 0 3.45280276 0 0 Z " fill="#65DFF6" transform="translate(219,186)"/>
<path d="M0 0 C0.8065654 -0.00570007 1.6131308 -0.01140015 2.44413757 -0.01727295 C4.15309333 -0.02672695 5.86206735 -0.03325852 7.57104492 -0.03710938 C10.17854916 -0.0467982 12.78525953 -0.07781 15.39257812 -0.109375 C17.05338074 -0.11590685 18.71418899 -0.12115661 20.375 -0.125 C21.1522493 -0.1373468 21.9294986 -0.1496936 22.7303009 -0.16241455 C28.42381165 -0.13913348 31.69730948 1.01371573 35.69921875 5.015625 C37.33234035 8.02400689 37.36092125 9.8159643 36.88671875 13.203125 C33.72882401 18.78207237 33.72882401 18.78207237 30.88671875 20.203125 C29.1796914 20.27308514 27.47003872 20.28752654 25.76171875 20.265625 C24.85164063 20.25660156 23.9415625 20.24757813 23.00390625 20.23828125 C21.95589844 20.22087891 21.95589844 20.22087891 20.88671875 20.203125 C20.90337334 21.14153732 20.90337334 21.14153732 20.92036438 22.09890747 C21.03112655 28.62015482 21.10645618 35.14113425 21.16137695 41.66308594 C21.18649504 44.09581357 21.22059579 46.52846592 21.26391602 48.9609375 C21.32468319 52.46112659 21.35295658 55.9603165 21.375 59.4609375 C21.40080643 60.54553253 21.42661285 61.63012756 21.45320129 62.74758911 C21.45632555 71.19082927 21.45632555 71.19082927 18.48120117 74.87451172 C15.71417149 77.35799051 14.7571664 78.08442759 11.13671875 78.578125 C6.58393169 78.05280342 5.10766393 76.42407018 1.88671875 73.203125 C0.90205622 70.24913742 0.76544039 68.35063478 0.77319336 65.27270508 C0.77326889 64.27189407 0.77334442 63.27108307 0.77342224 62.23994446 C0.77858353 61.16173935 0.78374481 60.08353424 0.7890625 58.97265625 C0.79047745 57.86709885 0.7918924 56.76154144 0.79335022 55.6224823 C0.79895361 52.08683583 0.81150671 48.55125238 0.82421875 45.015625 C0.82923331 42.62044362 0.83379629 40.22526125 0.83789062 37.83007812 C0.84892414 31.95440553 0.86566559 26.07876977 0.88671875 20.203125 C-0.14279907 20.24445557 -0.14279907 20.24445557 -1.19311523 20.28662109 C-2.09360596 20.30805176 -2.99409668 20.32948242 -3.921875 20.3515625 C-5.26076782 20.39289307 -5.26076782 20.39289307 -6.62670898 20.43505859 C-9.11328125 20.203125 -9.11328125 20.203125 -12.17578125 17.828125 C-14.99041327 14.01475258 -15.66372749 11.9736591 -15.11328125 7.203125 C-11.03561859 0.61496108 -7.29867683 0.03959864 0 0 Z " fill="#030201" transform="translate(443.11328125,286.796875)"/>
<path d="M0 0 C2.68115234 1.76635742 2.68115234 1.76635742 5 5 C5.75838472 9.22073731 5.70027496 13.39696424 5.6640625 17.67578125 C5.66884613 18.91490768 5.67362976 20.15403412 5.67855835 21.43070984 C5.68282853 24.72093682 5.66274921 28.00997916 5.63476562 31.30004883 C5.62502932 33.30645713 5.63470301 35.31176765 5.65185547 37.31811523 C5.68286103 41.18784806 5.67896729 45.05597944 5.6640625 48.92578125 C5.67418365 50.11561111 5.68430481 51.30544098 5.69473267 52.53132629 C5.59503429 59.64421644 4.72285471 64.53075334 0 70 C-5.5012881 75.22622369 -10.78203796 76.52298042 -18.2109375 76.3828125 C-23.95661832 75.59418964 -27.63607912 72.5038102 -31.4375 68.3125 C-34.13038317 64.32703291 -34.41144819 61.85508865 -34 57 C-32.20437595 54.24670979 -30.94745078 52.47372539 -28 51 C-22.48514597 50.64420297 -20.37074965 50.54310325 -16 54 C-15.99635437 53.42450409 -15.99270874 52.84900818 -15.98895264 52.256073 C-15.94706485 46.25331586 -15.87767547 40.25131885 -15.79248047 34.24902344 C-15.76429638 32.01049409 -15.74306914 29.7718657 -15.72900391 27.53320312 C-15.70753952 24.31068306 -15.6608694 21.08935062 -15.609375 17.8671875 C-15.60753204 16.37153763 -15.60753204 16.37153763 -15.60565186 14.84567261 C-15.48164114 8.9307161 -14.89932322 5.52963734 -11 1 C-7.44985064 -1.8156357 -4.22365209 -1.11148739 0 0 Z " fill="#040301" transform="translate(67,288)"/>
<path d="M0 0 C0.66 0 1.32 0 2 0 C3.3059082 1.77807617 3.3059082 1.77807617 4.80078125 4.29296875 C5.63935669 5.68914429 5.63935669 5.68914429 6.49487305 7.11352539 C7.09468994 8.12793701 7.69450684 9.14234863 8.3125 10.1875 C9.57463898 12.29479926 10.83768105 14.40155785 12.1015625 16.5078125 C12.74641602 17.58579102 13.39126953 18.66376953 14.05566406 19.77441406 C17.57652655 25.61540291 21.19954056 31.3932162 24.82348633 37.1706543 C25.32904053 37.98187744 25.83459473 38.79310059 26.35546875 39.62890625 C26.79528076 40.33088135 27.23509277 41.03285645 27.68823242 41.75610352 C29.25331967 44.43332608 30.61313167 47.22626335 32 50 C11.54 50 -8.92 50 -30 50 C-23.25078044 37.6264308 -23.25078044 37.6264308 -20.1953125 32.6953125 C-19.52886719 31.61636719 -18.86242187 30.53742188 -18.17578125 29.42578125 C-17.49902344 28.33652344 -16.82226562 27.24726563 -16.125 26.125 C-15.45597656 25.04347656 -14.78695313 23.96195313 -14.09765625 22.84765625 C-12.75323479 20.67430442 -11.40593268 18.50273174 -10.05566406 16.33300781 C-8.61208261 13.99241708 -7.18714402 11.64649797 -5.78027344 9.28417969 C-5.41795624 8.6808078 -5.05563904 8.07743591 -4.68234253 7.45578003 C-3.66988444 5.767557 -2.6645763 4.07505208 -1.65966797 2.38232422 C-1.11197754 1.59615723 -0.56428711 0.80999023 0 0 Z " fill="#65DDF4" transform="translate(353,116)"/>
<path d="M0 0 C0.66 0 1.32 0 2 0 C3.3059082 1.77807617 3.3059082 1.77807617 4.80078125 4.29296875 C5.63935669 5.68914429 5.63935669 5.68914429 6.49487305 7.11352539 C7.09468994 8.12793701 7.69450684 9.14234863 8.3125 10.1875 C9.57463898 12.29479926 10.83768105 14.40155785 12.1015625 16.5078125 C12.74641602 17.58579102 13.39126953 18.66376953 14.05566406 19.77441406 C17.57652655 25.61540291 21.19954056 31.3932162 24.82348633 37.1706543 C25.32904053 37.98187744 25.83459473 38.79310059 26.35546875 39.62890625 C26.79528076 40.33088135 27.23509277 41.03285645 27.68823242 41.75610352 C29.25331967 44.43332608 30.61313167 47.22626335 32 50 C11.54 50 -8.92 50 -30 50 C-23.25078044 37.6264308 -23.25078044 37.6264308 -20.1953125 32.6953125 C-19.52886719 31.61636719 -18.86242187 30.53742188 -18.17578125 29.42578125 C-17.49902344 28.33652344 -16.82226562 27.24726563 -16.125 26.125 C-15.45597656 25.04347656 -14.78695312 23.96195313 -14.09765625 22.84765625 C-12.75323479 20.67430442 -11.40593268 18.50273174 -10.05566406 16.33300781 C-8.61208261 13.99241708 -7.18714402 11.64649797 -5.78027344 9.28417969 C-5.41795624 8.6808078 -5.05563904 8.07743591 -4.68234253 7.45578003 C-3.66988444 5.767557 -2.6645763 4.07505208 -1.65966797 2.38232422 C-1.11197754 1.59615723 -0.56428711 0.80999023 0 0 Z " fill="#65DDF4" transform="translate(255,116)"/>
<path d="M0 0 C0.66 0 1.32 0 2 0 C3.3059082 1.77807617 3.3059082 1.77807617 4.80078125 4.29296875 C5.63935669 5.68914429 5.63935669 5.68914429 6.49487305 7.11352539 C7.09468994 8.12793701 7.69450684 9.14234863 8.3125 10.1875 C9.57463898 12.29479926 10.83768105 14.40155785 12.1015625 16.5078125 C12.74641602 17.58579102 13.39126953 18.66376953 14.05566406 19.77441406 C17.57652655 25.61540291 21.19954056 31.3932162 24.82348633 37.1706543 C25.32904053 37.98187744 25.83459473 38.79310059 26.35546875 39.62890625 C26.79528076 40.33088135 27.23509277 41.03285645 27.68823242 41.75610352 C29.25331967 44.43332608 30.61313167 47.22626335 32 50 C11.54 50 -8.92 50 -30 50 C-23.25078044 37.6264308 -23.25078044 37.6264308 -20.1953125 32.6953125 C-19.52886719 31.61636719 -18.86242187 30.53742188 -18.17578125 29.42578125 C-17.49902344 28.33652344 -16.82226562 27.24726563 -16.125 26.125 C-15.45597656 25.04347656 -14.78695312 23.96195313 -14.09765625 22.84765625 C-12.75323479 20.67430442 -11.40593268 18.50273174 -10.05566406 16.33300781 C-8.61208261 13.99241708 -7.18714402 11.64649797 -5.78027344 9.28417969 C-5.41795624 8.6808078 -5.05563904 8.07743591 -4.68234253 7.45578003 C-3.66988444 5.767557 -2.6645763 4.07505208 -1.65966797 2.38232422 C-1.11197754 1.59615723 -0.56428711 0.80999023 0 0 Z " fill="#65DDF4" transform="translate(157,116)"/>
<path d="M0 0 C20.46 0 40.92 0 62 0 C55.25078044 12.3735692 55.25078044 12.3735692 52.1953125 17.3046875 C51.52886719 18.38363281 50.86242187 19.46257812 50.17578125 20.57421875 C49.49902344 21.66347656 48.82226562 22.75273437 48.125 23.875 C47.12146484 25.49728516 47.12146484 25.49728516 46.09765625 27.15234375 C44.75323479 29.32569558 43.40593268 31.49726826 42.05566406 33.66699219 C40.61208261 36.00758292 39.18714402 38.35350203 37.78027344 40.71582031 C37.41795624 41.3191922 37.05563904 41.92256409 36.68234253 42.54421997 C35.66988444 44.232443 34.6645763 45.92494792 33.65966797 47.61767578 C33.11197754 48.40384277 32.56428711 49.19000977 32 50 C31.34 50 30.68 50 30 50 C28.6940918 48.22192383 28.6940918 48.22192383 27.19921875 45.70703125 C26.64016846 44.77624756 26.08111816 43.84546387 25.50512695 42.88647461 C24.90531006 41.87206299 24.30549316 40.85765137 23.6875 39.8125 C22.42536102 37.70520074 21.16231895 35.59844215 19.8984375 33.4921875 C19.25358398 32.41420898 18.60873047 31.33623047 17.94433594 30.22558594 C14.42347345 24.38459709 10.80045944 18.6067838 7.17651367 12.8293457 C6.67095947 12.01812256 6.16540527 11.20689941 5.64453125 10.37109375 C5.20471924 9.66911865 4.76490723 8.96714355 4.31176758 8.24389648 C2.74668033 5.56667392 1.38686833 2.77373665 0 0 Z " fill="#65DDF4" transform="translate(274,106)"/>
<path d="M0 0 C20.46 0 40.92 0 62 0 C55.25078044 12.3735692 55.25078044 12.3735692 52.1953125 17.3046875 C51.52886719 18.38363281 50.86242187 19.46257812 50.17578125 20.57421875 C49.49902344 21.66347656 48.82226562 22.75273437 48.125 23.875 C47.12146484 25.49728516 47.12146484 25.49728516 46.09765625 27.15234375 C44.75323479 29.32569558 43.40593268 31.49726826 42.05566406 33.66699219 C40.61208261 36.00758292 39.18714402 38.35350203 37.78027344 40.71582031 C37.41795624 41.3191922 37.05563904 41.92256409 36.68234253 42.54421997 C35.66988444 44.232443 34.6645763 45.92494792 33.65966797 47.61767578 C33.11197754 48.40384277 32.56428711 49.19000977 32 50 C31.34 50 30.68 50 30 50 C28.6940918 48.22192383 28.6940918 48.22192383 27.19921875 45.70703125 C26.64016846 44.77624756 26.08111816 43.84546387 25.50512695 42.88647461 C24.90531006 41.87206299 24.30549316 40.85765137 23.6875 39.8125 C22.42536102 37.70520074 21.16231895 35.59844215 19.8984375 33.4921875 C19.25358398 32.41420898 18.60873047 31.33623047 17.94433594 30.22558594 C14.42347345 24.38459709 10.80045944 18.6067838 7.17651367 12.8293457 C6.67095947 12.01812256 6.16540527 11.20689941 5.64453125 10.37109375 C5.20471924 9.66911865 4.76490723 8.96714355 4.31176758 8.24389648 C2.74668033 5.56667392 1.38686833 2.77373665 0 0 Z " fill="#65DDF4" transform="translate(176,106)"/>
<path d="M0 0 C3.67080764 2.52368025 4.75864984 4.17035883 6 8.4375 C6 12.84062646 5.49159916 14.33614577 3 18 C-0.4605611 20.63154 -4.17295953 22.77169736 -7.9375 24.9375 C-8.97914307 25.54996582 -10.02078613 26.16243164 -11.09399414 26.79345703 C-13.14527356 27.99835731 -15.19979112 29.19776509 -17.2578125 30.39111328 C-19.50439268 31.709219 -21.71348571 33.06010413 -23.90625 34.46484375 C-29.50862867 37.99520866 -33.3270387 40.28776446 -40 39 C-42.8100346 37.20636089 -44.50940468 35.98119065 -46 33 C-46.2734375 31.01171875 -46.2734375 31.01171875 -46.375 28.6875 C-46.42398437 27.92824219 -46.47296875 27.16898438 -46.5234375 26.38671875 C-45.53191061 21.86565211 -41.59933148 19.4086762 -37.92553711 16.90356445 C-36.8041333 16.230271 -35.68272949 15.55697754 -34.52734375 14.86328125 C-33.61995201 14.31500923 -33.61995201 14.31500923 -32.69422913 13.75566101 C-30.77932508 12.60112036 -28.85848796 11.45688239 -26.9375 10.3125 C-25.64480179 9.53383447 -24.35248043 8.75454294 -23.06054688 7.97460938 C-7.63447424 -1.30643409 -7.63447424 -1.30643409 0 0 Z " fill="#000000" transform="translate(448,86)"/>
<path d="M0 0 C2.68603786 0.91885389 4.97206524 2.25140232 7.375 3.75 C8.03838379 4.14396973 8.70176758 4.53793945 9.38525391 4.94384766 C11.60455177 6.27358166 13.8021459 7.63514373 16 9 C17.26263672 9.77005371 17.26263672 9.77005371 18.55078125 10.55566406 C21.16595492 12.15092 23.77246117 13.75922214 26.375 15.375 C27.20177246 15.88643555 28.02854492 16.39787109 28.88037109 16.92480469 C29.64945801 17.41110352 30.41854492 17.89740234 31.2109375 18.3984375 C31.89462402 18.82817871 32.57831055 19.25791992 33.28271484 19.70068359 C35.62004536 21.46913299 36.86619248 23.16914866 37.3359375 26.0859375 C37.40639369 30.21467052 37.3674057 32.41215089 35.125 36 C31.86616098 39.0671426 29.61059107 39.31760405 25.13772583 39.25228882 C21.63339933 38.83871736 19.11454226 37.26181976 16.12109375 35.45703125 C15.19744774 34.90881966 15.19744774 34.90881966 14.25514221 34.34953308 C12.30570768 33.18663414 10.37206479 31.99993253 8.4375 30.8125 C7.13698785 30.03426756 5.83556126 29.25756112 4.53320312 28.48242188 C-11.99550524 18.59045004 -11.99550524 18.59045004 -14.5 14.625 C-15.18340031 11.03714836 -14.94683834 8.53486312 -14 5 C-10.16307665 -0.63548117 -6.31832913 -0.80780794 0 0 Z " fill="#000000" transform="translate(73,86)"/>
<path d="M0 0 C5.06358941 2.99779866 9.14494539 6.76645328 11.80859375 12.09375 C12.33595548 18.30039192 12.57106857 23.87483332 8.80859375 29.09375 C4.43112151 33.48179584 0.05787842 37.33193244 -6.37890625 37.53125 C-11.82946145 37.39633527 -15.90958657 35.38877757 -20.19140625 32.09375 C-24.82307592 26.98998176 -25.60566182 21.61590135 -25.53515625 14.953125 C-24.99496984 10.45975622 -23.20112578 7.41698198 -20.19140625 4.09375 C-14.20884629 -0.57264677 -7.35097647 -3.03997601 0 0 Z " fill="#FAC967" transform="translate(395.19140625,307.90625)"/>
<path d="M0 0 C0.98226562 0.26361328 1.96453125 0.52722656 2.9765625 0.79882812 C3.98203125 1.04310547 4.9875 1.28738281 6.0234375 1.5390625 C11.58784672 2.99658348 15.63407474 4.21129775 19.1015625 9.11132812 C20.37975041 13.92332966 19.76482494 17.9677722 17.2890625 22.23632812 C10.35964455 26.31245633 1.64925314 24.10868213 -5.796875 22.22265625 C-6.77914062 21.95904297 -7.76140625 21.69542969 -8.7734375 21.42382812 C-9.77890625 21.17955078 -10.784375 20.93527344 -11.8203125 20.68359375 C-17.38472172 19.22607277 -21.43094974 18.0113585 -24.8984375 13.11132812 C-26.17662541 8.29932659 -25.56169994 4.25488405 -23.0859375 -0.01367188 C-16.15651955 -4.08980008 -7.44612814 -1.88602588 0 0 Z " fill="#000000" transform="translate(61.8984375,139.888671875)"/>
<path d="M0 0 C2.47576244 4.26855593 3.09068791 8.31299846 1.8125 13.125 C-2.25445936 18.87216502 -7.81690147 19.85940266 -14.3125 21.4375 C-15.29476563 21.70111328 -16.27703125 21.96472656 -17.2890625 22.23632812 C-24.73519064 24.122354 -33.44558205 26.3261282 -40.375 22.25 C-42.85076244 17.98144407 -43.46568791 13.93700154 -42.1875 9.125 C-38.12054064 3.37783498 -32.55809853 2.39059734 -26.0625 0.8125 C-25.08023437 0.54888672 -24.09796875 0.28527344 -23.0859375 0.01367188 C-15.63980936 -1.872354 -6.92941795 -4.0761282 0 0 Z " fill="#000000" transform="translate(473.1875,139.875)"/>
<path d="M0 0 C3.16807156 2.61365904 4.22674302 5.06679861 5 9 C5 13 5 13 3.1875 15.9375 C-0.36032253 19.28258982 -3.00602631 19.4009989 -7.73828125 19.34765625 C-10 19 -10 19 -13 16.8125 C-15.07916606 13.88867272 -16 12.56483292 -16 9 C-14.86347221 5.53059938 -13.68054598 2.83759506 -11.375 0 C-7.51228363 -1.62640689 -3.97115841 -1.17528769 0 0 Z " fill="#020101" transform="translate(262,407)"/>
<path d="M0 0 C7.15789474 -0.35789474 7.15789474 -0.35789474 10.5 1.0625 C12 3 12 3 12.5 6.5 C12 10 12 10 10.5 11.9375 C6.87802345 13.47684003 3.92037077 13.19601854 0 13 C0 8.71 0 4.42 0 0 Z " fill="#F1C263" transform="translate(308,307)"/>
<path d="M0 0 C1.5 1.25 1.5 1.25 3 3 C3 4.32 3 5.64 3 7 C1.35 7 -0.3 7 -2 7 C-1.34 4.69 -0.68 2.38 0 0 Z " fill="#D6AC58" transform="translate(112,324)"/>
</svg>
