<svg width="41" height="30" viewBox="0 0 41 30" fill="none" xmlns="http://www.w3.org/2000/svg">
<path d="M0 2.99988C0 2.20423 0.215981 1.44117 0.600431 0.878558C0.984881 0.315949 1.50631 -0.00012207 2.05 -0.00012207H38.95C39.4937 -0.00012207 40.0151 0.315949 40.3996 0.878558C40.784 1.44117 41 2.20423 41 2.99988C41 3.79553 40.784 4.55859 40.3996 5.1212C40.0151 5.68381 39.4937 5.99988 38.95 5.99988H2.05C1.50631 5.99988 0.984881 5.68381 0.600431 5.1212C0.215981 4.55859 0 3.79553 0 2.99988ZM0 14.9999C0 14.2042 0.215981 13.4412 0.600431 12.8786C0.984881 12.3159 1.50631 11.9999 2.05 11.9999H38.95C39.4937 11.9999 40.0151 12.3159 40.3996 12.8786C40.784 13.4412 41 14.2042 41 14.9999C41 15.7955 40.784 16.5586 40.3996 17.1212C40.0151 17.6838 39.4937 17.9999 38.95 17.9999H2.05C1.50631 17.9999 0.984881 17.6838 0.600431 17.1212C0.215981 16.5586 0 15.7955 0 14.9999ZM2.05 23.9999C1.50631 23.9999 0.984881 24.3159 0.600431 24.8786C0.215981 25.4412 0 26.2042 0 26.9999C0 27.7955 0.215981 28.5586 0.600431 29.1212C0.984881 29.6838 1.50631 29.9999 2.05 29.9999H26.65C27.1937 29.9999 27.7151 29.6838 28.0996 29.1212C28.484 28.5586 28.7 27.7955 28.7 26.9999C28.7 26.2042 28.484 25.4412 28.0996 24.8786C27.7151 24.3159 27.1937 23.9999 26.65 23.9999H2.05Z" fill="#5119E9"/>
</svg>
