<svg width="15" height="24" viewBox="0 0 15 24" fill="none" xmlns="http://www.w3.org/2000/svg">
<path d="M10.4857 19.8853C13.7353 19.9697 14.1176 20.5269 14.1176 21.2018C14.1176 21.935 11.1548 22.5294 7.5 22.5294C3.84518 22.5294 0.882355 21.935 0.882355 21.2018C0.882355 20.5185 1.32802 19.9557 4.63681 19.8824" stroke="black" stroke-linecap="round"/>
<path d="M7.5 21.6471L1.0979 11.5687C0.379654 10.4266 0 9.11166 0 7.76622C0 5.81751 0.780132 3.98542 2.19669 2.60746C3.61325 1.22948 5.49667 0.470589 7.5 0.470589C9.50333 0.470589 11.3868 1.22948 12.8033 2.60746C14.2199 3.98542 15 5.81751 15 7.76622C15 9.11165 14.6204 10.4265 13.9021 11.5687L7.5 21.6471ZM7.5 4.3009C5.53572 4.3009 3.93765 5.85544 3.93765 7.76622C3.93765 9.67718 5.53572 11.2319 7.5 11.2319C9.46447 11.2319 11.0627 9.67718 11.0627 7.76622C11.0627 5.85544 9.46447 4.3009 7.5 4.3009Z" fill="black"/>
</svg>
