<svg width="159" height="103" viewBox="0 0 159 103" fill="none" xmlns="http://www.w3.org/2000/svg">
<path d="M13.2952 95V71.7273H16.1134V92.5H26.9315V95H13.2952ZM36.9345 95.3636C35.3587 95.3636 33.9761 94.9886 32.7867 94.2386C31.6049 93.4886 30.6807 92.4394 30.014 91.0909C29.3549 89.7424 29.0254 88.1667 29.0254 86.3636C29.0254 84.5455 29.3549 82.9583 30.014 81.6023C30.6807 80.2462 31.6049 79.1932 32.7867 78.4432C33.9761 77.6932 35.3587 77.3182 36.9345 77.3182C38.5102 77.3182 39.889 77.6932 41.0708 78.4432C42.2602 79.1932 43.1845 80.2462 43.8435 81.6023C44.5102 82.9583 44.8435 84.5455 44.8435 86.3636C44.8435 88.1667 44.5102 89.7424 43.8435 91.0909C43.1845 92.4394 42.2602 93.4886 41.0708 94.2386C39.889 94.9886 38.5102 95.3636 36.9345 95.3636ZM36.9345 92.9545C38.1314 92.9545 39.1163 92.6477 39.889 92.0341C40.6617 91.4205 41.2337 90.6136 41.6049 89.6136C41.9761 88.6136 42.1617 87.5303 42.1617 86.3636C42.1617 85.197 41.9761 84.1098 41.6049 83.1023C41.2337 82.0947 40.6617 81.2803 39.889 80.6591C39.1163 80.0379 38.1314 79.7273 36.9345 79.7273C35.7375 79.7273 34.7526 80.0379 33.9799 80.6591C33.2072 81.2803 32.6352 82.0947 32.264 83.1023C31.8928 84.1098 31.7072 85.197 31.7072 86.3636C31.7072 87.5303 31.8928 88.6136 32.264 89.6136C32.6352 90.6136 33.2072 91.4205 33.9799 92.0341C34.7526 92.6477 35.7375 92.9545 36.9345 92.9545ZM54.9402 95.3636C53.3038 95.3636 51.8947 94.9773 50.7129 94.2045C49.5311 93.4318 48.622 92.3674 47.9857 91.0114C47.3493 89.6553 47.0311 88.1061 47.0311 86.3636C47.0311 84.5909 47.3569 83.0265 48.0084 81.6705C48.6675 80.3068 49.5841 79.2424 50.7584 78.4773C51.9402 77.7045 53.319 77.3182 54.8947 77.3182C56.122 77.3182 57.2281 77.5455 58.2129 78C59.1978 78.4545 60.0046 79.0909 60.6334 79.9091C61.2622 80.7273 61.6523 81.6818 61.8038 82.7727H59.122C58.9175 81.9773 58.4629 81.2727 57.7584 80.6591C57.0614 80.0379 56.122 79.7273 54.9402 79.7273C53.8947 79.7273 52.9781 80 52.1902 80.5455C51.4099 81.0833 50.8001 81.8447 50.3607 82.8295C49.9288 83.8068 49.7129 84.9545 49.7129 86.2727C49.7129 87.6212 49.9251 88.7955 50.3493 89.7955C50.7811 90.7955 51.3872 91.572 52.1675 92.125C52.9554 92.678 53.8796 92.9545 54.9402 92.9545C55.6372 92.9545 56.2697 92.8333 56.8379 92.5909C57.4061 92.3485 57.8872 92 58.2811 91.5455C58.6751 91.0909 58.9554 90.5455 59.122 89.9091H61.8038C61.6523 90.9394 61.2773 91.8674 60.6788 92.6932C60.0879 93.5114 59.3038 94.1629 58.3266 94.6477C57.3569 95.125 56.2281 95.3636 54.9402 95.3636ZM69.7727 95.4091C68.6666 95.4091 67.6628 95.2008 66.7613 94.7841C65.8598 94.3598 65.1439 93.75 64.6136 92.9545C64.0833 92.1515 63.8181 91.1818 63.8181 90.0455C63.8181 89.0455 64.0151 88.2348 64.409 87.6136C64.803 86.9848 65.3295 86.4924 65.9886 86.1364C66.6477 85.7803 67.3749 85.5152 68.1704 85.3409C68.9734 85.1591 69.7802 85.0152 70.5908 84.9091C71.6514 84.7727 72.5113 84.6705 73.1704 84.6023C73.8371 84.5265 74.3219 84.4015 74.6249 84.2273C74.9355 84.053 75.0908 83.75 75.0908 83.3182V83.2273C75.0908 82.1061 74.784 81.2348 74.1704 80.6136C73.5643 79.9924 72.6439 79.6818 71.409 79.6818C70.1287 79.6818 69.1249 79.9621 68.3977 80.5227C67.6704 81.0833 67.159 81.6818 66.8636 82.3182L64.3181 81.4091C64.7727 80.3485 65.3787 79.5227 66.1363 78.9318C66.9014 78.3333 67.7348 77.9167 68.6363 77.6818C69.5454 77.4394 70.4393 77.3182 71.3181 77.3182C71.8787 77.3182 72.5227 77.3864 73.2499 77.5227C73.9848 77.6515 74.6931 77.9205 75.3749 78.3295C76.0643 78.7386 76.6363 79.3561 77.0908 80.1818C77.5454 81.0076 77.7727 82.1136 77.7727 83.5V95H75.0908V92.6364H74.9545C74.7727 93.0152 74.4696 93.4205 74.0454 93.8523C73.6211 94.2841 73.0567 94.6515 72.3522 94.9545C71.6477 95.2576 70.7878 95.4091 69.7727 95.4091ZM70.1817 93C71.2424 93 72.1363 92.7917 72.8636 92.375C73.5984 91.9583 74.1514 91.4205 74.5227 90.7614C74.9014 90.1023 75.0908 89.4091 75.0908 88.6818V86.2273C74.9772 86.3636 74.7272 86.4886 74.3408 86.6023C73.9621 86.7083 73.5227 86.803 73.0227 86.8864C72.5302 86.9621 72.0492 87.0303 71.5795 87.0909C71.1174 87.1439 70.7424 87.1894 70.4545 87.2273C69.7575 87.3182 69.106 87.4659 68.4999 87.6705C67.9014 87.8674 67.4166 88.1667 67.0454 88.5682C66.6817 88.9621 66.4999 89.5 66.4999 90.1818C66.4999 91.1136 66.8446 91.8182 67.534 92.2955C68.231 92.7652 69.1136 93 70.1817 93ZM89.1705 77.5455V79.8182H80.125V77.5455H89.1705ZM82.7614 73.3636H85.4432V90C85.4432 90.7576 85.553 91.3258 85.7727 91.7045C86 92.0758 86.2879 92.3258 86.6364 92.4545C86.9924 92.5758 87.3674 92.6364 87.7614 92.6364C88.0568 92.6364 88.2992 92.6212 88.4886 92.5909C88.678 92.553 88.8295 92.5227 88.9432 92.5L89.4886 94.9091C89.3068 94.9773 89.053 95.0455 88.7273 95.1136C88.4015 95.1894 87.9886 95.2273 87.4886 95.2273C86.7311 95.2273 85.9886 95.0644 85.2614 94.7386C84.5417 94.4129 83.9432 93.9167 83.4659 93.25C82.9962 92.5833 82.7614 91.7424 82.7614 90.7273V73.3636ZM92.1165 95V77.5455H94.7984V95H92.1165ZM93.4802 74.6364C92.9574 74.6364 92.5067 74.4583 92.1279 74.1023C91.7567 73.7462 91.5711 73.3182 91.5711 72.8182C91.5711 72.3182 91.7567 71.8902 92.1279 71.5341C92.5067 71.178 92.9574 71 93.4802 71C94.0029 71 94.4499 71.178 94.8211 71.5341C95.1999 71.8902 95.3893 72.3182 95.3893 72.8182C95.3893 73.3182 95.1999 73.7462 94.8211 74.1023C94.4499 74.4583 94.0029 74.6364 93.4802 74.6364ZM105.713 95.3636C104.137 95.3636 102.755 94.9886 101.565 94.2386C100.384 93.4886 99.4594 92.4394 98.7927 91.0909C98.1337 89.7424 97.8041 88.1667 97.8041 86.3636C97.8041 84.5455 98.1337 82.9583 98.7927 81.6023C99.4594 80.2462 100.384 79.1932 101.565 78.4432C102.755 77.6932 104.137 77.3182 105.713 77.3182C107.289 77.3182 108.668 77.6932 109.85 78.4432C111.039 79.1932 111.963 80.2462 112.622 81.6023C113.289 82.9583 113.622 84.5455 113.622 86.3636C113.622 88.1667 113.289 89.7424 112.622 91.0909C111.963 92.4394 111.039 93.4886 109.85 94.2386C108.668 94.9886 107.289 95.3636 105.713 95.3636ZM105.713 92.9545C106.91 92.9545 107.895 92.6477 108.668 92.0341C109.44 91.4205 110.012 90.6136 110.384 89.6136C110.755 88.6136 110.94 87.5303 110.94 86.3636C110.94 85.197 110.755 84.1098 110.384 83.1023C110.012 82.0947 109.44 81.2803 108.668 80.6591C107.895 80.0379 106.91 79.7273 105.713 79.7273C104.516 79.7273 103.531 80.0379 102.759 80.6591C101.986 81.2803 101.414 82.0947 101.043 83.1023C100.672 84.1098 100.486 85.197 100.486 86.3636C100.486 87.5303 100.672 88.6136 101.043 89.6136C101.414 90.6136 101.986 91.4205 102.759 92.0341C103.531 92.6477 104.516 92.9545 105.713 92.9545ZM119.31 84.5V95H116.628V77.5455H119.219V80.2727H119.446C119.855 79.3864 120.477 78.6742 121.31 78.1364C122.143 77.5909 123.219 77.3182 124.537 77.3182C125.719 77.3182 126.753 77.5606 127.639 78.0455C128.526 78.5227 129.215 79.25 129.708 80.2273C130.2 81.197 130.446 82.4242 130.446 83.9091V95H127.764V84.0909C127.764 82.7197 127.408 81.6515 126.696 80.8864C125.984 80.1136 125.007 79.7273 123.764 79.7273C122.908 79.7273 122.143 79.9129 121.469 80.2841C120.802 80.6553 120.276 81.197 119.889 81.9091C119.503 82.6212 119.31 83.4848 119.31 84.5ZM146.622 81.4545L144.213 82.1364C144.062 81.7348 143.838 81.3447 143.543 80.9659C143.255 80.5795 142.861 80.2614 142.361 80.0114C141.861 79.7614 141.221 79.6364 140.441 79.6364C139.372 79.6364 138.482 79.8826 137.77 80.375C137.066 80.8598 136.713 81.4773 136.713 82.2273C136.713 82.8939 136.956 83.4205 137.441 83.8068C137.925 84.1932 138.683 84.5152 139.713 84.7727L142.304 85.4091C143.865 85.7879 145.028 86.3674 145.793 87.1477C146.558 87.9205 146.941 88.9167 146.941 90.1364C146.941 91.1364 146.653 92.0303 146.077 92.8182C145.509 93.6061 144.713 94.2273 143.691 94.6818C142.668 95.1364 141.478 95.3636 140.122 95.3636C138.342 95.3636 136.869 94.9773 135.702 94.2045C134.535 93.4318 133.797 92.303 133.486 90.8182L136.032 90.1818C136.274 91.1212 136.732 91.8258 137.407 92.2955C138.088 92.7652 138.978 93 140.077 93C141.327 93 142.319 92.7348 143.054 92.2045C143.797 91.6667 144.168 91.0227 144.168 90.2727C144.168 89.6667 143.956 89.1591 143.532 88.75C143.107 88.3333 142.456 88.0227 141.577 87.8182L138.668 87.1364C137.069 86.7576 135.895 86.1705 135.145 85.375C134.403 84.572 134.032 83.5682 134.032 82.3636C134.032 81.3788 134.308 80.5076 134.861 79.75C135.422 78.9924 136.183 78.3977 137.145 77.9659C138.115 77.5341 139.213 77.3182 140.441 77.3182C142.168 77.3182 143.524 77.697 144.509 78.4545C145.501 79.2121 146.206 80.2121 146.622 81.4545Z" fill="black"/>
<path d="M76.5 59L76.4992 58.9984L61.5618 28.4693C59.8859 25.7452 59 22.6091 59 19.4002C59 14.7525 60.8203 10.383 64.1256 7.09647C67.4309 3.80997 71.8256 2 76.5 2C81.1744 2 85.5691 3.80997 88.8744 7.09647C92.1797 10.383 94 14.7525 94 19.4002C94 22.6091 93.1142 25.7452 91.4382 28.4693L76.5008 58.9984L76.5 59ZM76.5 11.1354C71.9167 11.1354 68.1879 14.843 68.1879 19.4002C68.1879 23.9579 71.9167 27.6659 76.5 27.6659C81.0838 27.6659 84.8129 23.9579 84.8129 19.4002C84.8129 14.843 81.0838 11.1354 76.5 11.1354Z" stroke="black" stroke-width="3"/>
</svg>
