<svg width="159" height="98" viewBox="0 0 159 98" fill="none" xmlns="http://www.w3.org/2000/svg">
<path d="M79.5 51L79.4993 50.9986L65.8422 23.6831C64.3099 21.2457 63.5 18.4397 63.5 15.5686C63.5 11.4101 65.1643 7.50054 68.1863 4.56C71.2083 1.61944 75.2262 0 79.5 0C83.7738 0 87.7917 1.61944 90.8137 4.56C93.8357 7.50054 95.5 11.4101 95.5 15.5686C95.5 18.4397 94.6901 21.2457 93.1578 23.6831L79.5007 50.9986L79.5 51ZM79.5 8.17376C75.3095 8.17376 71.9003 11.4911 71.9003 15.5686C71.9003 19.6466 75.3095 22.9642 79.5 22.9642C83.6909 22.9642 87.1004 19.6466 87.1004 15.5686C87.1004 11.4911 83.6909 8.17376 79.5 8.17376Z" fill="black"/>
<path d="M13.2952 90V66.7273H16.1134V87.5H26.9315V90H13.2952ZM36.9345 90.3636C35.3587 90.3636 33.9761 89.9886 32.7867 89.2386C31.6049 88.4886 30.6807 87.4394 30.014 86.0909C29.3549 84.7424 29.0254 83.1667 29.0254 81.3636C29.0254 79.5455 29.3549 77.9583 30.014 76.6023C30.6807 75.2462 31.6049 74.1932 32.7867 73.4432C33.9761 72.6932 35.3587 72.3182 36.9345 72.3182C38.5102 72.3182 39.889 72.6932 41.0708 73.4432C42.2602 74.1932 43.1845 75.2462 43.8435 76.6023C44.5102 77.9583 44.8435 79.5455 44.8435 81.3636C44.8435 83.1667 44.5102 84.7424 43.8435 86.0909C43.1845 87.4394 42.2602 88.4886 41.0708 89.2386C39.889 89.9886 38.5102 90.3636 36.9345 90.3636ZM36.9345 87.9545C38.1314 87.9545 39.1163 87.6477 39.889 87.0341C40.6617 86.4205 41.2337 85.6136 41.6049 84.6136C41.9761 83.6136 42.1617 82.5303 42.1617 81.3636C42.1617 80.197 41.9761 79.1098 41.6049 78.1023C41.2337 77.0947 40.6617 76.2803 39.889 75.6591C39.1163 75.0379 38.1314 74.7273 36.9345 74.7273C35.7375 74.7273 34.7526 75.0379 33.9799 75.6591C33.2072 76.2803 32.6352 77.0947 32.264 78.1023C31.8928 79.1098 31.7072 80.197 31.7072 81.3636C31.7072 82.5303 31.8928 83.6136 32.264 84.6136C32.6352 85.6136 33.2072 86.4205 33.9799 87.0341C34.7526 87.6477 35.7375 87.9545 36.9345 87.9545ZM54.9402 90.3636C53.3038 90.3636 51.8947 89.9773 50.7129 89.2045C49.5311 88.4318 48.622 87.3674 47.9857 86.0114C47.3493 84.6553 47.0311 83.1061 47.0311 81.3636C47.0311 79.5909 47.3569 78.0265 48.0084 76.6705C48.6675 75.3068 49.5841 74.2424 50.7584 73.4773C51.9402 72.7045 53.319 72.3182 54.8947 72.3182C56.122 72.3182 57.2281 72.5455 58.2129 73C59.1978 73.4545 60.0046 74.0909 60.6334 74.9091C61.2622 75.7273 61.6523 76.6818 61.8038 77.7727H59.122C58.9175 76.9773 58.4629 76.2727 57.7584 75.6591C57.0614 75.0379 56.122 74.7273 54.9402 74.7273C53.8947 74.7273 52.9781 75 52.1902 75.5455C51.4099 76.0833 50.8001 76.8447 50.3607 77.8295C49.9288 78.8068 49.7129 79.9545 49.7129 81.2727C49.7129 82.6212 49.9251 83.7955 50.3493 84.7955C50.7811 85.7955 51.3872 86.572 52.1675 87.125C52.9554 87.678 53.8796 87.9545 54.9402 87.9545C55.6372 87.9545 56.2697 87.8333 56.8379 87.5909C57.4061 87.3485 57.8872 87 58.2811 86.5455C58.6751 86.0909 58.9554 85.5455 59.122 84.9091H61.8038C61.6523 85.9394 61.2773 86.8674 60.6788 87.6932C60.0879 88.5114 59.3038 89.1629 58.3266 89.6477C57.3569 90.125 56.2281 90.3636 54.9402 90.3636ZM69.7727 90.4091C68.6666 90.4091 67.6628 90.2008 66.7613 89.7841C65.8598 89.3598 65.1439 88.75 64.6136 87.9545C64.0833 87.1515 63.8181 86.1818 63.8181 85.0455C63.8181 84.0455 64.0151 83.2348 64.409 82.6136C64.803 81.9848 65.3295 81.4924 65.9886 81.1364C66.6477 80.7803 67.3749 80.5152 68.1704 80.3409C68.9734 80.1591 69.7802 80.0152 70.5908 79.9091C71.6514 79.7727 72.5113 79.6705 73.1704 79.6023C73.8371 79.5265 74.3219 79.4015 74.6249 79.2273C74.9355 79.053 75.0908 78.75 75.0908 78.3182V78.2273C75.0908 77.1061 74.784 76.2348 74.1704 75.6136C73.5643 74.9924 72.6439 74.6818 71.409 74.6818C70.1287 74.6818 69.1249 74.9621 68.3977 75.5227C67.6704 76.0833 67.159 76.6818 66.8636 77.3182L64.3181 76.4091C64.7727 75.3485 65.3787 74.5227 66.1363 73.9318C66.9014 73.3333 67.7348 72.9167 68.6363 72.6818C69.5454 72.4394 70.4393 72.3182 71.3181 72.3182C71.8787 72.3182 72.5227 72.3864 73.2499 72.5227C73.9848 72.6515 74.6931 72.9205 75.3749 73.3295C76.0643 73.7386 76.6363 74.3561 77.0908 75.1818C77.5454 76.0076 77.7727 77.1136 77.7727 78.5V90H75.0908V87.6364H74.9545C74.7727 88.0152 74.4696 88.4205 74.0454 88.8523C73.6211 89.2841 73.0567 89.6515 72.3522 89.9545C71.6477 90.2576 70.7878 90.4091 69.7727 90.4091ZM70.1817 88C71.2424 88 72.1363 87.7917 72.8636 87.375C73.5984 86.9583 74.1514 86.4205 74.5227 85.7614C74.9014 85.1023 75.0908 84.4091 75.0908 83.6818V81.2273C74.9772 81.3636 74.7272 81.4886 74.3408 81.6023C73.9621 81.7083 73.5227 81.803 73.0227 81.8864C72.5302 81.9621 72.0492 82.0303 71.5795 82.0909C71.1174 82.1439 70.7424 82.1894 70.4545 82.2273C69.7575 82.3182 69.106 82.4659 68.4999 82.6705C67.9014 82.8674 67.4166 83.1667 67.0454 83.5682C66.6817 83.9621 66.4999 84.5 66.4999 85.1818C66.4999 86.1136 66.8446 86.8182 67.534 87.2955C68.231 87.7652 69.1136 88 70.1817 88ZM89.1705 72.5455V74.8182H80.125V72.5455H89.1705ZM82.7614 68.3636H85.4432V85C85.4432 85.7576 85.553 86.3258 85.7727 86.7045C86 87.0758 86.2879 87.3258 86.6364 87.4545C86.9924 87.5758 87.3674 87.6364 87.7614 87.6364C88.0568 87.6364 88.2992 87.6212 88.4886 87.5909C88.678 87.553 88.8295 87.5227 88.9432 87.5L89.4886 89.9091C89.3068 89.9773 89.053 90.0455 88.7273 90.1136C88.4015 90.1894 87.9886 90.2273 87.4886 90.2273C86.7311 90.2273 85.9886 90.0644 85.2614 89.7386C84.5417 89.4129 83.9432 88.9167 83.4659 88.25C82.9962 87.5833 82.7614 86.7424 82.7614 85.7273V68.3636ZM92.1165 90V72.5455H94.7984V90H92.1165ZM93.4802 69.6364C92.9574 69.6364 92.5067 69.4583 92.1279 69.1023C91.7567 68.7462 91.5711 68.3182 91.5711 67.8182C91.5711 67.3182 91.7567 66.8902 92.1279 66.5341C92.5067 66.178 92.9574 66 93.4802 66C94.0029 66 94.4499 66.178 94.8211 66.5341C95.1999 66.8902 95.3893 67.3182 95.3893 67.8182C95.3893 68.3182 95.1999 68.7462 94.8211 69.1023C94.4499 69.4583 94.0029 69.6364 93.4802 69.6364ZM105.713 90.3636C104.137 90.3636 102.755 89.9886 101.565 89.2386C100.384 88.4886 99.4594 87.4394 98.7927 86.0909C98.1337 84.7424 97.8041 83.1667 97.8041 81.3636C97.8041 79.5455 98.1337 77.9583 98.7927 76.6023C99.4594 75.2462 100.384 74.1932 101.565 73.4432C102.755 72.6932 104.137 72.3182 105.713 72.3182C107.289 72.3182 108.668 72.6932 109.85 73.4432C111.039 74.1932 111.963 75.2462 112.622 76.6023C113.289 77.9583 113.622 79.5455 113.622 81.3636C113.622 83.1667 113.289 84.7424 112.622 86.0909C111.963 87.4394 111.039 88.4886 109.85 89.2386C108.668 89.9886 107.289 90.3636 105.713 90.3636ZM105.713 87.9545C106.91 87.9545 107.895 87.6477 108.668 87.0341C109.44 86.4205 110.012 85.6136 110.384 84.6136C110.755 83.6136 110.94 82.5303 110.94 81.3636C110.94 80.197 110.755 79.1098 110.384 78.1023C110.012 77.0947 109.44 76.2803 108.668 75.6591C107.895 75.0379 106.91 74.7273 105.713 74.7273C104.516 74.7273 103.531 75.0379 102.759 75.6591C101.986 76.2803 101.414 77.0947 101.043 78.1023C100.672 79.1098 100.486 80.197 100.486 81.3636C100.486 82.5303 100.672 83.6136 101.043 84.6136C101.414 85.6136 101.986 86.4205 102.759 87.0341C103.531 87.6477 104.516 87.9545 105.713 87.9545ZM119.31 79.5V90H116.628V72.5455H119.219V75.2727H119.446C119.855 74.3864 120.477 73.6742 121.31 73.1364C122.143 72.5909 123.219 72.3182 124.537 72.3182C125.719 72.3182 126.753 72.5606 127.639 73.0455C128.526 73.5227 129.215 74.25 129.708 75.2273C130.2 76.197 130.446 77.4242 130.446 78.9091V90H127.764V79.0909C127.764 77.7197 127.408 76.6515 126.696 75.8864C125.984 75.1136 125.007 74.7273 123.764 74.7273C122.908 74.7273 122.143 74.9129 121.469 75.2841C120.802 75.6553 120.276 76.197 119.889 76.9091C119.503 77.6212 119.31 78.4848 119.31 79.5ZM146.622 76.4545L144.213 77.1364C144.062 76.7348 143.838 76.3447 143.543 75.9659C143.255 75.5795 142.861 75.2614 142.361 75.0114C141.861 74.7614 141.221 74.6364 140.441 74.6364C139.372 74.6364 138.482 74.8826 137.77 75.375C137.066 75.8598 136.713 76.4773 136.713 77.2273C136.713 77.8939 136.956 78.4205 137.441 78.8068C137.925 79.1932 138.683 79.5152 139.713 79.7727L142.304 80.4091C143.865 80.7879 145.028 81.3674 145.793 82.1477C146.558 82.9205 146.941 83.9167 146.941 85.1364C146.941 86.1364 146.653 87.0303 146.077 87.8182C145.509 88.6061 144.713 89.2273 143.691 89.6818C142.668 90.1364 141.478 90.3636 140.122 90.3636C138.342 90.3636 136.869 89.9773 135.702 89.2045C134.535 88.4318 133.797 87.303 133.486 85.8182L136.032 85.1818C136.274 86.1212 136.732 86.8258 137.407 87.2955C138.088 87.7652 138.978 88 140.077 88C141.327 88 142.319 87.7348 143.054 87.2045C143.797 86.6667 144.168 86.0227 144.168 85.2727C144.168 84.6667 143.956 84.1591 143.532 83.75C143.107 83.3333 142.456 83.0227 141.577 82.8182L138.668 82.1364C137.069 81.7576 135.895 81.1705 135.145 80.375C134.403 79.572 134.032 78.5682 134.032 77.3636C134.032 76.3788 134.308 75.5076 134.861 74.75C135.422 73.9924 136.183 73.3977 137.145 72.9659C138.115 72.5341 139.213 72.3182 140.441 72.3182C142.168 72.3182 143.524 72.697 144.509 73.4545C145.501 74.2121 146.206 75.2121 146.622 76.4545Z" fill="black"/>
</svg>
