<svg width="185" height="234" viewBox="0 0 185 234" fill="none" xmlns="http://www.w3.org/2000/svg">
<path d="M0 64C0 55.1634 7.16344 48 16 48H185V185H16C7.16344 185 0 177.837 0 169V64Z" fill="#5119E9"/>
<path d="M26.2952 168V144.727H29.1134V165.5H39.9315V168H26.2952ZM49.9345 168.364C48.3587 168.364 46.9761 167.989 45.7867 167.239C44.6049 166.489 43.6807 165.439 43.014 164.091C42.3549 162.742 42.0254 161.167 42.0254 159.364C42.0254 157.545 42.3549 155.958 43.014 154.602C43.6807 153.246 44.6049 152.193 45.7867 151.443C46.9761 150.693 48.3587 150.318 49.9345 150.318C51.5102 150.318 52.889 150.693 54.0708 151.443C55.2602 152.193 56.1845 153.246 56.8435 154.602C57.5102 155.958 57.8435 157.545 57.8435 159.364C57.8435 161.167 57.5102 162.742 56.8435 164.091C56.1845 165.439 55.2602 166.489 54.0708 167.239C52.889 167.989 51.5102 168.364 49.9345 168.364ZM49.9345 165.955C51.1314 165.955 52.1163 165.648 52.889 165.034C53.6617 164.42 54.2337 163.614 54.6049 162.614C54.9761 161.614 55.1617 160.53 55.1617 159.364C55.1617 158.197 54.9761 157.11 54.6049 156.102C54.2337 155.095 53.6617 154.28 52.889 153.659C52.1163 153.038 51.1314 152.727 49.9345 152.727C48.7375 152.727 47.7526 153.038 46.9799 153.659C46.2072 154.28 45.6352 155.095 45.264 156.102C44.8928 157.11 44.7072 158.197 44.7072 159.364C44.7072 160.53 44.8928 161.614 45.264 162.614C45.6352 163.614 46.2072 164.42 46.9799 165.034C47.7526 165.648 48.7375 165.955 49.9345 165.955ZM67.9402 168.364C66.3038 168.364 64.8947 167.977 63.7129 167.205C62.5311 166.432 61.622 165.367 60.9857 164.011C60.3493 162.655 60.0311 161.106 60.0311 159.364C60.0311 157.591 60.3569 156.027 61.0084 154.67C61.6675 153.307 62.5841 152.242 63.7584 151.477C64.9402 150.705 66.319 150.318 67.8947 150.318C69.122 150.318 70.2281 150.545 71.2129 151C72.1978 151.455 73.0046 152.091 73.6334 152.909C74.2622 153.727 74.6523 154.682 74.8038 155.773H72.122C71.9175 154.977 71.4629 154.273 70.7584 153.659C70.0614 153.038 69.122 152.727 67.9402 152.727C66.8947 152.727 65.9781 153 65.1902 153.545C64.4099 154.083 63.8001 154.845 63.3607 155.83C62.9288 156.807 62.7129 157.955 62.7129 159.273C62.7129 160.621 62.9251 161.795 63.3493 162.795C63.7811 163.795 64.3872 164.572 65.1675 165.125C65.9554 165.678 66.8796 165.955 67.9402 165.955C68.6372 165.955 69.2697 165.833 69.8379 165.591C70.4061 165.348 70.8872 165 71.2811 164.545C71.6751 164.091 71.9554 163.545 72.122 162.909H74.8038C74.6523 163.939 74.2773 164.867 73.6788 165.693C73.0879 166.511 72.3038 167.163 71.3266 167.648C70.3569 168.125 69.2281 168.364 67.9402 168.364ZM82.7727 168.409C81.6666 168.409 80.6628 168.201 79.7613 167.784C78.8598 167.36 78.1439 166.75 77.6136 165.955C77.0833 165.152 76.8181 164.182 76.8181 163.045C76.8181 162.045 77.0151 161.235 77.409 160.614C77.803 159.985 78.3295 159.492 78.9886 159.136C79.6477 158.78 80.3749 158.515 81.1704 158.341C81.9734 158.159 82.7802 158.015 83.5908 157.909C84.6514 157.773 85.5113 157.67 86.1704 157.602C86.8371 157.527 87.3219 157.402 87.6249 157.227C87.9355 157.053 88.0908 156.75 88.0908 156.318V156.227C88.0908 155.106 87.784 154.235 87.1704 153.614C86.5643 152.992 85.6439 152.682 84.409 152.682C83.1287 152.682 82.1249 152.962 81.3977 153.523C80.6704 154.083 80.159 154.682 79.8636 155.318L77.3181 154.409C77.7727 153.348 78.3787 152.523 79.1363 151.932C79.9014 151.333 80.7348 150.917 81.6363 150.682C82.5454 150.439 83.4393 150.318 84.3181 150.318C84.8787 150.318 85.5227 150.386 86.2499 150.523C86.9848 150.652 87.6931 150.92 88.3749 151.33C89.0643 151.739 89.6363 152.356 90.0908 153.182C90.5454 154.008 90.7727 155.114 90.7727 156.5V168H88.0908V165.636H87.9545C87.7727 166.015 87.4696 166.42 87.0454 166.852C86.6211 167.284 86.0567 167.652 85.3522 167.955C84.6477 168.258 83.7878 168.409 82.7727 168.409ZM83.1817 166C84.2424 166 85.1363 165.792 85.8636 165.375C86.5984 164.958 87.1514 164.42 87.5227 163.761C87.9014 163.102 88.0908 162.409 88.0908 161.682V159.227C87.9772 159.364 87.7272 159.489 87.3408 159.602C86.9621 159.708 86.5227 159.803 86.0227 159.886C85.5302 159.962 85.0492 160.03 84.5795 160.091C84.1174 160.144 83.7424 160.189 83.4545 160.227C82.7575 160.318 82.106 160.466 81.4999 160.67C80.9014 160.867 80.4166 161.167 80.0454 161.568C79.6817 161.962 79.4999 162.5 79.4999 163.182C79.4999 164.114 79.8446 164.818 80.534 165.295C81.231 165.765 82.1136 166 83.1817 166ZM102.17 150.545V152.818H93.125V150.545H102.17ZM95.7614 146.364H98.4432V163C98.4432 163.758 98.553 164.326 98.7727 164.705C99 165.076 99.2879 165.326 99.6364 165.455C99.9924 165.576 100.367 165.636 100.761 165.636C101.057 165.636 101.299 165.621 101.489 165.591C101.678 165.553 101.83 165.523 101.943 165.5L102.489 167.909C102.307 167.977 102.053 168.045 101.727 168.114C101.402 168.189 100.989 168.227 100.489 168.227C99.7311 168.227 98.9886 168.064 98.2614 167.739C97.5417 167.413 96.9432 166.917 96.4659 166.25C95.9962 165.583 95.7614 164.742 95.7614 163.727V146.364ZM105.117 168V150.545H107.798V168H105.117ZM106.48 147.636C105.957 147.636 105.507 147.458 105.128 147.102C104.757 146.746 104.571 146.318 104.571 145.818C104.571 145.318 104.757 144.89 105.128 144.534C105.507 144.178 105.957 144 106.48 144C107.003 144 107.45 144.178 107.821 144.534C108.2 144.89 108.389 145.318 108.389 145.818C108.389 146.318 108.2 146.746 107.821 147.102C107.45 147.458 107.003 147.636 106.48 147.636ZM118.713 168.364C117.137 168.364 115.755 167.989 114.565 167.239C113.384 166.489 112.459 165.439 111.793 164.091C111.134 162.742 110.804 161.167 110.804 159.364C110.804 157.545 111.134 155.958 111.793 154.602C112.459 153.246 113.384 152.193 114.565 151.443C115.755 150.693 117.137 150.318 118.713 150.318C120.289 150.318 121.668 150.693 122.85 151.443C124.039 152.193 124.963 153.246 125.622 154.602C126.289 155.958 126.622 157.545 126.622 159.364C126.622 161.167 126.289 162.742 125.622 164.091C124.963 165.439 124.039 166.489 122.85 167.239C121.668 167.989 120.289 168.364 118.713 168.364ZM118.713 165.955C119.91 165.955 120.895 165.648 121.668 165.034C122.44 164.42 123.012 163.614 123.384 162.614C123.755 161.614 123.94 160.53 123.94 159.364C123.94 158.197 123.755 157.11 123.384 156.102C123.012 155.095 122.44 154.28 121.668 153.659C120.895 153.038 119.91 152.727 118.713 152.727C117.516 152.727 116.531 153.038 115.759 153.659C114.986 154.28 114.414 155.095 114.043 156.102C113.672 157.11 113.486 158.197 113.486 159.364C113.486 160.53 113.672 161.614 114.043 162.614C114.414 163.614 114.986 164.42 115.759 165.034C116.531 165.648 117.516 165.955 118.713 165.955ZM132.31 157.5V168H129.628V150.545H132.219V153.273H132.446C132.855 152.386 133.477 151.674 134.31 151.136C135.143 150.591 136.219 150.318 137.537 150.318C138.719 150.318 139.753 150.561 140.639 151.045C141.526 151.523 142.215 152.25 142.708 153.227C143.2 154.197 143.446 155.424 143.446 156.909V168H140.764V157.091C140.764 155.72 140.408 154.652 139.696 153.886C138.984 153.114 138.007 152.727 136.764 152.727C135.908 152.727 135.143 152.913 134.469 153.284C133.802 153.655 133.276 154.197 132.889 154.909C132.503 155.621 132.31 156.485 132.31 157.5ZM159.622 154.455L157.213 155.136C157.062 154.735 156.838 154.345 156.543 153.966C156.255 153.58 155.861 153.261 155.361 153.011C154.861 152.761 154.221 152.636 153.441 152.636C152.372 152.636 151.482 152.883 150.77 153.375C150.066 153.86 149.713 154.477 149.713 155.227C149.713 155.894 149.956 156.42 150.441 156.807C150.925 157.193 151.683 157.515 152.713 157.773L155.304 158.409C156.865 158.788 158.028 159.367 158.793 160.148C159.558 160.92 159.941 161.917 159.941 163.136C159.941 164.136 159.653 165.03 159.077 165.818C158.509 166.606 157.713 167.227 156.691 167.682C155.668 168.136 154.478 168.364 153.122 168.364C151.342 168.364 149.869 167.977 148.702 167.205C147.535 166.432 146.797 165.303 146.486 163.818L149.032 163.182C149.274 164.121 149.732 164.826 150.407 165.295C151.088 165.765 151.978 166 153.077 166C154.327 166 155.319 165.735 156.054 165.205C156.797 164.667 157.168 164.023 157.168 163.273C157.168 162.667 156.956 162.159 156.532 161.75C156.107 161.333 155.456 161.023 154.577 160.818L151.668 160.136C150.069 159.758 148.895 159.17 148.145 158.375C147.403 157.572 147.032 156.568 147.032 155.364C147.032 154.379 147.308 153.508 147.861 152.75C148.422 151.992 149.183 151.398 150.145 150.966C151.115 150.534 152.213 150.318 153.441 150.318C155.168 150.318 156.524 150.697 157.509 151.455C158.501 152.212 159.206 153.212 159.622 154.455Z" fill="white"/>
<path d="M143 184.751L185 184.751L185 233.249L184.161 228.427C180.424 206.94 164.228 189.754 143 184.751Z" fill="#5119E9"/>
<path d="M143 48.4974L185 48.4974L185 1.83588e-06L184.161 4.82165C180.424 26.309 164.228 43.4944 143 48.4974Z" fill="#5119E9"/>
<path d="M89.5 132L89.4992 131.998L74.5618 101.469C72.8859 98.7452 72 95.6091 72 92.4002C72 87.7525 73.8203 83.383 77.1256 80.0965C80.4309 76.81 84.8256 75 89.5 75C94.1744 75 98.5691 76.81 101.874 80.0965C105.18 83.383 107 87.7525 107 92.4002C107 95.6091 106.114 98.7452 104.438 101.469L89.5008 131.998L89.5 132ZM89.5 84.1354C84.9167 84.1354 81.1879 87.843 81.1879 92.4002C81.1879 96.9579 84.9167 100.666 89.5 100.666C94.0838 100.666 97.8129 96.9579 97.8129 92.4002C97.8129 87.843 94.0838 84.1354 89.5 84.1354Z" fill="white"/>
</svg>
