<svg width="185" height="234" viewBox="0 0 185 234" fill="none" xmlns="http://www.w3.org/2000/svg">
<path d="M0 64C0 55.1634 7.16344 48 16 48H185V185H16C7.16344 185 0 177.837 0 169V64Z" fill="#5119E9"/>
<path d="M143 184.751L185 184.751L185 233.249L184.161 228.427C180.424 206.94 164.228 189.754 143 184.751Z" fill="#5119E9"/>
<path d="M143 48.4974L185 48.4974L185 1.83588e-06L184.161 4.82165C180.424 26.309 164.228 43.4944 143 48.4974Z" fill="#5119E9"/>
<path d="M26.2952 158V134.727H29.1134V155.5H39.9315V158H26.2952ZM49.9345 158.364C48.3587 158.364 46.9761 157.989 45.7867 157.239C44.6049 156.489 43.6807 155.439 43.014 154.091C42.3549 152.742 42.0254 151.167 42.0254 149.364C42.0254 147.545 42.3549 145.958 43.014 144.602C43.6807 143.246 44.6049 142.193 45.7867 141.443C46.9761 140.693 48.3587 140.318 49.9345 140.318C51.5102 140.318 52.889 140.693 54.0708 141.443C55.2602 142.193 56.1845 143.246 56.8435 144.602C57.5102 145.958 57.8435 147.545 57.8435 149.364C57.8435 151.167 57.5102 152.742 56.8435 154.091C56.1845 155.439 55.2602 156.489 54.0708 157.239C52.889 157.989 51.5102 158.364 49.9345 158.364ZM49.9345 155.955C51.1314 155.955 52.1163 155.648 52.889 155.034C53.6617 154.42 54.2337 153.614 54.6049 152.614C54.9761 151.614 55.1617 150.53 55.1617 149.364C55.1617 148.197 54.9761 147.11 54.6049 146.102C54.2337 145.095 53.6617 144.28 52.889 143.659C52.1163 143.038 51.1314 142.727 49.9345 142.727C48.7375 142.727 47.7526 143.038 46.9799 143.659C46.2072 144.28 45.6352 145.095 45.264 146.102C44.8928 147.11 44.7072 148.197 44.7072 149.364C44.7072 150.53 44.8928 151.614 45.264 152.614C45.6352 153.614 46.2072 154.42 46.9799 155.034C47.7526 155.648 48.7375 155.955 49.9345 155.955ZM67.9402 158.364C66.3038 158.364 64.8947 157.977 63.7129 157.205C62.5311 156.432 61.622 155.367 60.9857 154.011C60.3493 152.655 60.0311 151.106 60.0311 149.364C60.0311 147.591 60.3569 146.027 61.0084 144.67C61.6675 143.307 62.5841 142.242 63.7584 141.477C64.9402 140.705 66.319 140.318 67.8947 140.318C69.122 140.318 70.2281 140.545 71.2129 141C72.1978 141.455 73.0046 142.091 73.6334 142.909C74.2622 143.727 74.6523 144.682 74.8038 145.773H72.122C71.9175 144.977 71.4629 144.273 70.7584 143.659C70.0614 143.038 69.122 142.727 67.9402 142.727C66.8947 142.727 65.9781 143 65.1902 143.545C64.4099 144.083 63.8001 144.845 63.3607 145.83C62.9288 146.807 62.7129 147.955 62.7129 149.273C62.7129 150.621 62.9251 151.795 63.3493 152.795C63.7811 153.795 64.3872 154.572 65.1675 155.125C65.9554 155.678 66.8796 155.955 67.9402 155.955C68.6372 155.955 69.2697 155.833 69.8379 155.591C70.4061 155.348 70.8872 155 71.2811 154.545C71.6751 154.091 71.9554 153.545 72.122 152.909H74.8038C74.6523 153.939 74.2773 154.867 73.6788 155.693C73.0879 156.511 72.3038 157.163 71.3266 157.648C70.3569 158.125 69.2281 158.364 67.9402 158.364ZM82.7727 158.409C81.6666 158.409 80.6628 158.201 79.7613 157.784C78.8598 157.36 78.1439 156.75 77.6136 155.955C77.0833 155.152 76.8181 154.182 76.8181 153.045C76.8181 152.045 77.0151 151.235 77.409 150.614C77.803 149.985 78.3295 149.492 78.9886 149.136C79.6477 148.78 80.3749 148.515 81.1704 148.341C81.9734 148.159 82.7802 148.015 83.5908 147.909C84.6514 147.773 85.5113 147.67 86.1704 147.602C86.8371 147.527 87.3219 147.402 87.6249 147.227C87.9355 147.053 88.0908 146.75 88.0908 146.318V146.227C88.0908 145.106 87.784 144.235 87.1704 143.614C86.5643 142.992 85.6439 142.682 84.409 142.682C83.1287 142.682 82.1249 142.962 81.3977 143.523C80.6704 144.083 80.159 144.682 79.8636 145.318L77.3181 144.409C77.7727 143.348 78.3787 142.523 79.1363 141.932C79.9014 141.333 80.7348 140.917 81.6363 140.682C82.5454 140.439 83.4393 140.318 84.3181 140.318C84.8787 140.318 85.5227 140.386 86.2499 140.523C86.9848 140.652 87.6931 140.92 88.3749 141.33C89.0643 141.739 89.6363 142.356 90.0908 143.182C90.5454 144.008 90.7727 145.114 90.7727 146.5V158H88.0908V155.636H87.9545C87.7727 156.015 87.4696 156.42 87.0454 156.852C86.6211 157.284 86.0567 157.652 85.3522 157.955C84.6477 158.258 83.7878 158.409 82.7727 158.409ZM83.1817 156C84.2424 156 85.1363 155.792 85.8636 155.375C86.5984 154.958 87.1514 154.42 87.5227 153.761C87.9014 153.102 88.0908 152.409 88.0908 151.682V149.227C87.9772 149.364 87.7272 149.489 87.3408 149.602C86.9621 149.708 86.5227 149.803 86.0227 149.886C85.5302 149.962 85.0492 150.03 84.5795 150.091C84.1174 150.144 83.7424 150.189 83.4545 150.227C82.7575 150.318 82.106 150.466 81.4999 150.67C80.9014 150.867 80.4166 151.167 80.0454 151.568C79.6817 151.962 79.4999 152.5 79.4999 153.182C79.4999 154.114 79.8446 154.818 80.534 155.295C81.231 155.765 82.1136 156 83.1817 156ZM102.17 140.545V142.818H93.125V140.545H102.17ZM95.7614 136.364H98.4432V153C98.4432 153.758 98.553 154.326 98.7727 154.705C99 155.076 99.2879 155.326 99.6364 155.455C99.9924 155.576 100.367 155.636 100.761 155.636C101.057 155.636 101.299 155.621 101.489 155.591C101.678 155.553 101.83 155.523 101.943 155.5L102.489 157.909C102.307 157.977 102.053 158.045 101.727 158.114C101.402 158.189 100.989 158.227 100.489 158.227C99.7311 158.227 98.9886 158.064 98.2614 157.739C97.5417 157.413 96.9432 156.917 96.4659 156.25C95.9962 155.583 95.7614 154.742 95.7614 153.727V136.364ZM105.117 158V140.545H107.798V158H105.117ZM106.48 137.636C105.957 137.636 105.507 137.458 105.128 137.102C104.757 136.746 104.571 136.318 104.571 135.818C104.571 135.318 104.757 134.89 105.128 134.534C105.507 134.178 105.957 134 106.48 134C107.003 134 107.45 134.178 107.821 134.534C108.2 134.89 108.389 135.318 108.389 135.818C108.389 136.318 108.2 136.746 107.821 137.102C107.45 137.458 107.003 137.636 106.48 137.636ZM118.713 158.364C117.137 158.364 115.755 157.989 114.565 157.239C113.384 156.489 112.459 155.439 111.793 154.091C111.134 152.742 110.804 151.167 110.804 149.364C110.804 147.545 111.134 145.958 111.793 144.602C112.459 143.246 113.384 142.193 114.565 141.443C115.755 140.693 117.137 140.318 118.713 140.318C120.289 140.318 121.668 140.693 122.85 141.443C124.039 142.193 124.963 143.246 125.622 144.602C126.289 145.958 126.622 147.545 126.622 149.364C126.622 151.167 126.289 152.742 125.622 154.091C124.963 155.439 124.039 156.489 122.85 157.239C121.668 157.989 120.289 158.364 118.713 158.364ZM118.713 155.955C119.91 155.955 120.895 155.648 121.668 155.034C122.44 154.42 123.012 153.614 123.384 152.614C123.755 151.614 123.94 150.53 123.94 149.364C123.94 148.197 123.755 147.11 123.384 146.102C123.012 145.095 122.44 144.28 121.668 143.659C120.895 143.038 119.91 142.727 118.713 142.727C117.516 142.727 116.531 143.038 115.759 143.659C114.986 144.28 114.414 145.095 114.043 146.102C113.672 147.11 113.486 148.197 113.486 149.364C113.486 150.53 113.672 151.614 114.043 152.614C114.414 153.614 114.986 154.42 115.759 155.034C116.531 155.648 117.516 155.955 118.713 155.955ZM132.31 147.5V158H129.628V140.545H132.219V143.273H132.446C132.855 142.386 133.477 141.674 134.31 141.136C135.143 140.591 136.219 140.318 137.537 140.318C138.719 140.318 139.753 140.561 140.639 141.045C141.526 141.523 142.215 142.25 142.708 143.227C143.2 144.197 143.446 145.424 143.446 146.909V158H140.764V147.091C140.764 145.72 140.408 144.652 139.696 143.886C138.984 143.114 138.007 142.727 136.764 142.727C135.908 142.727 135.143 142.913 134.469 143.284C133.802 143.655 133.276 144.197 132.889 144.909C132.503 145.621 132.31 146.485 132.31 147.5ZM159.622 144.455L157.213 145.136C157.062 144.735 156.838 144.345 156.543 143.966C156.255 143.58 155.861 143.261 155.361 143.011C154.861 142.761 154.221 142.636 153.441 142.636C152.372 142.636 151.482 142.883 150.77 143.375C150.066 143.86 149.713 144.477 149.713 145.227C149.713 145.894 149.956 146.42 150.441 146.807C150.925 147.193 151.683 147.515 152.713 147.773L155.304 148.409C156.865 148.788 158.028 149.367 158.793 150.148C159.558 150.92 159.941 151.917 159.941 153.136C159.941 154.136 159.653 155.03 159.077 155.818C158.509 156.606 157.713 157.227 156.691 157.682C155.668 158.136 154.478 158.364 153.122 158.364C151.342 158.364 149.869 157.977 148.702 157.205C147.535 156.432 146.797 155.303 146.486 153.818L149.032 153.182C149.274 154.121 149.732 154.826 150.407 155.295C151.088 155.765 151.978 156 153.077 156C154.327 156 155.319 155.735 156.054 155.205C156.797 154.667 157.168 154.023 157.168 153.273C157.168 152.667 156.956 152.159 156.532 151.75C156.107 151.333 155.456 151.023 154.577 150.818L151.668 150.136C150.069 149.758 148.895 149.17 148.145 148.375C147.403 147.572 147.032 146.568 147.032 145.364C147.032 144.379 147.308 143.508 147.861 142.75C148.422 141.992 149.183 141.398 150.145 140.966C151.115 140.534 152.213 140.318 153.441 140.318C155.168 140.318 156.524 140.697 157.509 141.455C158.501 142.212 159.206 143.212 159.622 144.455Z" fill="white"/>
<path d="M89.5 122L89.4992 121.998L74.5618 91.4693C72.8859 88.7452 72 85.6091 72 82.4002C72 77.7525 73.8203 73.383 77.1256 70.0965C80.4309 66.81 84.8256 65 89.5 65C94.1744 65 98.5691 66.81 101.874 70.0965C105.18 73.383 107 77.7525 107 82.4002C107 85.6091 106.114 88.7452 104.438 91.4693L89.5008 121.998L89.5 122ZM89.5 74.1354C84.9167 74.1354 81.1879 77.843 81.1879 82.4002C81.1879 86.9579 84.9167 90.6659 89.5 90.6659C94.0838 90.6659 97.8129 86.9579 97.8129 82.4002C97.8129 77.843 94.0838 74.1354 89.5 74.1354Z" stroke="white" stroke-width="3"/>
</svg>
