<svg width="185" height="234" viewBox="0 0 185 234" fill="none" xmlns="http://www.w3.org/2000/svg">
<path d="M0 64.4108C0 55.5742 7.16344 48.4108 16 48.4108H185V185.411H16C7.16344 185.411 0 178.247 0 169.411V64.4108Z" fill="#5119E9"/>
<path d="M143 185.162L185 185.162L185 233.66L184.161 228.838C180.424 207.351 164.228 190.165 143 185.162Z" fill="#5119E9"/>
<path d="M143 48.9082L185 48.9082L185 0.410768L184.161 5.23242C180.424 26.7197 164.228 43.9052 143 48.9082Z" fill="#5119E9"/>
<path fill-rule="evenodd" clip-rule="evenodd" d="M87.9592 69.1876C91.4192 69.1876 94.8453 69.8691 98.042 71.1932C101.239 72.5173 104.143 74.458 106.59 76.9046C109.036 79.3512 110.977 82.2558 112.301 85.4524C113.625 88.649 114.307 92.0752 114.307 95.5352C114.307 110.087 102.511 121.883 87.9592 121.883C73.4079 121.883 61.6116 110.087 61.6116 95.5352C61.6116 80.9839 73.4079 69.1876 87.9592 69.1876ZM90.519 104.596H85.2495C78.7266 104.596 73.1265 108.546 70.7111 114.186C74.5329 119.545 80.838 121.449 87.9217 121.449C95.0054 121.449 101.236 119.545 105.057 114.185C102.642 108.546 97.0419 104.596 90.519 104.596ZM87.9217 82.5484C83.5563 82.5484 80.0174 86.0873 80.0174 90.4526C80.0174 94.818 83.5563 98.3569 87.9217 98.3569C92.2871 98.3569 95.826 94.818 95.826 90.4526C95.826 86.0873 92.2872 82.5484 87.9217 82.5484Z" stroke="white" stroke-width="3"/>
<path d="M21.9159 159.7V137.3H24.5399L34.5879 154.228H33.1799L43.0999 137.3H45.7239L45.7559 159.7H42.6839L42.6519 142.132H43.3879L34.5559 156.98H33.0839L24.1879 142.132H24.9879V159.7H21.9159ZM57.6624 159.892C55.8491 159.892 54.2491 159.518 52.8624 158.772C51.4971 158.025 50.4304 157.001 49.6624 155.7C48.9157 154.398 48.5424 152.905 48.5424 151.22C48.5424 149.534 48.9051 148.041 49.6304 146.74C50.3771 145.438 51.3904 144.425 52.6704 143.7C53.9717 142.953 55.4331 142.58 57.0544 142.58C58.6971 142.58 60.1477 142.942 61.4064 143.668C62.6651 144.393 63.6464 145.417 64.3504 146.74C65.0757 148.041 65.4384 149.566 65.4384 151.316C65.4384 151.444 65.4277 151.593 65.4064 151.764C65.4064 151.934 65.3957 152.094 65.3744 152.244H50.9424V150.036H63.7744L62.5264 150.804C62.5477 149.716 62.3237 148.745 61.8544 147.892C61.3851 147.038 60.7344 146.377 59.9024 145.908C59.0917 145.417 58.1424 145.172 57.0544 145.172C55.9877 145.172 55.0384 145.417 54.2064 145.908C53.3744 146.377 52.7237 147.049 52.2544 147.924C51.7851 148.777 51.5504 149.758 51.5504 150.868V151.38C51.5504 152.51 51.8064 153.524 52.3184 154.42C52.8517 155.294 53.5877 155.977 54.5264 156.468C55.4651 156.958 56.5424 157.204 57.7584 157.204C58.7611 157.204 59.6677 157.033 60.4784 156.692C61.3104 156.35 62.0357 155.838 62.6544 155.156L64.3504 157.14C63.5824 158.036 62.6224 158.718 61.4704 159.188C60.3397 159.657 59.0704 159.892 57.6624 159.892ZM89.0002 142.58C90.3655 142.58 91.5708 142.846 92.6162 143.38C93.6615 143.913 94.4722 144.724 95.0482 145.812C95.6455 146.9 95.9442 148.276 95.9442 149.94V159.7H92.8722V150.292C92.8722 148.649 92.4882 147.412 91.7202 146.58C90.9522 145.748 89.8748 145.332 88.4882 145.332C87.4642 145.332 86.5682 145.545 85.8002 145.972C85.0322 146.398 84.4348 147.028 84.0082 147.86C83.6028 148.692 83.4002 149.726 83.4002 150.964V159.7H80.3282V150.292C80.3282 148.649 79.9442 147.412 79.1762 146.58C78.4295 145.748 77.3522 145.332 75.9442 145.332C74.9415 145.332 74.0562 145.545 73.2882 145.972C72.5202 146.398 71.9228 147.028 71.4962 147.86C71.0695 148.692 70.8562 149.726 70.8562 150.964V159.7H67.7842V142.74H70.7282V147.252L70.2482 146.1C70.7815 144.99 71.6028 144.126 72.7122 143.508C73.8215 142.889 75.1122 142.58 76.5842 142.58C78.2055 142.58 79.6028 142.985 80.7762 143.796C81.9495 144.585 82.7175 145.79 83.0802 147.412L81.8322 146.9C82.3442 145.598 83.2402 144.553 84.5202 143.764C85.8002 142.974 87.2935 142.58 89.0002 142.58ZM108.669 159.892C107.218 159.892 105.906 159.572 104.733 158.932C103.581 158.27 102.663 157.3 101.981 156.02C101.319 154.74 100.989 153.14 100.989 151.22C100.989 149.3 101.33 147.7 102.013 146.42C102.717 145.14 103.645 144.18 104.797 143.54C105.97 142.9 107.261 142.58 108.669 142.58C110.333 142.58 111.805 142.942 113.085 143.668C114.365 144.393 115.378 145.406 116.125 146.708C116.871 147.988 117.245 149.492 117.245 151.22C117.245 152.948 116.871 154.462 116.125 155.764C115.378 157.065 114.365 158.078 113.085 158.804C111.805 159.529 110.333 159.892 108.669 159.892ZM99.6767 159.7V135.956H102.749V147.252L102.429 151.188L102.621 155.124V159.7H99.6767ZM108.413 157.204C109.501 157.204 110.471 156.958 111.325 156.468C112.199 155.977 112.882 155.284 113.373 154.388C113.885 153.47 114.141 152.414 114.141 151.22C114.141 150.004 113.885 148.958 113.373 148.084C112.882 147.188 112.199 146.494 111.325 146.004C110.471 145.513 109.501 145.268 108.413 145.268C107.346 145.268 106.375 145.513 105.501 146.004C104.647 146.494 103.965 147.188 103.453 148.084C102.962 148.958 102.717 150.004 102.717 151.22C102.717 152.414 102.962 153.47 103.453 154.388C103.965 155.284 104.647 155.977 105.501 156.468C106.375 156.958 107.346 157.204 108.413 157.204ZM127.121 159.892C125.308 159.892 123.708 159.518 122.321 158.772C120.956 158.025 119.889 157.001 119.121 155.7C118.374 154.398 118.001 152.905 118.001 151.22C118.001 149.534 118.364 148.041 119.089 146.74C119.836 145.438 120.849 144.425 122.129 143.7C123.43 142.953 124.892 142.58 126.513 142.58C128.156 142.58 129.606 142.942 130.865 143.668C132.124 144.393 133.105 145.417 133.809 146.74C134.534 148.041 134.897 149.566 134.897 151.316C134.897 151.444 134.886 151.593 134.865 151.764C134.865 151.934 134.854 152.094 134.833 152.244H120.401V150.036H133.233L131.985 150.804C132.006 149.716 131.782 148.745 131.313 147.892C130.844 147.038 130.193 146.377 129.361 145.908C128.55 145.417 127.601 145.172 126.513 145.172C125.446 145.172 124.497 145.417 123.665 145.908C122.833 146.377 122.182 147.049 121.713 147.924C121.244 148.777 121.009 149.758 121.009 150.868V151.38C121.009 152.51 121.265 153.524 121.777 154.42C122.31 155.294 123.046 155.977 123.985 156.468C124.924 156.958 126.001 157.204 127.217 157.204C128.22 157.204 129.126 157.033 129.937 156.692C130.769 156.35 131.494 155.838 132.113 155.156L133.809 157.14C133.041 158.036 132.081 158.718 130.929 159.188C129.798 159.657 128.529 159.892 127.121 159.892ZM137.243 159.7V142.74H140.187V147.348L139.899 146.196C140.368 145.022 141.158 144.126 142.267 143.508C143.376 142.889 144.742 142.58 146.363 142.58V145.556C146.235 145.534 146.107 145.524 145.979 145.524C145.872 145.524 145.766 145.524 145.659 145.524C144.016 145.524 142.715 146.014 141.755 146.996C140.795 147.977 140.315 149.396 140.315 151.252V159.7H137.243ZM153.281 159.892C151.873 159.892 150.529 159.7 149.249 159.316C147.99 158.932 146.998 158.462 146.273 157.908L147.553 155.476C148.278 155.966 149.174 156.382 150.241 156.724C151.307 157.065 152.395 157.236 153.505 157.236C154.934 157.236 155.958 157.033 156.577 156.628C157.217 156.222 157.537 155.657 157.537 154.932C157.537 154.398 157.345 153.982 156.961 153.684C156.577 153.385 156.065 153.161 155.425 153.012C154.806 152.862 154.113 152.734 153.345 152.628C152.577 152.5 151.809 152.35 151.041 152.18C150.273 151.988 149.569 151.732 148.929 151.412C148.289 151.07 147.777 150.612 147.393 150.036C147.009 149.438 146.817 148.649 146.817 147.668C146.817 146.644 147.105 145.748 147.681 144.98C148.257 144.212 149.067 143.625 150.113 143.22C151.179 142.793 152.438 142.58 153.889 142.58C154.998 142.58 156.118 142.718 157.249 142.996C158.401 143.252 159.339 143.625 160.065 144.116L158.753 146.548C157.985 146.036 157.185 145.684 156.353 145.492C155.521 145.3 154.689 145.204 153.857 145.204C152.513 145.204 151.51 145.428 150.849 145.876C150.187 146.302 149.857 146.857 149.857 147.54C149.857 148.116 150.049 148.564 150.433 148.884C150.838 149.182 151.35 149.417 151.969 149.588C152.609 149.758 153.313 149.908 154.081 150.036C154.849 150.142 155.617 150.292 156.385 150.484C157.153 150.654 157.846 150.9 158.465 151.22C159.105 151.54 159.617 151.988 160.001 152.564C160.406 153.14 160.609 153.908 160.609 154.868C160.609 155.892 160.31 156.777 159.713 157.524C159.115 158.27 158.273 158.857 157.185 159.284C156.097 159.689 154.795 159.892 153.281 159.892Z" fill="white"/>
</svg>
