<svg width="143" height="101" viewBox="0 0 143 101" fill="none" xmlns="http://www.w3.org/2000/svg">
<path fill-rule="evenodd" clip-rule="evenodd" d="M69.4033 2C72.8633 1.99998 76.2894 2.68147 79.4861 4.00556C82.6827 5.32964 85.5873 7.27039 88.0339 9.71699C90.4805 12.1636 92.4213 15.0681 93.7454 18.2648C95.0695 21.4614 95.751 24.8876 95.751 28.3476C95.751 42.899 83.9547 54.6953 69.4033 54.6953C54.852 54.6953 43.0557 42.899 43.0557 28.3476C43.0557 13.7963 54.852 2 69.4033 2ZM71.9631 37.4081H66.6936C60.1707 37.4081 54.5706 41.3587 52.1552 46.998C55.9769 52.357 62.282 54.2611 69.3658 54.2611C76.4495 54.2611 82.6796 52.357 86.5015 46.9977C84.0861 41.3587 78.486 37.4081 71.9631 37.4081ZM69.3658 15.3607C65.0004 15.3607 61.4615 18.8996 61.4615 23.265C61.4615 27.6304 65.0004 31.1693 69.3658 31.1693C73.7312 31.1693 77.2701 27.6304 77.2701 23.265C77.2701 18.8996 73.7313 15.3607 69.3658 15.3607Z" stroke="black" stroke-width="3"/>
<path d="M3.36 92.5122V70.1122H5.984L16.032 87.0402H14.624L24.544 70.1122H27.168L27.2 92.5122H24.128L24.096 74.9442H24.832L16 89.7922H14.528L5.632 74.9442H6.432V92.5122H3.36ZM39.1065 92.7042C37.2932 92.7042 35.6932 92.3309 34.3065 91.5842C32.9412 90.8375 31.8745 89.8135 31.1065 88.5122C30.3598 87.2109 29.9865 85.7175 29.9865 84.0322C29.9865 82.3469 30.3492 80.8535 31.0745 79.5522C31.8212 78.2509 32.8345 77.2375 34.1145 76.5122C35.4158 75.7655 36.8772 75.3922 38.4985 75.3922C40.1412 75.3922 41.5918 75.7549 42.8505 76.4802C44.1092 77.2055 45.0905 78.2295 45.7945 79.5522C46.5198 80.8535 46.8825 82.3789 46.8825 84.1282C46.8825 84.2562 46.8718 84.4055 46.8505 84.5762C46.8505 84.7469 46.8398 84.9069 46.8185 85.0562H32.3865V82.8482H45.2185L43.9705 83.6162C43.9918 82.5282 43.7678 81.5575 43.2985 80.7042C42.8292 79.8509 42.1785 79.1895 41.3465 78.7202C40.5358 78.2295 39.5865 77.9842 38.4985 77.9842C37.4318 77.9842 36.4825 78.2295 35.6505 78.7202C34.8185 79.1895 34.1678 79.8615 33.6985 80.7362C33.2292 81.5895 32.9945 82.5709 32.9945 83.6802V84.1922C32.9945 85.3229 33.2505 86.3362 33.7625 87.2322C34.2958 88.1069 35.0318 88.7895 35.9705 89.2802C36.9092 89.7709 37.9865 90.0162 39.2025 90.0162C40.2052 90.0162 41.1118 89.8455 41.9225 89.5042C42.7545 89.1629 43.4798 88.6509 44.0985 87.9682L45.7945 89.9522C45.0265 90.8482 44.0665 91.5309 42.9145 92.0002C41.7838 92.4695 40.5145 92.7042 39.1065 92.7042ZM70.4443 75.3922C71.8096 75.3922 73.0149 75.6589 74.0603 76.1922C75.1056 76.7255 75.9163 77.5362 76.4923 78.6242C77.0896 79.7122 77.3883 81.0882 77.3883 82.7522V92.5122H74.3163V83.1042C74.3163 81.4615 73.9323 80.2242 73.1643 79.3922C72.3963 78.5602 71.3189 78.1442 69.9323 78.1442C68.9083 78.1442 68.0123 78.3575 67.2443 78.7842C66.4763 79.2109 65.8789 79.8402 65.4523 80.6722C65.0469 81.5042 64.8443 82.5389 64.8443 83.7762V92.5122H61.7723V83.1042C61.7723 81.4615 61.3883 80.2242 60.6203 79.3922C59.8736 78.5602 58.7963 78.1442 57.3883 78.1442C56.3856 78.1442 55.5003 78.3575 54.7323 78.7842C53.9643 79.2109 53.3669 79.8402 52.9403 80.6722C52.5136 81.5042 52.3003 82.5389 52.3003 83.7762V92.5122H49.2283V75.5522H52.1723V80.0642L51.6923 78.9122C52.2256 77.8029 53.0469 76.9389 54.1562 76.3202C55.2656 75.7015 56.5563 75.3922 58.0283 75.3922C59.6496 75.3922 61.0469 75.7975 62.2203 76.6082C63.3936 77.3975 64.1616 78.6029 64.5243 80.2242L63.2763 79.7122C63.7883 78.4109 64.6843 77.3655 65.9643 76.5762C67.2443 75.7869 68.7376 75.3922 70.4443 75.3922ZM90.1127 92.7042C88.6621 92.7042 87.3501 92.3842 86.1767 91.7442C85.0247 91.0829 84.1074 90.1122 83.4247 88.8322C82.7634 87.5522 82.4327 85.9522 82.4327 84.0322C82.4327 82.1122 82.7741 80.5122 83.4567 79.2322C84.1607 77.9522 85.0887 76.9922 86.2407 76.3522C87.4141 75.7122 88.7047 75.3922 90.1127 75.3922C91.7767 75.3922 93.2487 75.7549 94.5287 76.4802C95.8087 77.2055 96.8221 78.2189 97.5687 79.5202C98.3154 80.8002 98.6887 82.3042 98.6887 84.0322C98.6887 85.7602 98.3154 87.2749 97.5687 88.5762C96.8221 89.8775 95.8087 90.8909 94.5287 91.6162C93.2487 92.3415 91.7767 92.7042 90.1127 92.7042ZM81.1207 92.5122V68.7682H84.1927V80.0642L83.8727 84.0002L84.0647 87.9362V92.5122H81.1207ZM89.8567 90.0162C90.9447 90.0162 91.9154 89.7709 92.7687 89.2802C93.6434 88.7895 94.3261 88.0962 94.8167 87.2002C95.3287 86.2829 95.5847 85.2269 95.5847 84.0322C95.5847 82.8162 95.3287 81.7709 94.8167 80.8962C94.3261 80.0002 93.6434 79.3069 92.7687 78.8162C91.9154 78.3255 90.9447 78.0802 89.8567 78.0802C88.7901 78.0802 87.8194 78.3255 86.9447 78.8162C86.0914 79.3069 85.4087 80.0002 84.8967 80.8962C84.4061 81.7709 84.1607 82.8162 84.1607 84.0322C84.1607 85.2269 84.4061 86.2829 84.8967 87.2002C85.4087 88.0962 86.0914 88.7895 86.9447 89.2802C87.8194 89.7709 88.7901 90.0162 89.8567 90.0162ZM108.565 92.7042C106.752 92.7042 105.152 92.3309 103.765 91.5842C102.4 90.8375 101.333 89.8135 100.565 88.5122C99.8186 87.2109 99.4452 85.7175 99.4452 84.0322C99.4452 82.3469 99.8079 80.8535 100.533 79.5522C101.28 78.2509 102.293 77.2375 103.573 76.5122C104.875 75.7655 106.336 75.3922 107.957 75.3922C109.6 75.3922 111.051 75.7549 112.309 76.4802C113.568 77.2055 114.549 78.2295 115.253 79.5522C115.979 80.8535 116.341 82.3789 116.341 84.1282C116.341 84.2562 116.331 84.4055 116.309 84.5762C116.309 84.7469 116.299 84.9069 116.277 85.0562H101.845V82.8482H114.677L113.429 83.6162C113.451 82.5282 113.227 81.5575 112.757 80.7042C112.288 79.8509 111.637 79.1895 110.805 78.7202C109.995 78.2295 109.045 77.9842 107.957 77.9842C106.891 77.9842 105.941 78.2295 105.109 78.7202C104.277 79.1895 103.627 79.8615 103.157 80.7362C102.688 81.5895 102.453 82.5709 102.453 83.6802V84.1922C102.453 85.3229 102.709 86.3362 103.221 87.2322C103.755 88.1069 104.491 88.7895 105.429 89.2802C106.368 89.7709 107.445 90.0162 108.661 90.0162C109.664 90.0162 110.571 89.8455 111.381 89.5042C112.213 89.1629 112.939 88.6509 113.557 87.9682L115.253 89.9522C114.485 90.8482 113.525 91.5309 112.373 92.0002C111.243 92.4695 109.973 92.7042 108.565 92.7042ZM118.687 92.5122V75.5522H121.631V80.1602L121.343 79.0082C121.812 77.8349 122.602 76.9389 123.711 76.3202C124.82 75.7015 126.186 75.3922 127.807 75.3922V78.3682C127.679 78.3469 127.551 78.3362 127.423 78.3362C127.316 78.3362 127.21 78.3362 127.103 78.3362C125.46 78.3362 124.159 78.8269 123.199 79.8082C122.239 80.7895 121.759 82.2082 121.759 84.0642V92.5122H118.687ZM134.725 92.7042C133.317 92.7042 131.973 92.5122 130.693 92.1282C129.434 91.7442 128.442 91.2749 127.717 90.7202L128.997 88.2882C129.722 88.7789 130.618 89.1949 131.685 89.5362C132.751 89.8775 133.839 90.0482 134.949 90.0482C136.378 90.0482 137.402 89.8455 138.021 89.4402C138.661 89.0349 138.981 88.4695 138.981 87.7442C138.981 87.2109 138.789 86.7949 138.405 86.4962C138.021 86.1975 137.509 85.9735 136.869 85.8242C136.25 85.6749 135.557 85.5469 134.789 85.4402C134.021 85.3122 133.253 85.1629 132.485 84.9922C131.717 84.8002 131.013 84.5442 130.373 84.2242C129.733 83.8829 129.221 83.4242 128.837 82.8482C128.453 82.2509 128.261 81.4615 128.261 80.4802C128.261 79.4562 128.549 78.5602 129.125 77.7922C129.701 77.0242 130.511 76.4375 131.557 76.0322C132.623 75.6055 133.882 75.3922 135.333 75.3922C136.442 75.3922 137.562 75.5309 138.693 75.8082C139.845 76.0642 140.783 76.4375 141.509 76.9282L140.197 79.3602C139.429 78.8482 138.629 78.4962 137.797 78.3042C136.965 78.1122 136.133 78.0162 135.301 78.0162C133.957 78.0162 132.954 78.2402 132.293 78.6882C131.631 79.1149 131.301 79.6695 131.301 80.3522C131.301 80.9282 131.493 81.3762 131.877 81.6962C132.282 81.9949 132.794 82.2295 133.413 82.4002C134.053 82.5709 134.757 82.7202 135.525 82.8482C136.293 82.9549 137.061 83.1042 137.829 83.2962C138.597 83.4669 139.29 83.7122 139.909 84.0322C140.549 84.3522 141.061 84.8002 141.445 85.3762C141.85 85.9522 142.053 86.7202 142.053 87.6802C142.053 88.7042 141.754 89.5895 141.157 90.3362C140.559 91.0829 139.717 91.6695 138.629 92.0962C137.541 92.5015 136.239 92.7042 134.725 92.7042Z" fill="black"/>
</svg>
