<svg width="58" height="58" viewBox="0 0 58 58" fill="none" xmlns="http://www.w3.org/2000/svg">
<path fill-rule="evenodd" clip-rule="evenodd" d="M28.9999 3C32.4143 2.99998 35.7952 3.67248 38.9497 4.97909C42.1042 6.2857 44.9704 8.20084 47.3847 10.6152C49.7991 13.0295 51.7142 15.8957 53.0209 19.0502C54.3275 22.2046 55 25.5856 55 28.9999C55 43.3594 43.3594 55 28.9999 55C14.6406 55 3 43.3594 3 28.9999C3 14.6406 14.6406 3 28.9999 3ZM31.526 37.9409H26.326C19.8892 37.9409 14.363 41.8393 11.9795 47.4043C15.7508 52.6925 21.9727 54.5715 28.9629 54.5715C35.9532 54.5715 42.1011 52.6925 45.8725 47.4039C43.489 41.8393 37.9629 37.9409 31.526 37.9409ZM28.9629 16.1844C24.6552 16.1844 21.163 19.6766 21.163 23.9844C21.163 28.2922 24.6552 31.7844 28.9629 31.7844C33.2707 31.7844 36.7629 28.2922 36.7629 23.9844C36.7629 19.6766 33.2709 16.1844 28.9629 16.1844Z" stroke="black" stroke-width="6"/>
</svg>
