<svg width="185" height="234" viewBox="0 0 185 234" fill="none" xmlns="http://www.w3.org/2000/svg">
<path d="M0 64.1721C0 55.3356 7.16344 48.1721 16 48.1721H185V185.172H16C7.16344 185.172 0 178.009 0 169.172V64.1721Z" fill="#5119E9"/>
<path d="M143 184.924L185 184.924L185 233.421L184.161 228.599C180.424 207.112 164.228 189.927 143 184.924Z" fill="#5119E9"/>
<path d="M143 48.6695L185 48.6695L185 0.172121L184.161 4.99377C180.424 26.4811 164.228 43.6665 143 48.6695Z" fill="#5119E9"/>
<path d="M34.36 159.797V137.397H43.096C45.0587 137.397 46.7333 137.706 48.12 138.325C49.5067 138.943 50.5733 139.839 51.32 141.013C52.0667 142.186 52.44 143.583 52.44 145.205C52.44 146.826 52.0667 148.223 51.32 149.397C50.5733 150.549 49.5067 151.434 48.12 152.053C46.7333 152.671 45.0587 152.981 43.096 152.981H36.12L37.56 151.509V159.797H34.36ZM49.336 159.797L43.64 151.669H47.064L52.824 159.797H49.336ZM37.56 151.829L36.12 150.261H43C45.048 150.261 46.5947 149.823 47.64 148.949C48.7067 148.053 49.24 146.805 49.24 145.205C49.24 143.605 48.7067 142.367 47.64 141.493C46.5947 140.618 45.048 140.181 43 140.181H36.12L37.56 138.581V151.829ZM62.794 159.989C60.9807 159.989 59.3807 159.615 57.994 158.869C56.6287 158.122 55.562 157.098 54.794 155.797C54.0473 154.495 53.674 153.002 53.674 151.317C53.674 149.631 54.0367 148.138 54.762 146.837C55.5087 145.535 56.522 144.522 57.802 143.797C59.1033 143.05 60.5647 142.677 62.186 142.677C63.8287 142.677 65.2793 143.039 66.538 143.765C67.7967 144.49 68.778 145.514 69.482 146.837C70.2073 148.138 70.57 149.663 70.57 151.413C70.57 151.541 70.5593 151.69 70.538 151.861C70.538 152.031 70.5273 152.191 70.506 152.341H56.074V150.133H68.906L67.658 150.901C67.6793 149.813 67.4553 148.842 66.986 147.989C66.5167 147.135 65.866 146.474 65.034 146.005C64.2233 145.514 63.274 145.269 62.186 145.269C61.1193 145.269 60.17 145.514 59.338 146.005C58.506 146.474 57.8553 147.146 57.386 148.021C56.9167 148.874 56.682 149.855 56.682 150.965V151.477C56.682 152.607 56.938 153.621 57.45 154.517C57.9833 155.391 58.7193 156.074 59.658 156.565C60.5967 157.055 61.674 157.301 62.89 157.301C63.8927 157.301 64.7993 157.13 65.61 156.789C66.442 156.447 67.1673 155.935 67.786 155.253L69.482 157.237C68.714 158.133 67.754 158.815 66.602 159.285C65.4713 159.754 64.202 159.989 62.794 159.989ZM81.9078 159.989C80.4998 159.989 79.2091 159.669 78.0358 159.029C76.8838 158.367 75.9558 157.397 75.2517 156.117C74.5691 154.837 74.2277 153.237 74.2277 151.317C74.2277 149.397 74.5584 147.797 75.2197 146.517C75.9024 145.237 76.8198 144.277 77.9718 143.637C79.1451 142.997 80.4571 142.677 81.9078 142.677C83.5718 142.677 85.0438 143.039 86.3238 143.765C87.6038 144.49 88.6171 145.503 89.3638 146.805C90.1104 148.085 90.4838 149.589 90.4838 151.317C90.4838 153.045 90.1104 154.559 89.3638 155.861C88.6171 157.162 87.6038 158.175 86.3238 158.901C85.0438 159.626 83.5718 159.989 81.9078 159.989ZM72.9158 166.005V142.837H75.8598V147.413L75.6677 151.349L75.9878 155.285V166.005H72.9158ZM81.6518 157.301C82.7398 157.301 83.7104 157.055 84.5638 156.565C85.4384 156.074 86.1211 155.381 86.6118 154.485C87.1238 153.567 87.3798 152.511 87.3798 151.317C87.3798 150.101 87.1238 149.055 86.6118 148.181C86.1211 147.285 85.4384 146.591 84.5638 146.101C83.7104 145.61 82.7398 145.365 81.6518 145.365C80.5851 145.365 79.6144 145.61 78.7397 146.101C77.8864 146.591 77.2038 147.285 76.6918 148.181C76.2011 149.055 75.9557 150.101 75.9557 151.317C75.9557 152.511 76.2011 153.567 76.6918 154.485C77.2038 155.381 77.8864 156.074 78.7397 156.565C79.6144 157.055 80.5851 157.301 81.6518 157.301ZM100.072 159.989C98.3656 159.989 96.8509 159.615 95.5283 158.869C94.2056 158.122 93.1603 157.098 92.3923 155.797C91.6243 154.474 91.2403 152.981 91.2403 151.317C91.2403 149.631 91.6243 148.138 92.3923 146.837C93.1603 145.535 94.2056 144.522 95.5283 143.797C96.8509 143.05 98.3656 142.677 100.072 142.677C101.758 142.677 103.262 143.05 104.584 143.797C105.928 144.522 106.974 145.535 107.72 146.837C108.488 148.117 108.872 149.61 108.872 151.317C108.872 153.002 108.488 154.495 107.72 155.797C106.974 157.098 105.928 158.122 104.584 158.869C103.262 159.615 101.758 159.989 100.072 159.989ZM100.072 157.301C101.16 157.301 102.131 157.055 102.984 156.565C103.859 156.074 104.542 155.381 105.032 154.485C105.523 153.567 105.768 152.511 105.768 151.317C105.768 150.101 105.523 149.055 105.032 148.181C104.542 147.285 103.859 146.591 102.984 146.101C102.131 145.61 101.16 145.365 100.072 145.365C98.9843 145.365 98.0136 145.61 97.1603 146.101C96.3069 146.591 95.6243 147.285 95.1123 148.181C94.6003 149.055 94.3443 150.101 94.3443 151.317C94.3443 152.511 94.6003 153.567 95.1123 154.485C95.6243 155.381 96.3069 156.074 97.1603 156.565C98.0136 157.055 98.9843 157.301 100.072 157.301ZM111.201 159.797V142.837H114.145V147.445L113.857 146.293C114.326 145.119 115.115 144.223 116.225 143.605C117.334 142.986 118.699 142.677 120.321 142.677V145.653C120.193 145.631 120.065 145.621 119.937 145.621C119.83 145.621 119.723 145.621 119.617 145.621C117.974 145.621 116.673 146.111 115.713 147.093C114.753 148.074 114.273 149.493 114.273 151.349V159.797H111.201ZM128.699 159.989C126.992 159.989 125.669 159.53 124.731 158.613C123.792 157.695 123.323 156.383 123.323 154.677V139.125H126.395V154.549C126.395 155.466 126.619 156.17 127.067 156.661C127.536 157.151 128.197 157.397 129.051 157.397C130.011 157.397 130.811 157.13 131.451 156.597L132.411 158.805C131.941 159.21 131.376 159.509 130.715 159.701C130.075 159.893 129.403 159.989 128.699 159.989ZM120.443 145.365V142.837H131.259V145.365H120.443ZM139.069 159.989C137.661 159.989 136.317 159.797 135.037 159.413C133.778 159.029 132.786 158.559 132.061 158.005L133.341 155.573C134.066 156.063 134.962 156.479 136.029 156.821C137.095 157.162 138.183 157.333 139.293 157.333C140.722 157.333 141.746 157.13 142.365 156.725C143.005 156.319 143.325 155.754 143.325 155.029C143.325 154.495 143.133 154.079 142.749 153.781C142.365 153.482 141.853 153.258 141.213 153.109C140.594 152.959 139.901 152.831 139.133 152.725C138.365 152.597 137.597 152.447 136.829 152.277C136.061 152.085 135.357 151.829 134.717 151.509C134.077 151.167 133.565 150.709 133.181 150.133C132.797 149.535 132.605 148.746 132.605 147.765C132.605 146.741 132.893 145.845 133.469 145.077C134.045 144.309 134.855 143.722 135.901 143.317C136.967 142.89 138.226 142.677 139.677 142.677C140.786 142.677 141.906 142.815 143.037 143.093C144.189 143.349 145.127 143.722 145.853 144.213L144.541 146.645C143.773 146.133 142.973 145.781 142.141 145.589C141.309 145.397 140.477 145.301 139.645 145.301C138.301 145.301 137.298 145.525 136.637 145.973C135.975 146.399 135.645 146.954 135.645 147.637C135.645 148.213 135.837 148.661 136.221 148.981C136.626 149.279 137.138 149.514 137.757 149.685C138.397 149.855 139.101 150.005 139.869 150.133C140.637 150.239 141.405 150.389 142.173 150.581C142.941 150.751 143.634 150.997 144.253 151.317C144.893 151.637 145.405 152.085 145.789 152.661C146.194 153.237 146.397 154.005 146.397 154.965C146.397 155.989 146.098 156.874 145.501 157.621C144.903 158.367 144.061 158.954 142.973 159.381C141.885 159.786 140.583 159.989 139.069 159.989Z" fill="white"/>
<path d="M87.625 103.297H91.375V110.797H87.625V103.297ZM97 99.5466H100.75V110.797H97V99.5466ZM78.25 92.0466H82V110.797H78.25V92.0466Z" fill="white"/>
<path d="M106.375 75.1716H100.75V73.2966C100.75 72.3021 100.355 71.3482 99.6516 70.645C98.9484 69.9417 97.9946 69.5466 97 69.5466H82C81.0054 69.5466 80.0516 69.9417 79.3484 70.645C78.6451 71.3482 78.25 72.3021 78.25 73.2966V75.1716H72.625C71.6304 75.1716 70.6766 75.5667 69.9733 76.27C69.2701 76.9732 68.875 77.9271 68.875 78.9216V118.297C68.875 119.291 69.2701 120.245 69.9733 120.948C70.6766 121.652 71.6304 122.047 72.625 122.047H106.375C107.37 122.047 108.323 121.652 109.027 120.948C109.73 120.245 110.125 119.291 110.125 118.297V78.9216C110.125 77.9271 109.73 76.9732 109.027 76.27C108.323 75.5667 107.37 75.1716 106.375 75.1716ZM82 73.2966H97V80.7966H82V73.2966ZM106.375 118.297H72.625V78.9216H78.25V84.5466H100.75V78.9216H106.375V118.297Z" fill="white"/>
</svg>
