<svg width="133" height="102" viewBox="0 0 133 102" fill="none" xmlns="http://www.w3.org/2000/svg">
<path d="M11.36 94V71.6H20.096C22.0587 71.6 23.7333 71.9093 25.12 72.528C26.5067 73.1467 27.5733 74.0427 28.32 75.216C29.0667 76.3893 29.44 77.7867 29.44 79.408C29.44 81.0293 29.0667 82.4267 28.32 83.6C27.5733 84.752 26.5067 85.6373 25.12 86.256C23.7333 86.8747 22.0587 87.184 20.096 87.184H13.12L14.56 85.712V94H11.36ZM26.336 94L20.64 85.872H24.064L29.824 94H26.336ZM14.56 86.032L13.12 84.464H20C22.048 84.464 23.5947 84.0267 24.64 83.152C25.7067 82.256 26.24 81.008 26.24 79.408C26.24 77.808 25.7067 76.5707 24.64 75.696C23.5947 74.8213 22.048 74.384 20 74.384H13.12L14.56 72.784V86.032ZM39.794 94.192C37.9807 94.192 36.3807 93.8187 34.994 93.072C33.6287 92.3253 32.562 91.3013 31.794 90C31.0473 88.6987 30.674 87.2053 30.674 85.52C30.674 83.8347 31.0367 82.3413 31.762 81.04C32.5087 79.7387 33.522 78.7253 34.802 78C36.1033 77.2533 37.5647 76.88 39.186 76.88C40.8287 76.88 42.2793 77.2427 43.538 77.968C44.7967 78.6933 45.778 79.7173 46.482 81.04C47.2073 82.3413 47.57 83.8667 47.57 85.616C47.57 85.744 47.5593 85.8933 47.538 86.064C47.538 86.2347 47.5273 86.3947 47.506 86.544H33.074V84.336H45.906L44.658 85.104C44.6793 84.016 44.4553 83.0453 43.986 82.192C43.5167 81.3387 42.866 80.6773 42.034 80.208C41.2233 79.7173 40.274 79.472 39.186 79.472C38.1193 79.472 37.17 79.7173 36.338 80.208C35.506 80.6773 34.8553 81.3493 34.386 82.224C33.9167 83.0773 33.682 84.0587 33.682 85.168V85.68C33.682 86.8107 33.938 87.824 34.45 88.72C34.9833 89.5947 35.7193 90.2773 36.658 90.768C37.5967 91.2587 38.674 91.504 39.89 91.504C40.8927 91.504 41.7993 91.3333 42.61 90.992C43.442 90.6507 44.1673 90.1387 44.786 89.456L46.482 91.44C45.714 92.336 44.754 93.0187 43.602 93.488C42.4713 93.9573 41.202 94.192 39.794 94.192ZM58.9078 94.192C57.4998 94.192 56.2091 93.872 55.0358 93.232C53.8838 92.5707 52.9558 91.6 52.2517 90.32C51.5691 89.04 51.2277 87.44 51.2277 85.52C51.2277 83.6 51.5584 82 52.2197 80.72C52.9024 79.44 53.8198 78.48 54.9718 77.84C56.1451 77.2 57.4571 76.88 58.9078 76.88C60.5718 76.88 62.0438 77.2427 63.3238 77.968C64.6038 78.6933 65.6171 79.7067 66.3638 81.008C67.1104 82.288 67.4838 83.792 67.4838 85.52C67.4838 87.248 67.1104 88.7627 66.3638 90.064C65.6171 91.3653 64.6038 92.3787 63.3238 93.104C62.0438 93.8293 60.5718 94.192 58.9078 94.192ZM49.9158 100.208V77.04H52.8598V81.616L52.6677 85.552L52.9878 89.488V100.208H49.9158ZM58.6518 91.504C59.7398 91.504 60.7104 91.2587 61.5638 90.768C62.4384 90.2773 63.1211 89.584 63.6118 88.688C64.1238 87.7707 64.3798 86.7147 64.3798 85.52C64.3798 84.304 64.1238 83.2587 63.6118 82.384C63.1211 81.488 62.4384 80.7947 61.5638 80.304C60.7104 79.8133 59.7398 79.568 58.6518 79.568C57.5851 79.568 56.6144 79.8133 55.7397 80.304C54.8864 80.7947 54.2038 81.488 53.6918 82.384C53.2011 83.2587 52.9557 84.304 52.9557 85.52C52.9557 86.7147 53.2011 87.7707 53.6918 88.688C54.2038 89.584 54.8864 90.2773 55.7397 90.768C56.6144 91.2587 57.5851 91.504 58.6518 91.504ZM77.0723 94.192C75.3656 94.192 73.8509 93.8187 72.5283 93.072C71.2056 92.3253 70.1603 91.3013 69.3923 90C68.6243 88.6773 68.2403 87.184 68.2403 85.52C68.2403 83.8347 68.6243 82.3413 69.3923 81.04C70.1603 79.7387 71.2056 78.7253 72.5283 78C73.8509 77.2533 75.3656 76.88 77.0723 76.88C78.7576 76.88 80.2616 77.2533 81.5843 78C82.9283 78.7253 83.9736 79.7387 84.7203 81.04C85.4883 82.32 85.8723 83.8133 85.8723 85.52C85.8723 87.2053 85.4883 88.6987 84.7203 90C83.9736 91.3013 82.9283 92.3253 81.5843 93.072C80.2616 93.8187 78.7576 94.192 77.0723 94.192ZM77.0723 91.504C78.1603 91.504 79.1309 91.2587 79.9843 90.768C80.8589 90.2773 81.5416 89.584 82.0323 88.688C82.5229 87.7707 82.7683 86.7147 82.7683 85.52C82.7683 84.304 82.5229 83.2587 82.0323 82.384C81.5416 81.488 80.8589 80.7947 79.9843 80.304C79.1309 79.8133 78.1603 79.568 77.0723 79.568C75.9843 79.568 75.0136 79.8133 74.1603 80.304C73.3069 80.7947 72.6243 81.488 72.1123 82.384C71.6003 83.2587 71.3443 84.304 71.3443 85.52C71.3443 86.7147 71.6003 87.7707 72.1123 88.688C72.6243 89.584 73.3069 90.2773 74.1603 90.768C75.0136 91.2587 75.9843 91.504 77.0723 91.504ZM88.2007 94V77.04H91.1448V81.648L90.8568 80.496C91.3261 79.3227 92.1154 78.4267 93.2248 77.808C94.3341 77.1893 95.6994 76.88 97.3208 76.88V79.856C97.1927 79.8347 97.0648 79.824 96.9368 79.824C96.8301 79.824 96.7234 79.824 96.6167 79.824C94.9741 79.824 93.6727 80.3147 92.7127 81.296C91.7527 82.2773 91.2727 83.696 91.2727 85.552V94H88.2007ZM105.699 94.192C103.992 94.192 102.669 93.7333 101.731 92.816C100.792 91.8987 100.323 90.5867 100.323 88.88V73.328H103.395V88.752C103.395 89.6693 103.619 90.3733 104.067 90.864C104.536 91.3547 105.197 91.6 106.051 91.6C107.011 91.6 107.811 91.3333 108.451 90.8L109.411 93.008C108.941 93.4133 108.376 93.712 107.715 93.904C107.075 94.096 106.403 94.192 105.699 94.192ZM97.4425 79.568V77.04H108.259V79.568H97.4425ZM116.069 94.192C114.661 94.192 113.317 94 112.037 93.616C110.778 93.232 109.786 92.7627 109.061 92.208L110.341 89.776C111.066 90.2667 111.962 90.6827 113.029 91.024C114.095 91.3653 115.183 91.536 116.293 91.536C117.722 91.536 118.746 91.3333 119.365 90.928C120.005 90.5227 120.325 89.9573 120.325 89.232C120.325 88.6987 120.133 88.2827 119.749 87.984C119.365 87.6853 118.853 87.4613 118.213 87.312C117.594 87.1627 116.901 87.0347 116.133 86.928C115.365 86.8 114.597 86.6507 113.829 86.48C113.061 86.288 112.357 86.032 111.717 85.712C111.077 85.3707 110.565 84.912 110.181 84.336C109.797 83.7387 109.605 82.9493 109.605 81.968C109.605 80.944 109.893 80.048 110.469 79.28C111.045 78.512 111.855 77.9253 112.901 77.52C113.967 77.0933 115.226 76.88 116.677 76.88C117.786 76.88 118.906 77.0187 120.037 77.296C121.189 77.552 122.127 77.9253 122.853 78.416L121.541 80.848C120.773 80.336 119.973 79.984 119.141 79.792C118.309 79.6 117.477 79.504 116.645 79.504C115.301 79.504 114.298 79.728 113.637 80.176C112.975 80.6027 112.645 81.1573 112.645 81.84C112.645 82.416 112.837 82.864 113.221 83.184C113.626 83.4827 114.138 83.7173 114.757 83.888C115.397 84.0587 116.101 84.208 116.869 84.336C117.637 84.4427 118.405 84.592 119.173 84.784C119.941 84.9547 120.634 85.2 121.253 85.52C121.893 85.84 122.405 86.288 122.789 86.864C123.194 87.44 123.397 88.208 123.397 89.168C123.397 90.192 123.098 91.0773 122.501 91.824C121.903 92.5707 121.061 93.1573 119.973 93.584C118.885 93.9893 117.583 94.192 116.069 94.192Z" fill="black"/>
<path d="M64.625 37.5H68.375V45H64.625V37.5ZM74 33.75H77.75V45H74V33.75ZM55.25 26.25H59V45H55.25V26.25Z" fill="black"/>
<path d="M83.375 9.375H77.75V7.5C77.75 6.50544 77.3549 5.55161 76.6516 4.84835C75.9484 4.14509 74.9946 3.75 74 3.75H59C58.0054 3.75 57.0516 4.14509 56.3484 4.84835C55.6451 5.55161 55.25 6.50544 55.25 7.5V9.375H49.625C48.6304 9.375 47.6766 9.77009 46.9733 10.4733C46.2701 11.1766 45.875 12.1304 45.875 13.125V52.5C45.875 53.4946 46.2701 54.4484 46.9733 55.1516C47.6766 55.8549 48.6304 56.25 49.625 56.25H83.375C84.3696 56.25 85.3234 55.8549 86.0266 55.1516C86.7299 54.4484 87.125 53.4946 87.125 52.5V13.125C87.125 12.1304 86.7299 11.1766 86.0266 10.4733C85.3234 9.77009 84.3696 9.375 83.375 9.375ZM59 7.5H74V15H59V7.5ZM83.375 52.5H49.625V13.125H55.25V18.75H77.75V13.125H83.375V52.5Z" fill="black"/>
</svg>
