<svg width="16" height="12" viewBox="0 0 16 12" fill="none" xmlns="http://www.w3.org/2000/svg">
<path d="M11.8465 11.2828C12.0031 11.439 12.2564 11.4388 12.4121 11.2825L14.9507 8.73558C15.1065 8.57929 15.1058 8.32602 14.9491 8.1699C14.7925 8.01377 14.5392 8.01391 14.3835 8.1702L12.127 10.4342L9.85797 8.17264C9.70133 8.01652 9.44806 8.01666 9.29228 8.17295C9.1365 8.32924 9.1372 8.58251 9.29384 8.73863L11.8465 11.2828ZM11.701 1.01035L11.7285 11.0001L12.5285 10.9996L12.501 1.00992L11.701 1.01035Z" fill="white"/>
<path d="M3.57439 0.717168C3.73104 0.561043 3.9843 0.561179 4.14008 0.717473L6.67864 3.26442C6.83442 3.42071 6.83372 3.67398 6.67708 3.8301C6.52044 3.98623 6.26717 3.98609 6.1114 3.8298L3.8549 1.56585L1.58591 3.82736C1.42927 3.98348 1.17601 3.98335 1.02023 3.82705C0.864448 3.67076 0.865147 3.41749 1.02179 3.26137L3.57439 0.717168ZM3.4289 10.9897L3.45646 0.999946L4.25646 1.00038L4.2289 10.9901L3.4289 10.9897Z" fill="white"/>
</svg>
